SplineFontDB: 3.2
FontName: TF2Professor
FullName: TF2 Professor
FamilyName: TF2 Professor
Weight: Book
Copyright: Copyright (c) Andrea Wicklund 2007. Created by www.fontifier.com. u98-72k-y2cia\nModified by AdRiAnO66\nExtended by Jakadak
Version: 3.0
ItalicAngle: 0
UnderlinePosition: -150
UnderlineWidth: 100
Ascent: 819
Descent: 205
InvalidEm: 0
sfntRevision: 0x0002024e
LayerCount: 2
Layer: 0 1 "Back" 1
Layer: 1 1 "Fore" 0
XUID: [1021 400 1947487990 22723]
StyleMap: 0x0040
FSType: 0
OS2Version: 3
OS2_WeightWidthSlopeOnly: 0
OS2_UseTypoMetrics: 0
CreationTime: 1263062704
ModificationTime: 1613314324
PfmFamily: 81
TTFWeight: 400
TTFWidth: 5
LineGap: 24
VLineGap: 0
Panose: 0 0 4 0 0 0 0 0 0 0
OS2TypoAscent: 337
OS2TypoAOffset: 0
OS2TypoDescent: 0
OS2TypoDOffset: 0
OS2TypoLinegap: 47
OS2WinAscent: 707
OS2WinAOffset: 0
OS2WinDescent: 79
OS2WinDOffset: 0
HheadAscent: 707
HheadAOffset: 0
HheadDescent: -79
HheadDOffset: 0
OS2SubXSize: 700
OS2SubYSize: 650
OS2SubXOff: 0
OS2SubYOff: 143
OS2SupXSize: 700
OS2SupYSize: 650
OS2SupXOff: 0
OS2SupYOff: 453
OS2StrikeYSize: 50
OS2StrikeYPos: 259
OS2CapHeight: 553
OS2XHeight: 319
OS2Vendor: 'Alts'
OS2CodePages: 00000001.00000000
OS2UnicodeRanges: 80000027.0000000a.00000000.00000000
Lookup: 258 0 0 "'kern' Horizontal Kerning in Latin lookup 0" { "'kern' Horizontal Kerning in Latin lookup 0 subtable"  } ['kern' ('latn' <'dflt' > ) ]
MarkAttachClasses: 1
DEI: 91125
TtTable: prep
PUSHW_1
 30
CALL
PUSHW_1
 20
CALL
PUSHW_1
 10
CALL
PUSHW_1
 0
CALL
EndTTInstrs
TtTable: fpgm
PUSHW_1
 0
FDEF
MPPEM
PUSHW_1
 3
LT
IF
PUSHB_2
 1
 1
INSTCTRL
EIF
PUSHW_1
 511
SCANCTRL
PUSHW_1
 68
SCVTCI
PUSHW_2
 3
 3
SDS
SDB
ENDF
PUSHW_1
 1
FDEF
DUP
DUP
RCVT
ROUND[Black]
WCVTP
PUSHB_1
 1
ADD
ENDF
PUSHW_1
 2
FDEF
PUSHW_1
 1
LOOPCALL
POP
ENDF
PUSHW_1
 3
FDEF
DUP
GC[cur]
PUSHB_1
 3
CINDEX
GC[cur]
GT
IF
SWAP
EIF
DUP
ROLL
DUP
ROLL
MD[grid]
ABS
ROLL
DUP
GC[cur]
DUP
ROUND[Grey]
SUB
ABS
PUSHB_1
 4
CINDEX
GC[cur]
DUP
ROUND[Grey]
SUB
ABS
GT
IF
SWAP
NEG
ROLL
EIF
MDAP[rnd]
DUP

StartChar: exclam
Encoding: 33 33 4
Width: 112
GlyphClass: 2
Flags: W
LayerCount: 2
Fore
SplineSet
64 176 m 1,0,-1
 52 180 l 1,1,-1
 48 192 l 1,2,-1
 46 309 l 1,3,-1
 42 357 l 1,4,-1
 40 382 l 1,5,-1
 38 406 l 1,6,-1
 35 431 l 1,7,-1
 34 452 l 1,8,-1
 32 508 l 1,9,-1
 36 520 l 1,10,-1
 48 524 l 1,11,-1
 60 520 l 1,12,-1
 64 508 l 1,13,-1
 67 482 l 1,14,-1
 69 460 l 1,15,-1
 72 436 l 1,16,-1
 75 417 l 1,17,-1
 80 192 l 1,18,-1
 76 180 l 1,19,-1
 64 176 l 1,0,-1
64 48 m 1,20,-1
 52 52 l 1,21,-1
 36 68 l 1,22,-1
 32 80 l 1,23,-1
 36 92 l 1,24,-1
 48 96 l 1,25,-1
 64 96 l 1,26,-1
 76 92 l 1,27,-1
 80 80 l 1,28,-1
 80 64 l 1,29,-1
 76 52 l 1,30,-1
 64 48 l 1,20,-1
EndSplineSet
Validated: 1
EndChar

StartChar: quotedbl
Encoding: 34 34 5
Width: 192
GlyphClass: 2
Flags: W
LayerCount: 2
Fore
SplineSet
68 524 m 1,0,-1
 60 516 l 1,1,-1
 52 516 l 1,2,-1
 36 532 l 1,3,-1
 32 544 l 1,4,-1
 32 656 l 1,5,-1
 36 668 l 1,6,-1
 48 672 l 1,7,-1
 60 668 l 1,8,-1
 64 656 l 1,9,-1
 64 640 l 1,10,-1
 68 628 l 1,11,-1
 76 620 l 1,12,-1
 80 608 l 1,13,-1
 80 544 l 1,14,-1
 76 532 l 1,15,-1
 68 524 l 1,0,-1
144 576 m 1,16,-1
 144 560 l 1,17,-1
 140 548 l 1,18,-1
 124 532 l 1,19,-1
 116 532 l 1,20,-1
 112 544 l 1,21,-1
 112 640 l 1,22,-1
 116 652 l 1,23,-1
 128 656 l 1,24,-1
 140 652 l 1,25,-1
 144 640 l 1,26,-1
 144 624 l 1,27,-1
 144 576 l 1,16,-1
EndSplineSet
Validated: 1
EndChar

StartChar: numbersign
Encoding: 35 35 6
Width: 464
GlyphClass: 2
Flags: W
LayerCount: 2
Fore
SplineSet
291 346 m 1,0,-1
 268 352 l 1,1,-1
 176 346 l 1,2,-1
 172 320 l 1,3,-1
 172 304 l 1,4,-1
 176 292 l 1,5,-1
 188 288 l 1,6,-1
 268 288 l 1,7,-1
 299 292 l 1,8,-1
 291 346 l 1,0,-1
412 272 m 1,9,-1
 396 272 l 1,10,-1
 352 264 l 1,11,-1
 348 240 l 1,12,-1
 352 228 l 1,13,-1
 360 220 l 1,14,-1
 360 212 l 1,15,-1
 348 208 l 1,16,-1
 332 208 l 1,17,-1
 320 212 l 1,18,-1
 312 236 l 1,19,-1
 296 252 l 1,20,-1
 284 256 l 1,21,-1
 204 256 l 1,22,-1
 192 252 l 1,23,-1
 188 240 l 1,24,-1
 204 192 l 1,25,-1
 204 176 l 1,26,-1
 200 164 l 1,27,-1
 188 160 l 1,28,-1
 166 161 l 1,29,-1
 160 180 l 1,30,-1
 156 192 l 1,31,-1
 156 224 l 1,32,-1
 152 236 l 1,33,-1
 140 240 l 1,34,-1
 60 240 l 1,35,-1
 48 244 l 1,36,-1
 44 256 l 1,37,-1
 48 268 l 1,38,-1
 60 272 l 1,39,-1
 92 272 l 1,40,-1
 104 276 l 1,41,-1
 112 284 l 1,42,-1
 136 292 l 1,43,-1
 140 304 l 1,44,-1
 140 336 l 1,45,-1
 136 348 l 1,46,-1
 124 352 l 1,47,-1
 112 348 l 1,48,-1
 44 336 l 1,49,-1
 32 340 l 1,50,-1
 31 367 l 1,51,-1
 48 373 l 1,52,-1
 72 372 l 1,53,-1
 80 380 l 1,54,-1
 92 384 l 1,55,-1
 108 384 l 1,56,-1
 120 388 l 1,57,-1
 124 448 l 1,58,-1
 124 464 l 1,59,-1
 128 476 l 1,60,-1
 144 492 l 1,61,-1
 152 492 l 1,62,-1
 156 480 l 1,63,-1
 156 464 l 1,64,-1
 160 400 l 1,65,-1
 164 388 l 1,66,-1
 176 384 l 1,67,-1
 268 384 l 1,68,-1
 280 388 l 1,69,-1
 284 400 l 1,70,-1
 284 416 l 1,71,-1
 280 428 l 1,72,-1
 272 436 l 1,73,-1
 268 448 l 1,74,-1
 268 464 l 1,75,-1
 272 476 l 1,76,-1
 284 480 l 1,77,-1
 296 476 l 1,78,-1
 312 460 l 1,79,-1
 316 448 l 1,80,-1
 316 416 l 1,81,-1
 322 387 l 1,82,-1
 376 380 l 1,83,-1
 380 368 l 1,84,-1
 376 356 l 1,85,-1
 361 345 l 1,86,-1
 336 345 l 1,87,-1
 332 320 l 1,88,-1
 336 308 l 1,89,-1
 352 292 l 1,90,-1
 360 292 l 1,91,-1
 408 300 l 1,92,-1
 424 284 l 1,93,-1
 424 276 l 1,94,-1
 412 272 l 1,9,-1
EndSplineSet
Validated: 1
EndChar

StartChar: dollar
Encoding: 36 36 7
Width: 320
GlyphClass: 2
Flags: W
LayerCount: 2
Fore
SplineSet
144 432 m 1,0,-1
 134 531 l 1,1,-1
 130 543 l 1,2,-1
 124 556 l 1,3,-1
 116 556 l 1,4,-1
 68 508 l 1,5,-1
 64 496 l 1,6,-1
 64 480 l 1,7,-1
 68 468 l 1,8,-1
 84 436 l 1,9,-1
 116 420 l 1,10,-1
 128 416 l 1,11,-1
 140 420 l 1,12,-1
 144 432 l 1,0,-1
240 224 m 1,13,-1
 249 255 l 1,14,-1
 245 267 l 1,15,-1
 237 284 l 1,16,-1
 220 300 l 1,17,-1
 194 317 l 1,18,-1
 192 288 l 1,19,-1
 192 224 l 1,20,-1
 196 212 l 1,21,-1
 208 208 l 1,22,-1
 224 208 l 1,23,-1
 236 212 l 1,24,-1
 240 224 l 1,13,-1
276 236 m 1,25,-1
 268 212 l 1,26,-1
 252 196 l 1,27,-1
 240 192 l 1,28,-1
 224 192 l 1,29,-1
 212 188 l 1,30,-1
 208 176 l 1,31,-1
 208 64 l 1,32,-1
 212 52 l 1,33,-1
 220 44 l 1,34,-1
 224 32 l 1,35,-1
 224 16 l 1,36,-1
 220 4 l 1,37,-1
 208 0 l 1,38,-1
 192 0 l 1,39,-1
 180 4 l 1,40,-1
 168 147 l 1,41,-1
 160 160 l 1,42,-1
 158 184 l 1,43,-1
 140 188 l 1,44,-1
 116 196 l 1,45,-1
 68 244 l 1,46,-1
 64 256 l 1,47,-1
 68 268 l 1,48,-1
 80 272 l 1,49,-1
 96 272 l 1,50,-1
 108 268 l 1,51,-1
 116 244 l 1,52,-1
 148 212 l 1,53,-1
 156 212 l 1,54,-1
 160 224 l 1,55,-1
 160 320 l 1,56,-1
 151 364 l 1,57,-1
 108 396 l 1,58,-1
 84 404 l 1,59,-1
 36 452 l 1,60,-1
 32 464 l 1,61,-1
 32 496 l 1,62,-1
 36 508 l 1,63,-1
 40 522 l 1,64,-1
 52 540 l 1,65,-1
 84 572 l 1,66,-1
 108 580 l 1,67,-1
 124 596 l 1,68,-1
 128 608 l 1,69,-1
 128 640 l 1,70,-1
 132 652 l 1,71,-1
 144 656 l 1,72,-1
 156 652 l 1,73,-1
 160 640 l 1,74,-1
 160 608 l 1,75,-1
 164 596 l 1,76,-1
 176 592 l 1,77,-1
 208 592 l 1,78,-1
 220 588 l 1,79,-1
 228 580 l 1,80,-1
 252 572 l 1,81,-1
 268 556 l 1,82,-1
 272 544 l 1,83,-1
 244 532 l 1,84,-1
 220 556 l 1,85,-1
 208 560 l 1,86,-1
 176 560 l 1,87,-1
 164 556 l 1,88,-1
 164 548 l 1,89,-1
 162 543 l 1,90,-1
 166 531 l 1,91,-1
 176 400 l 1,92,-1
 180 388 l 1,93,-1
 252 316 l 1,94,-1
 260 292 l 1,95,-1
 268 284 l 1,96,-1
 276 260 l 1,97,-1
 276 236 l 1,25,-1
EndSplineSet
Validated: 1
EndChar

StartChar: percent
Encoding: 37 37 8
Width: 528
GlyphClass: 2
Flags: W
LayerCount: 2
Fore
SplineSet
188 515 m 1,0,-1
 183 540 l 1,1,-1
 156 556 l 1,2,-1
 144 560 l 1,3,-1
 132 556 l 1,4,-1
 100 524 l 1,5,-1
 92 500 l 1,6,-1
 84 492 l 1,7,-1
 80 480 l 1,8,-1
 80 448 l 1,9,-1
 84 436 l 1,10,-1
 104 434 l 1,11,-1
 135 442 l 1,12,-1
 156 468 l 1,13,-1
 188 515 l 1,0,-1
212 524 m 1,14,-1
 204 500 l 1,15,-1
 196 492 l 1,16,-1
 188 468 l 1,17,-1
 156 436 l 1,18,-1
 132 412 l 1,19,-1
 108 404 l 1,20,-1
 96 400 l 1,21,-1
 84 404 l 1,22,-1
 76 412 l 1,23,-1
 52 420 l 1,24,-1
 48 432 l 1,25,-1
 48 480 l 1,26,-1
 52 492 l 1,27,-1
 58 505 l 1,28,-1
 68 524 l 1,29,-1
 92 548 l 1,30,-1
 106 566 l 1,31,-1
 124 580 l 1,32,-1
 132 588 l 1,33,-1
 144 592 l 1,34,-1
 176 592 l 1,35,-1
 188 588 l 1,36,-1
 220 556 l 1,37,-1
 224 544 l 1,38,-1
 220 532 l 1,39,-1
 212 524 l 1,14,-1
404 540 m 1,40,-1
 260 396 l 1,41,-1
 252 372 l 1,42,-1
 100 220 l 1,43,-1
 92 196 l 1,44,-1
 60 164 l 1,45,-1
 48 160 l 1,46,-1
 36 164 l 1,47,-1
 32 176 l 1,48,-1
 32 192 l 1,49,-1
 36 204 l 1,50,-1
 316 484 l 1,51,-1
 388 556 l 1,52,-1
 400 560 l 1,53,-1
 412 556 l 1,54,-1
 412 548 l 1,55,-1
 404 540 l 1,40,-1
464 272 m 1,56,-1
 473 298 l 1,57,-1
 463 320 l 1,58,-1
 428 332 l 1,59,-1
 416 336 l 1,60,-1
 393 332 l 1,61,-1
 404 324 l 1,62,-1
 412 316 l 1,63,-1
 416 304 l 1,64,-1
 412 292 l 1,65,-1
 400 288 l 1,66,-1
 388 292 l 1,67,-1
 380 300 l 1,68,-1
 368 304 l 1,69,-1
 336 304 l 1,70,-1
 324 300 l 1,71,-1
 308 284 l 1,72,-1
 300 260 l 1,73,-1
 292 252 l 1,74,-1
 288 240 l 1,75,-1
 288 224 l 1,76,-1
 292 212 l 1,77,-1
 308 196 l 1,78,-1
 320 192 l 1,79,-1
 400 192 l 1,80,-1
 412 196 l 1,81,-1
 444 228 l 1,82,-1
 460 260 l 1,83,-1
 464 272 l 1,56,-1
484 268 m 1,84,-1
 476 244 l 1,85,-1
 468 236 l 1,86,-1
 460 212 l 1,87,-1
 428 180 l 1,88,-1
 404 172 l 1,89,-1
 396 164 l 1,90,-1
 384 160 l 1,91,-1
 368 160 l 1,92,-1
 320 160 l 1,93,-1
 288 160 l 1,94,-1
 276 164 l 1,95,-1
 260 180 l 1,96,-1
 252 204 l 1,97,-1
 244 212 l 1,98,-1
 240 224 l 1,99,-1
 244 236 l 1,100,-1
 252 244 l 1,101,-1
 260 268 l 1,102,-1
 292 316 l 1,103,-1
 308 332 l 1,104,-1
 340 348 l 1,105,-1
 352 352 l 1,106,-1
 387 351 l 1,107,-1
 415 362 l 1,108,-1
 439 363 l 1,109,-1
 451 359 l 1,110,-1
 492 332 l 1,111,-1
 496 320 l 1,112,-1
 496 288 l 1,113,-1
 492 276 l 1,114,-1
 484 268 l 1,84,-1
EndSplineSet
Validated: 1
EndChar

StartChar: ampersand
Encoding: 38 38 9
Width: 367
GlyphClass: 2
Flags: W
LayerCount: 2
Fore
SplineSet
144 512 m 1,0,-1
 144 560 l 1,1,-1
 140 572 l 1,2,-1
 128 576 l 1,3,-1
 112 576 l 1,4,-1
 100 572 l 1,5,-1
 96 560 l 1,6,-1
 96 544 l 1,7,-1
 100 532 l 1,8,-1
 108 524 l 1,9,-1
 116 500 l 1,10,-1
 130 480 l 1,11,-1
 140 500 l 1,12,-1
 144 512 l 1,0,-1
208 240 m 1,13,-1
 208 256 l 1,14,-1
 204 268 l 1,15,-1
 180 292 l 1,16,-1
 172 316 l 1,17,-1
 164 316 l 1,18,-1
 148 300 l 1,19,-1
 144 288 l 1,20,-1
 144 240 l 1,21,-1
 140 228 l 1,22,-1
 132 228 l 1,23,-1
 116 244 l 1,24,-1
 112 256 l 1,25,-1
 112 288 l 1,26,-1
 116 300 l 1,27,-1
 124 308 l 1,28,-1
 132 332 l 1,29,-1
 140 340 l 1,30,-1
 144 352 l 1,31,-1
 144 368 l 1,32,-1
 132 388 l 1,33,-1
 124 412 l 1,34,-1
 116 412 l 1,35,-1
 100 396 l 1,36,-1
 92 372 l 1,37,-1
 75 329 l 1,38,-1
 71 317 l 1,39,-1
 68 300 l 1,40,-1
 64 288 l 1,41,-1
 64 256 l 1,42,-1
 68 244 l 1,43,-1
 69 230 l 1,44,-1
 80 208 l 1,45,-1
 84 196 l 1,46,-1
 108 188 l 1,47,-1
 116 180 l 1,48,-1
 128 176 l 1,49,-1
 144 176 l 1,50,-1
 156 180 l 1,51,-1
 204 228 l 1,52,-1
 208 240 l 1,13,-1
240 304 m 1,53,-1
 240 368 l 1,54,-1
 236 380 l 1,55,-1
 224 384 l 1,56,-1
 212 380 l 1,57,-1
 180 348 l 1,58,-1
 180 340 l 1,59,-1
 196 308 l 1,60,-1
 212 292 l 1,61,-1
 224 288 l 1,62,-1
 236 292 l 1,63,-1
 240 304 l 1,53,-1
260 300 m 1,64,-1
 252 276 l 1,65,-1
 244 268 l 1,66,-1
 240 256 l 1,67,-1
 244 244 l 1,68,-1
 252 236 l 1,69,-1
 256 224 l 1,70,-1
 252 212 l 1,71,-1
 244 212 l 1,72,-1
 236 220 l 1,73,-1
 228 220 l 1,74,-1
 172 164 l 1,75,-1
 160 160 l 1,76,-1
 96 160 l 1,77,-1
 84 164 l 1,78,-1
 52 196 l 1,79,-1
 42 217 l 1,80,-1
 36 228 l 1,81,-1
 32 240 l 1,82,-1
 27 281 l 1,83,-1
 31 293 l 1,84,-1
 33 321 l 1,85,-1
 37 333 l 1,86,-1
 48 368 l 1,87,-1
 52 380 l 1,88,-1
 68 412 l 1,89,-1
 92 436 l 1,90,-1
 109 451 l 1,91,-1
 96 480 l 1,92,-1
 92 492 l 1,93,-1
 84 500 l 1,94,-1
 76 524 l 1,95,-1
 68 532 l 1,96,-1
 64 544 l 1,97,-1
 64 560 l 1,98,-1
 68 572 l 1,99,-1
 100 604 l 1,100,-1
 112 608 l 1,101,-1
 124 604 l 1,102,-1
 132 596 l 1,103,-1
 156 588 l 1,104,-1
 172 572 l 1,105,-1
 176 560 l 1,106,-1
 176 528 l 1,107,-1
 173 504 l 1,108,-1
 169 492 l 1,109,-1
 160 480 l 1,110,-1
 156 468 l 1,111,-1
 148 460 l 1,112,-1
 144 448 l 1,113,-1
 144 416 l 1,114,-1
 148 404 l 1,115,-1
 164 388 l 1,116,-1
 172 388 l 1,117,-1
 207 411 l 1,118,-1
 219 415 l 1,119,-1
 240 416 l 1,120,-1
 252 412 l 1,121,-1
 260 388 l 1,122,-1
 268 380 l 1,123,-1
 272 368 l 1,124,-1
 272 320 l 1,125,-1
 268 308 l 1,126,-1
 260 300 l 1,64,-1
260 180 m 1,127,-1
 256 192 l 1,128,-1
 260 204 l 1,129,-1
 268 204 l 1,130,-1
 272 192 l 1,131,-1
 268 180 l 1,132,-1
 260 180 l 1,127,-1
292 132 m 1,133,-1
 276 148 l 1,134,-1
 272 160 l 1,135,-1
 276 172 l 1,136,-1
 284 172 l 1,137,-1
 300 156 l 1,138,-1
 304 144 l 1,139,-1
 300 132 l 1,140,-1
 292 132 l 1,133,-1
308 100 m 1,141,-1
 304 112 l 1,142,-1
 308 124 l 1,143,-1
 316 124 l 1,144,-1
 320 112 l 1,145,-1
 316 100 l 1,146,-1
 308 100 l 1,141,-1
324 84 m 1,147,-1
 324 92 l 1,148,-1
 332 92 l 1,149,-1
 332 84 l 1,150,-1
 324 84 l 1,147,-1
EndSplineSet
Validated: 1
EndChar

StartChar: quotesingle
Encoding: 39 39 10
Width: 160
GlyphClass: 2
Flags: W
LayerCount: 2
Fore
SplineSet
116 604 m 5,0,-1
 112 592 l 5,1,-1
 112 576 l 5,2,-1
 108 564 l 5,3,-1
 76 500 l 5,4,-1
 60 484 l 5,5,-1
 48 480 l 5,6,-1
 36 484 l 5,7,-1
 32 496 l 5,8,-1
 32 512 l 5,9,-1
 36 524 l 5,10,-1
 44 532 l 5,11,-1
 62 555 l 5,12,-1
 76 580 l 5,13,-1
 84 604 l 5,14,-1
 100 620 l 5,15,-1
 112 624 l 5,16,-1
 124 620 l 5,17,-1
 124 612 l 5,18,-1
 116 604 l 5,0,-1
EndSplineSet
Validated: 1
EndChar

StartChar: parenleft
Encoding: 40 40 11
Width: 256
GlyphClass: 2
Flags: W
LayerCount: 2
Fore
SplineSet
164 28 m 1,0,-1
 156 20 l 1,1,-1
 144 16 l 1,2,-1
 132 20 l 1,3,-1
 100 52 l 1,4,-1
 92 76 l 1,5,-1
 84 84 l 1,6,-1
 76 108 l 1,7,-1
 68 116 l 1,8,-1
 64 128 l 1,9,-1
 64 144 l 1,10,-1
 60 156 l 1,11,-1
 52 164 l 1,12,-1
 48 176 l 1,13,-1
 36 244 l 1,14,-1
 32 256 l 1,15,-1
 48 336 l 1,16,-1
 48 416 l 1,17,-1
 52 428 l 1,18,-1
 60 436 l 1,19,-1
 64 448 l 1,20,-1
 64 512 l 1,21,-1
 68 524 l 1,22,-1
 84 556 l 1,23,-1
 92 564 l 1,24,-1
 100 588 l 1,25,-1
 140 628 l 1,26,-1
 148 652 l 1,27,-1
 160 656 l 1,28,-1
 172 652 l 1,29,-1
 176 640 l 1,30,-1
 172 628 l 1,31,-1
 164 620 l 1,32,-1
 156 596 l 1,33,-1
 116 556 l 1,34,-1
 112 544 l 1,35,-1
 100 508 l 1,36,-1
 96 496 l 1,37,-1
 89 401 l 1,38,-1
 85 389 l 1,39,-1
 84 364 l 1,40,-1
 80 352 l 1,41,-1
 80 256 l 1,42,-1
 80 243 l 1,43,-1
 82 232 l 1,44,-1
 85 219 l 1,45,-1
 96 176 l 1,46,-1
 100 164 l 1,47,-1
 108 156 l 1,48,-1
 116 132 l 1,49,-1
 140 108 l 1,50,-1
 148 84 l 1,51,-1
 156 76 l 1,52,-1
 164 52 l 1,53,-1
 172 44 l 1,54,-1
 172 36 l 1,55,-1
 164 28 l 1,0,-1
212 -4 m 1,56,-1
 204 -12 l 1,57,-1
 192 -16 l 1,58,-1
 180 -12 l 1,59,-1
 176 0 l 1,60,-1
 176 16 l 1,61,-1
 180 28 l 1,62,-1
 192 32 l 1,63,-1
 204 28 l 1,64,-1
 220 12 l 1,65,-1
 220 4 l 1,66,-1
 212 -4 l 1,56,-1
EndSplineSet
Validated: 1
EndChar

StartChar: parenright
Encoding: 41 41 12
Width: 272
GlyphClass: 2
Flags: W
LayerCount: 2
Fore
SplineSet
228 236 m 1,0,-1
 224 224 l 1,1,-1
 224 192 l 1,2,-1
 220 180 l 1,3,-1
 208 144 l 1,4,-1
 174 95 l 1,5,-1
 76 4 l 1,6,-1
 64 0 l 1,7,-1
 48 0 l 1,8,-1
 36 4 l 1,9,-1
 32 16 l 1,10,-1
 32 32 l 1,11,-1
 51 46 l 1,12,-1
 73 59 l 1,13,-1
 126 101 l 1,14,-1
 178 186 l 1,15,-1
 192 240 l 1,16,-1
 196 252 l 1,17,-1
 204 260 l 1,18,-1
 208 272 l 1,19,-1
 208 384 l 1,20,-1
 204 396 l 1,21,-1
 196 404 l 1,22,-1
 192 416 l 1,23,-1
 192 432 l 1,24,-1
 188 444 l 1,25,-1
 180 452 l 1,26,-1
 172 476 l 1,27,-1
 92 556 l 1,28,-1
 68 564 l 1,29,-1
 36 596 l 1,30,-1
 32 608 l 1,31,-1
 36 620 l 1,32,-1
 48 624 l 1,33,-1
 60 620 l 1,34,-1
 68 612 l 1,35,-1
 92 604 l 1,36,-1
 100 596 l 1,37,-1
 124 588 l 1,38,-1
 156 556 l 1,39,-1
 164 532 l 1,40,-1
 188 508 l 1,41,-1
 196 484 l 1,42,-1
 204 476 l 1,43,-1
 208 464 l 1,44,-1
 215 445 l 1,45,-1
 219 433 l 1,46,-1
 220 428 l 1,47,-1
 224 416 l 1,48,-1
 240 368 l 1,49,-1
 240 256 l 1,50,-1
 236 244 l 1,51,-1
 228 236 l 1,0,-1
EndSplineSet
Validated: 1
EndChar

StartChar: asterisk
Encoding: 42 42 13
Width: 256
GlyphClass: 2
Flags: W
LayerCount: 2
Fore
SplineSet
204 576 m 1,0,-1
 172 576 l 1,1,-1
 160 572 l 1,2,-1
 160 564 l 1,3,-1
 168 556 l 1,4,-1
 176 532 l 1,5,-1
 184 524 l 1,6,-1
 188 512 l 1,7,-1
 184 500 l 1,8,-1
 176 500 l 1,9,-1
 152 556 l 1,10,-1
 136 572 l 1,11,-1
 128 572 l 1,12,-1
 112 556 l 1,13,-1
 104 532 l 1,14,-1
 72 484 l 1,15,-1
 60 480 l 1,16,-1
 48 484 l 1,17,-1
 48 492 l 1,18,-1
 56 500 l 1,19,-1
 64 524 l 1,20,-1
 72 532 l 1,21,-1
 80 556 l 1,22,-1
 88 564 l 1,23,-1
 92 576 l 1,24,-1
 88 588 l 1,25,-1
 76 592 l 1,26,-1
 44 592 l 1,27,-1
 32 596 l 1,28,-1
 32 604 l 1,29,-1
 44 608 l 1,30,-1
 92 608 l 1,31,-1
 104 612 l 1,32,-1
 104 620 l 1,33,-1
 80 644 l 1,34,-1
 76 656 l 1,35,-1
 80 668 l 1,36,-1
 88 668 l 1,37,-1
 112 644 l 1,38,-1
 128 630 l 1,39,-1
 138 641 l 1,40,-1
 152 660 l 1,41,-1
 160 684 l 1,42,-1
 168 684 l 1,43,-1
 172 672 l 1,44,-1
 172 656 l 1,45,-1
 168 644 l 1,46,-1
 160 636 l 1,47,-1
 156 624 l 1,48,-1
 160 612 l 1,49,-1
 172 608 l 1,50,-1
 204 608 l 1,51,-1
 216 604 l 1,52,-1
 220 592 l 1,53,-1
 216 580 l 1,54,-1
 204 576 l 1,0,-1
EndSplineSet
Validated: 1
EndChar

StartChar: plus
Encoding: 43 43 14
Width: 448
GlyphClass: 2
Flags: W
LayerCount: 2
Fore
SplineSet
400 348 m 1,0,-1
 392 340 l 1,1,-1
 380 336 l 1,2,-1
 268 336 l 1,3,-1
 256 332 l 1,4,-1
 252 320 l 1,5,-1
 252 240 l 1,6,-1
 256 228 l 1,7,-1
 264 220 l 1,8,-1
 268 208 l 1,9,-1
 264 196 l 1,10,-1
 248 180 l 1,11,-1
 240 180 l 1,12,-1
 236 192 l 1,13,-1
 236 208 l 1,14,-1
 232 220 l 1,15,-1
 224 228 l 1,16,-1
 216 252 l 1,17,-1
 200 332 l 1,18,-1
 188 336 l 1,19,-1
 44 336 l 1,20,-1
 32 340 l 1,21,-1
 32 348 l 1,22,-1
 48 364 l 1,23,-1
 72 372 l 1,24,-1
 80 380 l 1,25,-1
 92 384 l 1,26,-1
 172 384 l 1,27,-1
 184 388 l 1,28,-1
 188 400 l 1,29,-1
 188 464 l 1,30,-1
 192 476 l 1,31,-1
 200 484 l 1,32,-1
 204 496 l 1,33,-1
 204 512 l 1,34,-1
 208 524 l 1,35,-1
 216 524 l 1,36,-1
 232 508 l 1,37,-1
 236 496 l 1,38,-1
 236 416 l 1,39,-1
 240 404 l 1,40,-1
 256 388 l 1,41,-1
 268 384 l 1,42,-1
 284 384 l 1,43,-1
 348 384 l 1,44,-1
 364 384 l 1,45,-1
 376 388 l 1,46,-1
 384 396 l 1,47,-1
 392 396 l 1,48,-1
 408 380 l 1,49,-1
 412 368 l 1,50,-1
 408 356 l 1,51,-1
 400 348 l 1,0,-1
EndSplineSet
Validated: 1
EndChar

StartChar: comma
Encoding: 44 44 15
Width: 176
GlyphClass: 2
Flags: W
LayerCount: 2
Fore
SplineSet
132 -36 m 1,0,-1
 124 -44 l 1,1,-1
 100 -52 l 1,2,-1
 68 -76 l 1,3,-1
 36 -76 l 1,4,-1
 32 -64 l 1,5,-1
 36 -52 l 1,6,-1
 60 -44 l 1,7,-1
 103 -15 l 1,8,-1
 107 7 l 1,9,-1
 115 15 l 1,10,-1
 112 32 l 1,11,-1
 108 44 l 1,12,-1
 100 44 l 1,13,-1
 92 36 l 1,14,-1
 84 36 l 1,15,-1
 52 68 l 1,16,-1
 48 80 l 1,17,-1
 52 92 l 1,18,-1
 68 108 l 1,19,-1
 80 112 l 1,20,-1
 128 112 l 1,21,-1
 140 108 l 1,22,-1
 144 96 l 1,23,-1
 144 -16 l 1,24,-1
 140 -28 l 1,25,-1
 132 -36 l 1,0,-1
EndSplineSet
Validated: 1
EndChar

StartChar: hyphen
Encoding: 45 45 16
Width: 272
GlyphClass: 2
Flags: W
LayerCount: 2
Fore
SplineSet
228 284 m 1,0,-1
 220 276 l 1,1,-1
 208 272 l 1,2,-1
 160 272 l 1,3,-1
 148 268 l 1,4,-1
 140 260 l 1,5,-1
 128 256 l 1,6,-1
 96 256 l 1,7,-1
 84 252 l 1,8,-1
 76 244 l 1,9,-1
 64 240 l 1,10,-1
 48 240 l 1,11,-1
 36 244 l 1,12,-1
 32 256 l 1,13,-1
 36 268 l 1,14,-1
 48 272 l 1,15,-1
 64 272 l 1,16,-1
 76 276 l 1,17,-1
 84 284 l 1,18,-1
 96 288 l 1,19,-1
 128 288 l 1,20,-1
 140 292 l 1,21,-1
 148 300 l 1,22,-1
 160 304 l 1,23,-1
 224 304 l 1,24,-1
 236 300 l 1,25,-1
 236 292 l 1,26,-1
 228 284 l 1,0,-1
EndSplineSet
Validated: 1
EndChar

StartChar: period
Encoding: 46 46 17
Width: 128
GlyphClass: 2
Flags: W
LayerCount: 2
Fore
SplineSet
92 39 m 5,0,-1
 76 20 l 5,1,-1
 68 20 l 5,2,-1
 40 35 l 5,3,-1
 32 64 l 5,4,-1
 36 76 l 5,5,-1
 59 85 l 5,6,-1
 68 108 l 5,7,-1
 80 112 l 5,8,-1
 92 108 l 5,9,-1
 96 96 l 5,10,-1
 105 68 l 5,11,-1
 100 47 l 5,12,-1
 92 39 l 5,0,-1
EndSplineSet
Validated: 1
EndChar

StartChar: slash
Encoding: 47 47 18
Width: 242
GlyphClass: 2
Flags: W
LayerCount: 2
Fore
SplineSet
189 335 m 1,0,-1
 181 316 l 1,1,-1
 154 260 l 1,2,-1
 124 189 l 1,3,-1
 119 175 l 1,4,-1
 115 170 l 1,5,-1
 110 156 l 1,6,-1
 106 151 l 1,7,-1
 89 113 l 1,8,-1
 84 99 l 1,9,-1
 75 80 l 1,10,-1
 58 61 l 1,11,-1
 51 59 l 1,12,-1
 45 61 l 1,13,-1
 43 68 l 1,14,-1
 43 78 l 1,15,-1
 45 85 l 1,16,-1
 49 90 l 1,17,-1
 53 104 l 1,18,-1
 58 109 l 1,19,-1
 97 208 l 1,20,-1
 128 278 l 1,21,-1
 163 363 l 1,22,-1
 167 377 l 1,23,-1
 172 382 l 1,24,-1
 176 396 l 1,25,-1
 194 415 l 1,26,-1
 200 418 l 1,27,-1
 207 415 l 1,28,-1
 209 408 l 1,29,-1
 209 389 l 1,30,-1
 207 382 l 1,31,-1
 189 335 l 1,0,-1
EndSplineSet
Validated: 1
EndChar

StartChar: zero
Encoding: 48 48 19
Width: 400
GlyphClass: 2
Flags: W
LayerCount: 2
Fore
SplineSet
272 352 m 1,0,-1
 268 364 l 1,1,-1
 252 377 l 1,2,-1
 238 384 l 1,3,-1
 226 388 l 1,4,-1
 196 388 l 1,5,-1
 180 380 l 1,6,-1
 165 362 l 1,7,-1
 153 340 l 1,8,-1
 148 330 l 1,9,-1
 140 308 l 1,10,-1
 133 286 l 1,11,-1
 129 274 l 1,12,-1
 122 249 l 1,13,-1
 119 237 l 1,14,-1
 116 220 l 1,15,-1
 115 206 l 1,16,-1
 118 174 l 1,17,-1
 130 188 l 1,18,-1
 139 199 l 1,19,-1
 157 214 l 1,20,-1
 268 340 l 1,21,-1
 272 352 l 1,0,-1
304 288 m 1,22,-1
 300 300 l 1,23,-1
 293 307 l 1,24,-1
 278 293 l 1,25,-1
 262 277 l 1,26,-1
 204 212 l 1,27,-1
 172 180 l 1,28,-1
 132 140 l 1,29,-1
 132 132 l 1,30,-1
 137 119 l 1,31,-1
 148 100 l 1,32,-1
 180 68 l 1,33,-1
 199 57 l 1,34,-1
 212 52 l 1,35,-1
 234 50 l 1,36,-1
 251 57 l 1,37,-1
 268 68 l 1,38,-1
 281 86 l 1,39,-1
 285 98 l 1,40,-1
 292 108 l 1,41,-1
 296 120 l 1,42,-1
 300 132 l 1,43,-1
 306 154 l 1,44,-1
 310 205 l 1,45,-1
 304 288 l 1,22,-1
356 380 m 1,46,-1
 340 364 l 1,47,-1
 336 352 l 1,48,-1
 348 313 l 1,49,-1
 351 294 l 1,50,-1
 354 273 l 1,51,-1
 356 249 l 1,52,-1
 352 176 l 1,53,-1
 345 148 l 1,54,-1
 341 136 l 1,55,-1
 332 116 l 1,56,-1
 325 99 l 1,57,-1
 316 84 l 1,58,-1
 280 37 l 1,59,-1
 264 26 l 1,60,-1
 218 13 l 1,61,-1
 198 15 l 1,62,-1
 186 19 l 1,63,-1
 173 23 l 1,64,-1
 154 35 l 1,65,-1
 110 78 l 1,66,-1
 96 96 l 1,67,-1
 86 86 l 1,68,-1
 44 52 l 1,69,-1
 36 52 l 1,70,-1
 32 64 l 1,71,-1
 32 80 l 1,72,-1
 36 92 l 1,73,-1
 76 132 l 1,74,-1
 73 145 l 1,75,-1
 70 202 l 1,76,-1
 72 222 l 1,77,-1
 73 244 l 1,78,-1
 78 273 l 1,79,-1
 86 296 l 1,80,-1
 101 338 l 1,81,-1
 115 365 l 1,82,-1
 128 388 l 1,83,-1
 148 412 l 1,84,-1
 171 420 l 1,85,-1
 189 420 l 1,86,-1
 252 412 l 1,87,-1
 278 400 l 1,88,-1
 293 391 l 1,89,-1
 304 384 l 1,90,-1
 316 388 l 1,91,-1
 335 409 l 1,92,-1
 348 420 l 1,93,-1
 356 428 l 1,94,-1
 364 428 l 1,95,-1
 368 416 l 1,96,-1
 368 400 l 1,97,-1
 364 388 l 1,98,-1
 356 380 l 1,46,-1
EndSplineSet
Validated: 1
EndChar

StartChar: one
Encoding: 49 49 20
Width: 304
GlyphClass: 2
Flags: W
LayerCount: 2
Fore
SplineSet
260 28 m 1,0,-1
 252 20 l 1,1,-1
 240 16 l 1,2,-1
 112 0 l 1,3,-1
 100 -4 l 1,4,-1
 48 -16 l 1,5,-1
 36 -12 l 1,6,-1
 32 0 l 1,7,-1
 32 16 l 1,8,-1
 38 23 l 1,9,-1
 115 42 l 1,10,-1
 139 50 l 1,11,-1
 135 110 l 1,12,-1
 132 164 l 1,13,-1
 130 197 l 1,14,-1
 128 384 l 1,15,-1
 124 396 l 1,16,-1
 116 396 l 1,17,-1
 108 372 l 1,18,-1
 92 340 l 1,19,-1
 76 308 l 1,20,-1
 64 304 l 1,21,-1
 52 308 l 1,22,-1
 52 316 l 1,23,-1
 68 348 l 1,24,-1
 108 420 l 1,25,-1
 116 444 l 1,26,-1
 132 460 l 1,27,-1
 144 464 l 1,28,-1
 156 460 l 1,29,-1
 156 452 l 1,30,-1
 160 414 l 1,31,-1
 174 121 l 1,32,-1
 174 98 l 1,33,-1
 176 80 l 1,34,-1
 180 68 l 1,35,-1
 192 64 l 1,36,-1
 208 64 l 1,37,-1
 249 70 l 1,38,-1
 259 67 l 1,39,-1
 268 36 l 1,40,-1
 260 28 l 1,0,-1
EndSplineSet
Validated: 1
EndChar

StartChar: two
Encoding: 50 50 21
Width: 368
GlyphClass: 2
Flags: W
LayerCount: 2
Fore
SplineSet
314 11 m 1,0,-1
 296 4 l 1,1,-1
 266 11 l 1,2,-1
 76 0 l 1,3,-1
 52 3 l 1,4,-1
 40 12 l 1,5,-1
 32 20 l 1,6,-1
 32 28 l 1,7,-1
 48 44 l 1,8,-1
 72 52 l 1,9,-1
 136 116 l 1,10,-1
 157 141 l 1,11,-1
 184 180 l 1,12,-1
 200 212 l 1,13,-1
 208 236 l 1,14,-1
 214 254 l 1,15,-1
 218 266 l 1,16,-1
 220 288 l 1,17,-1
 220 384 l 1,18,-1
 216 396 l 1,19,-1
 205 408 l 1,20,-1
 188 416 l 1,21,-1
 156 416 l 1,22,-1
 137 405 l 1,23,-1
 124 387 l 1,24,-1
 112 359 l 1,25,-1
 104 335 l 1,26,-1
 100 323 l 1,27,-1
 75 322 l 1,28,-1
 71 334 l 1,29,-1
 76 368 l 1,30,-1
 91 405 l 1,31,-1
 107 426 l 1,32,-1
 142 452 l 1,33,-1
 153 455 l 1,34,-1
 189 457 l 1,35,-1
 208 448 l 1,36,-1
 240 419 l 1,37,-1
 252 400 l 1,38,-1
 258 380 l 1,39,-1
 252 249 l 1,40,-1
 248 228 l 1,41,-1
 241 203 l 1,42,-1
 228 177 l 1,43,-1
 200 132 l 1,44,-1
 168 92 l 1,45,-1
 152 68 l 1,46,-1
 144 60 l 1,47,-1
 144 52 l 1,48,-1
 156 48 l 1,49,-1
 300 64 l 1,50,-1
 312 60 l 1,51,-1
 328 44 l 1,52,-1
 328 36 l 1,53,-1
 314 11 l 1,0,-1
EndSplineSet
Validated: 1
EndChar

StartChar: three
Encoding: 51 51 22
Width: 256
GlyphClass: 2
Flags: W
LayerCount: 2
Fore
SplineSet
204 100 m 1,0,-1
 189 70 l 1,1,-1
 176 48 l 1,2,-1
 140 3 l 1,3,-1
 112 -12 l 1,4,-1
 48 -16 l 1,5,-1
 36 -12 l 1,6,-1
 32 0 l 1,7,-1
 32 16 l 1,8,-1
 36 28 l 1,9,-1
 48 32 l 1,10,-1
 80 32 l 1,11,-1
 92 36 l 1,12,-1
 124 52 l 1,13,-1
 140 68 l 1,14,-1
 172 116 l 1,15,-1
 188 148 l 1,16,-1
 189 163 l 1,17,-1
 189 185 l 1,18,-1
 185 203 l 1,19,-1
 177 215 l 1,20,-1
 167 224 l 1,21,-1
 64 224 l 1,22,-1
 52 228 l 1,23,-1
 48 240 l 1,24,-1
 52 252 l 1,25,-1
 92 279 l 1,26,-1
 112 310 l 1,27,-1
 120 334 l 1,28,-1
 128 369 l 1,29,-1
 128 384 l 1,30,-1
 127 394 l 1,31,-1
 115 398 l 1,32,-1
 103 394 l 1,33,-1
 92 388 l 1,34,-1
 60 372 l 1,35,-1
 48 368 l 1,36,-1
 36 372 l 1,37,-1
 32 384 l 1,38,-1
 32 400 l 1,39,-1
 36 412 l 1,40,-1
 48 416 l 1,41,-1
 84 428 l 1,42,-1
 96 432 l 1,43,-1
 112 432 l 1,44,-1
 124 428 l 1,45,-1
 156 396 l 1,46,-1
 160 384 l 1,47,-1
 160 368 l 1,48,-1
 159 347 l 1,49,-1
 151 321 l 1,50,-1
 146 304 l 1,51,-1
 132 276 l 1,52,-1
 156 268 l 1,53,-1
 188 252 l 1,54,-1
 204 236 l 1,55,-1
 220 204 l 1,56,-1
 224 192 l 1,57,-1
 224 144 l 1,58,-1
 220 132 l 1,59,-1
 204 100 l 1,0,-1
EndSplineSet
Validated: 1
EndChar

StartChar: four
Encoding: 52 52 23
Width: 320
GlyphClass: 2
Flags: W
LayerCount: 2
Fore
SplineSet
169 273 m 1,0,-1
 168 330 l 1,1,-1
 164 340 l 1,2,-1
 156 342 l 1,3,-1
 134 298 l 1,4,-1
 124 276 l 1,5,-1
 108 244 l 1,6,-1
 96 224 l 1,7,-1
 89 211 l 1,8,-1
 112 208 l 1,9,-1
 128 208 l 1,10,-1
 158 210 l 1,11,-1
 171 215 l 1,12,-1
 169 273 l 1,0,-1
272 192 m 1,13,-1
 240 192 l 1,14,-1
 228 188 l 1,15,-1
 224 176 l 1,16,-1
 224 16 l 1,17,-1
 220 4 l 1,18,-1
 208 0 l 1,19,-1
 196 4 l 1,20,-1
 180 20 l 1,21,-1
 176 32 l 1,22,-1
 176 160 l 1,23,-1
 172 172 l 1,24,-1
 160 176 l 1,25,-1
 48 176 l 1,26,-1
 36 180 l 1,27,-1
 32 192 l 1,28,-1
 36 204 l 1,29,-1
 56 230 l 1,30,-1
 68 252 l 1,31,-1
 100 300 l 1,32,-1
 143 398 l 1,33,-1
 151 406 l 1,34,-1
 155 418 l 1,35,-1
 157 431 l 1,36,-1
 156 444 l 1,37,-1
 157 454 l 1,38,-1
 157 462 l 1,39,-1
 164 476 l 1,40,-1
 172 476 l 1,41,-1
 188 460 l 1,42,-1
 192 448 l 1,43,-1
 200 393 l 1,44,-1
 208 336 l 1,45,-1
 214 240 l 1,46,-1
 218 228 l 1,47,-1
 230 224 l 1,48,-1
 272 224 l 1,49,-1
 284 220 l 1,50,-1
 288 208 l 1,51,-1
 284 196 l 1,52,-1
 272 192 l 1,13,-1
EndSplineSet
Validated: 1
EndChar

StartChar: five
Encoding: 53 53 24
Width: 336
GlyphClass: 2
Flags: W
LayerCount: 2
Fore
SplineSet
288 444 m 1,0,-1
 280 436 l 1,1,-1
 272 436 l 1,2,-1
 252 432 l 1,3,-1
 236 432 l 1,4,-1
 188 432 l 1,5,-1
 146 434 l 1,6,-1
 130 434 l 1,7,-1
 118 430 l 1,8,-1
 114 418 l 1,9,-1
 116 336 l 1,10,-1
 119 306 l 1,11,-1
 128 235 l 1,12,-1
 136 235 l 1,13,-1
 147 235 l 1,14,-1
 159 235 l 1,15,-1
 179 235 l 1,16,-1
 203 229 l 1,17,-1
 218 222 l 1,18,-1
 246 186 l 1,19,-1
 260 163 l 1,20,-1
 268 128 l 1,21,-1
 268 48 l 1,22,-1
 264 36 l 1,23,-1
 232 4 l 1,24,-1
 220 0 l 1,25,-1
 204 0 l 1,26,-1
 192 4 l 1,27,-1
 160 36 l 1,28,-1
 156 48 l 1,29,-1
 156 64 l 1,30,-1
 160 76 l 1,31,-1
 168 76 l 1,32,-1
 192 52 l 1,33,-1
 204 48 l 1,34,-1
 220 48 l 1,35,-1
 232 52 l 1,36,-1
 238 75 l 1,37,-1
 234 105 l 1,38,-1
 216 156 l 1,39,-1
 208 167 l 1,40,-1
 186 186 l 1,41,-1
 156 195 l 1,42,-1
 109 194 l 1,43,-1
 93 194 l 1,44,-1
 81 198 l 1,45,-1
 77 210 l 1,46,-1
 64 324 l 1,47,-1
 60 432 l 1,48,-1
 56 444 l 1,49,-1
 32 452 l 1,50,-1
 32 469 l 1,51,-1
 67 469 l 1,52,-1
 75 477 l 1,53,-1
 99 473 l 1,54,-1
 107 465 l 1,55,-1
 119 461 l 1,56,-1
 284 464 l 1,57,-1
 296 460 l 1,58,-1
 296 452 l 1,59,-1
 288 444 l 1,0,-1
EndSplineSet
Validated: 1
EndChar

StartChar: six
Encoding: 54 54 25
Width: 272
GlyphClass: 2
Flags: W
LayerCount: 2
Fore
SplineSet
196 49 m 1,0,-1
 188 62 l 1,1,-1
 168 76 l 1,2,-1
 150 82 l 1,3,-1
 125 86 l 1,4,-1
 113 82 l 1,5,-1
 109 70 l 1,6,-1
 112 53 l 1,7,-1
 125 33 l 1,8,-1
 144 20 l 1,9,-1
 162 17 l 1,10,-1
 185 20 l 1,11,-1
 198 33 l 1,12,-1
 196 49 l 1,0,-1
216 60 m 1,13,-1
 208 60 l 1,14,-1
 208 52 l 1,15,-1
 216 52 l 1,16,-1
 216 60 l 1,13,-1
224 12 m 1,17,-1
 216 4 l 1,18,-1
 197 -8 l 1,19,-1
 184 -12 l 1,20,-1
 172 -16 l 1,21,-1
 140 -16 l 1,22,-1
 128 -12 l 1,23,-1
 107 -5 l 1,24,-1
 87 15 l 1,25,-1
 77 39 l 1,26,-1
 69 63 l 1,27,-1
 65 75 l 1,28,-1
 48 84 l 1,29,-1
 32 100 l 1,30,-1
 32 108 l 1,31,-1
 58 117 l 1,32,-1
 64 154 l 1,33,-1
 70 200 l 1,34,-1
 76 240 l 1,35,-1
 92 288 l 1,36,-1
 96 300 l 1,37,-1
 112 348 l 1,38,-1
 128 380 l 1,39,-1
 147 409 l 1,40,-1
 192 460 l 1,41,-1
 204 464 l 1,42,-1
 220 464 l 1,43,-1
 232 460 l 1,44,-1
 232 452 l 1,45,-1
 212 435 l 1,46,-1
 183 399 l 1,47,-1
 157 351 l 1,48,-1
 148 332 l 1,49,-1
 140 304 l 1,50,-1
 128 252 l 1,51,-1
 122 223 l 1,52,-1
 112 162 l 1,53,-1
 108 144 l 1,54,-1
 108 128 l 1,55,-1
 119 122 l 1,56,-1
 153 116 l 1,57,-1
 177 107 l 1,58,-1
 211 86 l 1,59,-1
 232 60 l 1,60,-1
 236 48 l 1,61,-1
 236 32 l 1,62,-1
 232 20 l 1,63,-1
 224 12 l 1,17,-1
EndSplineSet
Validated: 1
EndChar

StartChar: seven
Encoding: 55 55 26
Width: 352
GlyphClass: 2
Flags: W
LayerCount: 2
Fore
SplineSet
304 336 m 1,0,-1
 240 112 l 1,1,-1
 236 100 l 1,2,-1
 224 48 l 1,3,-1
 220 36 l 1,4,-1
 212 28 l 1,5,-1
 208 16 l 1,6,-1
 208 0 l 1,7,-1
 204 -12 l 1,8,-1
 189 -16 l 1,9,-1
 181 -16 l 1,10,-1
 164 -12 l 1,11,-1
 160 0 l 1,12,-1
 160 32 l 1,13,-1
 164 44 l 1,14,-1
 176 80 l 1,15,-1
 180 92 l 1,16,-1
 212 204 l 1,17,-1
 240 304 l 1,18,-1
 256 352 l 1,19,-1
 260 364 l 1,20,-1
 268 372 l 1,21,-1
 272 384 l 1,22,-1
 272 400 l 1,23,-1
 268 412 l 1,24,-1
 204 404 l 1,25,-1
 192 400 l 1,26,-1
 80 384 l 1,27,-1
 48 384 l 1,28,-1
 36 388 l 1,29,-1
 32 400 l 1,30,-1
 36 412 l 1,31,-1
 48 416 l 1,32,-1
 132 428 l 1,33,-1
 144 432 l 1,34,-1
 244 444 l 1,35,-1
 256 448 l 1,36,-1
 310 455 l 1,37,-1
 322 451 l 1,38,-1
 326 439 l 1,39,-1
 319 390 l 1,40,-1
 316 372 l 1,41,-1
 304 336 l 1,0,-1
EndSplineSet
Validated: 1
EndChar

StartChar: eight
Encoding: 56 56 27
Width: 272
GlyphClass: 2
Flags: W
LayerCount: 2
Fore
SplineSet
171 353 m 1,0,-1
 171 401 l 1,1,-1
 163 425 l 1,2,-1
 151 440 l 1,3,-1
 129 446 l 1,4,-1
 110 439 l 1,5,-1
 96 419 l 1,6,-1
 88 387 l 1,7,-1
 91 353 l 1,8,-1
 99 336 l 1,9,-1
 111 325 l 1,10,-1
 123 321 l 1,11,-1
 139 321 l 1,12,-1
 151 325 l 1,13,-1
 163 335 l 1,14,-1
 171 353 l 1,0,-1
206 145 m 1,15,-1
 206 188 l 1,16,-1
 204 220 l 1,17,-1
 200 238 l 1,18,-1
 196 249 l 1,19,-1
 188 263 l 1,20,-1
 172 279 l 1,21,-1
 160 283 l 1,22,-1
 128 280 l 1,23,-1
 116 276 l 1,24,-1
 100 263 l 1,25,-1
 90 249 l 1,26,-1
 84 236 l 1,27,-1
 76 212 l 1,28,-1
 70 188 l 1,29,-1
 66 168 l 1,30,-1
 65 154 l 1,31,-1
 67 133 l 1,32,-1
 70 115 l 1,33,-1
 73 100 l 1,34,-1
 79 83 l 1,35,-1
 97 65 l 1,36,-1
 116 58 l 1,37,-1
 146 58 l 1,38,-1
 175 78 l 1,39,-1
 189 98 l 1,40,-1
 203 127 l 1,41,-1
 206 145 l 1,15,-1
231 91 m 1,42,-1
 221 67 l 1,43,-1
 205 40 l 1,44,-1
 187 21 l 1,45,-1
 171 12 l 1,46,-1
 155 5 l 1,47,-1
 139 2 l 1,48,-1
 98 5 l 1,49,-1
 78 11 l 1,50,-1
 55 27 l 1,51,-1
 43 46 l 1,52,-1
 27 110 l 1,53,-1
 29 192 l 1,54,-1
 34 215 l 1,55,-1
 41 243 l 1,56,-1
 47 255 l 1,57,-1
 64 281 l 1,58,-1
 76 298 l 1,59,-1
 86 304 l 1,60,-1
 73 314 l 1,61,-1
 63 333 l 1,62,-1
 59 369 l 1,63,-1
 61 402 l 1,64,-1
 70 429 l 1,65,-1
 82 451 l 1,66,-1
 96 468 l 1,67,-1
 113 475 l 1,68,-1
 128 481 l 1,69,-1
 139 481 l 1,70,-1
 155 481 l 1,71,-1
 167 477 l 1,72,-1
 183 461 l 1,73,-1
 194 443 l 1,74,-1
 199 429 l 1,75,-1
 203 417 l 1,76,-1
 203 369 l 1,77,-1
 200 350 l 1,78,-1
 198 342 l 1,79,-1
 189 329 l 1,80,-1
 179 314 l 1,81,-1
 188 316 l 1,82,-1
 212 302 l 1,83,-1
 228 281 l 1,84,-1
 240 256 l 1,85,-1
 247 233 l 1,86,-1
 250 207 l 1,87,-1
 246 154 l 1,88,-1
 240 120 l 1,89,-1
 231 91 l 1,42,-1
EndSplineSet
Validated: 1
EndChar

StartChar: nine
Encoding: 57 57 28
Width: 304
GlyphClass: 2
Flags: W
LayerCount: 2
Fore
SplineSet
194 333 m 1,0,-1
 191 347 l 1,1,-1
 185 359 l 1,2,-1
 169 375 l 1,3,-1
 157 379 l 1,4,-1
 125 377 l 1,5,-1
 105 367 l 1,6,-1
 84 347 l 1,7,-1
 79 339 l 1,8,-1
 77 324 l 1,9,-1
 84 300 l 1,10,-1
 100 281 l 1,11,-1
 113 274 l 1,12,-1
 131 272 l 1,13,-1
 148 273 l 1,14,-1
 161 278 l 1,15,-1
 170 284 l 1,16,-1
 181 297 l 1,17,-1
 188 307 l 1,18,-1
 191 316 l 1,19,-1
 194 333 l 1,0,-1
269 230 m 1,20,-1
 266 211 l 1,21,-1
 262 186 l 1,22,-1
 258 166 l 1,23,-1
 254 150 l 1,24,-1
 250 138 l 1,25,-1
 244 120 l 1,26,-1
 240 107 l 1,27,-1
 232 88 l 1,28,-1
 223 70 l 1,29,-1
 213 53 l 1,30,-1
 200 33 l 1,31,-1
 176 4 l 1,32,-1
 141 -25 l 1,33,-1
 115 -39 l 1,34,-1
 81 -48 l 1,35,-1
 48 -48 l 1,36,-1
 38 -39 l 1,37,-1
 38 -23 l 1,38,-1
 44 -19 l 1,39,-1
 88 -8 l 1,40,-1
 105 0 l 1,41,-1
 140 28 l 1,42,-1
 170 68 l 1,43,-1
 186 99 l 1,44,-1
 195 119 l 1,45,-1
 204 148 l 1,46,-1
 210 185 l 1,47,-1
 215 253 l 1,48,-1
 213 267 l 1,49,-1
 200 255 l 1,50,-1
 180 245 l 1,51,-1
 165 240 l 1,52,-1
 121 235 l 1,53,-1
 100 237 l 1,54,-1
 85 242 l 1,55,-1
 68 253 l 1,56,-1
 44 287 l 1,57,-1
 37 306 l 1,58,-1
 37 322 l 1,59,-1
 43 343 l 1,60,-1
 57 364 l 1,61,-1
 83 388 l 1,62,-1
 87 391 l 1,63,-1
 114 405 l 1,64,-1
 159 411 l 1,65,-1
 169 410 l 1,66,-1
 199 403 l 1,67,-1
 226 385 l 1,68,-1
 249 356 l 1,69,-1
 258 331 l 1,70,-1
 265 293 l 1,71,-1
 268 275 l 1,72,-1
 269 256 l 1,73,-1
 269 230 l 1,20,-1
EndSplineSet
Validated: 1
EndChar

StartChar: colon
Encoding: 58 58 29
Width: 144
GlyphClass: 2
Flags: W
LayerCount: 2
Fore
SplineSet
84 305 m 1,0,-1
 76 297 l 1,1,-1
 64 293 l 1,2,-1
 52 297 l 1,3,-1
 36 313 l 1,4,-1
 32 325 l 1,5,-1
 36 337 l 1,6,-1
 44 345 l 1,7,-1
 52 369 l 1,8,-1
 68 385 l 1,9,-1
 76 385 l 1,10,-1
 92 369 l 1,11,-1
 96 357 l 1,12,-1
 96 325 l 1,13,-1
 92 313 l 1,14,-1
 84 305 l 1,0,-1
96 85 m 1,15,-1
 64 85 l 1,16,-1
 52 89 l 1,17,-1
 36 105 l 1,18,-1
 32 117 l 1,19,-1
 36 129 l 1,20,-1
 48 133 l 1,21,-1
 80 133 l 1,22,-1
 92 129 l 1,23,-1
 108 113 l 1,24,-1
 112 101 l 1,25,-1
 108 89 l 1,26,-1
 96 85 l 1,15,-1
EndSplineSet
Validated: 1
EndChar

StartChar: semicolon
Encoding: 59 59 30
Width: 192
GlyphClass: 2
Flags: W
LayerCount: 2
Fore
SplineSet
112 352 m 1,0,-1
 104 344 l 1,1,-1
 92 340 l 1,2,-1
 60 340 l 1,3,-1
 48 344 l 1,4,-1
 44 356 l 1,5,-1
 44 372 l 1,6,-1
 48 384 l 1,7,-1
 64 400 l 1,8,-1
 76 404 l 1,9,-1
 92 404 l 1,10,-1
 104 400 l 1,11,-1
 120 384 l 1,12,-1
 124 372 l 1,13,-1
 120 360 l 1,14,-1
 112 352 l 1,0,-1
147 151 m 1,15,-1
 136 136 l 1,16,-1
 88 88 l 1,17,-1
 76 84 l 1,18,-1
 60 84 l 1,19,-1
 48 88 l 1,20,-1
 32 104 l 1,21,-1
 32 112 l 1,22,-1
 44 116 l 1,23,-1
 76 116 l 1,24,-1
 88 120 l 1,25,-1
 104 136 l 1,26,-1
 114 154 l 1,27,-1
 120 168 l 1,28,-1
 124 180 l 1,29,-1
 120 192 l 1,30,-1
 96 193 l 1,31,-1
 82 215 l 1,32,-1
 82 231 l 1,33,-1
 86 243 l 1,34,-1
 98 247 l 1,35,-1
 124 248 l 1,36,-1
 136 240 l 1,37,-1
 149 223 l 1,38,-1
 156 207 l 1,39,-1
 156 196 l 1,40,-1
 156 180 l 1,41,-1
 152 168 l 1,42,-1
 147 151 l 1,15,-1
EndSplineSet
Validated: 1
EndChar

StartChar: less
Encoding: 60 60 31
Width: 272
GlyphClass: 2
Flags: W
LayerCount: 2
Fore
SplineSet
224 224 m 1,0,-1
 212 228 l 1,1,-1
 201 233 l 1,2,-1
 180 244 l 1,3,-1
 112 272 l 1,4,-1
 99 283 l 1,5,-1
 64 304 l 1,6,-1
 48 304 l 1,7,-1
 36 308 l 1,8,-1
 32 320 l 1,9,-1
 36 332 l 1,10,-1
 60 340 l 1,11,-1
 212 492 l 1,12,-1
 224 496 l 1,13,-1
 236 492 l 1,14,-1
 236 484 l 1,15,-1
 228 476 l 1,16,-1
 220 452 l 1,17,-1
 172 404 l 1,18,-1
 100 332 l 1,19,-1
 100 324 l 1,20,-1
 116 308 l 1,21,-1
 148 292 l 1,22,-1
 180 276 l 1,23,-1
 192 272 l 1,24,-1
 208 272 l 1,25,-1
 220 268 l 1,26,-1
 236 252 l 1,27,-1
 240 240 l 1,28,-1
 236 228 l 1,29,-1
 224 224 l 1,0,-1
EndSplineSet
Validated: 1
EndChar

StartChar: equal
Encoding: 61 61 32
Width: 336
GlyphClass: 2
Flags: W
LayerCount: 2
Fore
SplineSet
268 368 m 1,0,-1
 206 367 l 1,1,-1
 194 363 l 1,2,-1
 168 356 l 1,3,-1
 152 354 l 1,4,-1
 76 352 l 1,5,-1
 64 348 l 1,6,-1
 56 340 l 1,7,-1
 44 336 l 1,8,-1
 32 340 l 1,9,-1
 32 348 l 1,10,-1
 48 364 l 1,11,-1
 72 372 l 1,12,-1
 80 380 l 1,13,-1
 92 384 l 1,14,-1
 156 384 l 1,15,-1
 252 400 l 1,16,-1
 268 400 l 1,17,-1
 280 396 l 1,18,-1
 284 384 l 1,19,-1
 280 372 l 1,20,-1
 268 368 l 1,0,-1
288 268 m 1,21,-1
 280 260 l 1,22,-1
 268 256 l 1,23,-1
 44 256 l 1,24,-1
 32 260 l 1,25,-1
 32 268 l 1,26,-1
 48 284 l 1,27,-1
 60 288 l 1,28,-1
 188 288 l 1,29,-1
 200 292 l 1,30,-1
 224 292 l 1,31,-1
 236 288 l 1,32,-1
 284 288 l 1,33,-1
 296 284 l 1,34,-1
 296 276 l 1,35,-1
 288 268 l 1,21,-1
EndSplineSet
Validated: 1
EndChar

StartChar: greater
Encoding: 62 62 33
Width: 304
GlyphClass: 2
Flags: W
LayerCount: 2
Fore
SplineSet
252 336 m 1,0,-1
 240 332 l 1,1,-1
 136 228 l 1,2,-1
 104 196 l 1,3,-1
 88 180 l 1,4,-1
 76 176 l 1,5,-1
 60 176 l 1,6,-1
 48 180 l 1,7,-1
 44 192 l 1,8,-1
 48 204 l 1,9,-1
 179 324 l 1,10,-1
 201 352 l 1,11,-1
 198 366 l 1,12,-1
 184 380 l 1,13,-1
 96 436 l 1,14,-1
 32 500 l 1,15,-1
 32 508 l 1,16,-1
 44 512 l 1,17,-1
 56 508 l 1,18,-1
 88 492 l 1,19,-1
 154 437 l 1,20,-1
 195 410 l 1,21,-1
 224 388 l 1,22,-1
 248 380 l 1,23,-1
 264 364 l 1,24,-1
 268 352 l 1,25,-1
 264 340 l 1,26,-1
 252 336 l 1,0,-1
EndSplineSet
Validated: 1
EndChar

StartChar: question
Encoding: 63 63 34
Width: 320
GlyphClass: 2
Flags: W
LayerCount: 2
Fore
SplineSet
175 44 m 1,0,-1
 179 57 l 1,1,-1
 187 67 l 1,2,-1
 200 71 l 1,3,-1
 218 70 l 1,4,-1
 232 66 l 1,5,-1
 236 52 l 1,6,-1
 236 16 l 1,7,-1
 232 3 l 1,8,-1
 218 -2 l 1,9,-1
 200 -1 l 1,10,-1
 187 4 l 1,11,-1
 169 22 l 1,12,-1
 169 31 l 1,13,-1
 175 44 l 1,0,-1
37 477 m 1,14,-1
 43 486 l 1,15,-1
 48 500 l 1,16,-1
 54 510 l 1,17,-1
 62 522 l 1,18,-1
 69 535 l 1,19,-1
 78 544 l 1,20,-1
 91 554 l 1,21,-1
 121 572 l 1,22,-1
 134 575 l 1,23,-1
 206 575 l 1,24,-1
 220 570 l 1,25,-1
 233 568 l 1,26,-1
 246 563 l 1,27,-1
 260 556 l 1,28,-1
 274 549 l 1,29,-1
 310 515 l 1,30,-1
 314 501 l 1,31,-1
 309 488 l 1,32,-1
 305 476 l 1,33,-1
 300 465 l 1,34,-1
 291 453 l 1,35,-1
 256 421 l 1,36,-1
 240 412 l 1,37,-1
 200 400 l 1,38,-1
 186 395 l 1,39,-1
 173 391 l 1,40,-1
 168 377 l 1,41,-1
 173 294 l 1,42,-1
 177 276 l 1,43,-1
 181 265 l 1,44,-1
 185 251 l 1,45,-1
 187 216 l 1,46,-1
 189 202 l 1,47,-1
 189 175 l 1,48,-1
 184 161 l 1,49,-1
 179 148 l 1,50,-1
 170 148 l 1,51,-1
 153 166 l 1,52,-1
 148 179 l 1,53,-1
 133 284 l 1,54,-1
 131 305 l 1,55,-1
 132 413 l 1,56,-1
 138 427 l 1,57,-1
 151 431 l 1,58,-1
 187 431 l 1,59,-1
 201 436 l 1,60,-1
 224 446 l 1,61,-1
 237 453 l 1,62,-1
 252 472 l 1,63,-1
 259 484 l 1,64,-1
 264 498 l 1,65,-1
 267 510 l 1,66,-1
 267 519 l 1,67,-1
 260 529 l 1,68,-1
 242 538 l 1,69,-1
 211 544 l 1,70,-1
 193 544 l 1,71,-1
 166 544 l 1,72,-1
 151 543 l 1,73,-1
 134 539 l 1,74,-1
 123 535 l 1,75,-1
 86 499 l 1,76,-1
 79 486 l 1,77,-1
 75 473 l 1,78,-1
 71 462 l 1,79,-1
 65 449 l 1,80,-1
 58 438 l 1,81,-1
 47 431 l 1,82,-1
 34 437 l 1,83,-1
 29 450 l 1,84,-1
 30 465 l 1,85,-1
 37 477 l 1,14,-1
EndSplineSet
Validated: 1
EndChar

StartChar: at
Encoding: 64 64 35
Width: 432
GlyphClass: 2
Flags: W
LayerCount: 2
Fore
SplineSet
216 315 m 1,0,-1
 212 327 l 1,1,-1
 192 330 l 1,2,-1
 137 283 l 1,3,-1
 135 257 l 1,4,-1
 141 252 l 1,5,-1
 152 249 l 1,6,-1
 209 284 l 1,7,-1
 216 315 l 1,0,-1
388 156 m 1,8,-1
 380 132 l 1,9,-1
 332 84 l 1,10,-1
 320 80 l 1,11,-1
 268 52 l 1,12,-1
 256 48 l 1,13,-1
 204 36 l 1,14,-1
 192 32 l 1,15,-1
 160 32 l 1,16,-1
 148 36 l 1,17,-1
 116 52 l 1,18,-1
 68 100 l 1,19,-1
 52 132 l 1,20,-1
 48 144 l 1,21,-1
 32 208 l 1,22,-1
 32 320 l 1,23,-1
 36 332 l 1,24,-1
 38 342 l 1,25,-1
 42 354 l 1,26,-1
 48 368 l 1,27,-1
 52 380 l 1,28,-1
 116 444 l 1,29,-1
 148 460 l 1,30,-1
 192 480 l 1,31,-1
 272 480 l 1,32,-1
 284 476 l 1,33,-1
 332 428 l 1,34,-1
 336 416 l 1,35,-1
 336 288 l 1,36,-1
 332 276 l 1,37,-1
 316 244 l 1,38,-1
 284 212 l 1,39,-1
 272 208 l 1,40,-1
 248 216 l 1,41,-1
 220 252 l 1,42,-1
 212 252 l 1,43,-1
 204 244 l 1,44,-1
 184 226 l 1,45,-1
 176 218 l 1,46,-1
 153 209 l 1,47,-1
 140 207 l 1,48,-1
 128 203 l 1,49,-1
 112 208 l 1,50,-1
 100 212 l 1,51,-1
 93 242 l 1,52,-1
 99 274 l 1,53,-1
 104 289 l 1,54,-1
 115 306 l 1,55,-1
 160 345 l 1,56,-1
 184 353 l 1,57,-1
 220 356 l 1,58,-1
 224 368 l 1,59,-1
 224 384 l 1,60,-1
 235 390 l 1,61,-1
 243 390 l 1,62,-1
 252 380 l 1,63,-1
 256 368 l 1,64,-1
 256 272 l 1,65,-1
 260 260 l 1,66,-1
 272 256 l 1,67,-1
 284 260 l 1,68,-1
 300 292 l 1,69,-1
 304 304 l 1,70,-1
 304 400 l 1,71,-1
 300 412 l 1,72,-1
 268 444 l 1,73,-1
 256 448 l 1,74,-1
 208 448 l 1,75,-1
 196 444 l 1,76,-1
 160 432 l 1,77,-1
 148 428 l 1,78,-1
 84 364 l 1,79,-1
 80 352 l 1,80,-1
 74 338 l 1,81,-1
 70 326 l 1,82,-1
 68 316 l 1,83,-1
 64 304 l 1,84,-1
 64 208 l 1,85,-1
 68 196 l 1,86,-1
 73 183 l 1,87,-1
 77 173 l 1,88,-1
 80 160 l 1,89,-1
 84 148 l 1,90,-1
 92 140 l 1,91,-1
 130 83 l 1,92,-1
 149 73 l 1,93,-1
 221 72 l 1,94,-1
 272 89 l 1,95,-1
 284 93 l 1,96,-1
 312 112 l 1,97,-1
 367 183 l 1,98,-1
 388 204 l 1,99,-1
 396 204 l 1,100,-1
 400 192 l 1,101,-1
 400 176 l 1,102,-1
 396 164 l 1,103,-1
 388 156 l 1,8,-1
EndSplineSet
Validated: 1
EndChar

StartChar: A
Encoding: 65 65 36
Width: 343
GlyphClass: 2
Flags: W
LayerCount: 2
Fore
SplineSet
241 207 m 1,0,-1
 239 212 l 1,1,-1
 234 237 l 1,2,-1
 204 432 l 1,3,-1
 200 444 l 1,4,-1
 188 448 l 1,5,-1
 176 444 l 1,6,-1
 172 432 l 1,7,-1
 138 300 l 1,8,-1
 125 234 l 1,9,-1
 122 210 l 1,10,-1
 124 201 l 1,11,-1
 225 191 l 1,12,-1
 237 195 l 1,13,-1
 241 207 l 1,0,-1
304 36 m 1,14,-1
 296 28 l 1,15,-1
 288 28 l 1,16,-1
 272 35 l 1,17,-1
 268 56 l 1,18,-1
 268 72 l 1,19,-1
 264 84 l 1,20,-1
 248 158 l 1,21,-1
 236 162 l 1,22,-1
 156 162 l 1,23,-1
 116 165 l 1,24,-1
 92 56 l 1,25,-1
 88 44 l 1,26,-1
 72 28 l 1,27,-1
 57 32 l 1,28,-1
 53 44 l 1,29,-1
 71 153 l 1,30,-1
 67 165 l 1,31,-1
 32 172 l 1,32,-1
 34 202 l 1,33,-1
 46 206 l 1,34,-1
 62 206 l 1,35,-1
 74 210 l 1,36,-1
 83 221 l 1,37,-1
 94 260 l 1,38,-1
 108 324 l 1,39,-1
 112 336 l 1,40,-1
 156 496 l 1,41,-1
 159 509 l 1,42,-1
 169 534 l 1,43,-1
 173 546 l 1,44,-1
 189 562 l 1,45,-1
 197 562 l 1,46,-1
 207 551 l 1,47,-1
 213 530 l 1,48,-1
 217 518 l 1,49,-1
 232 460 l 1,50,-1
 236 448 l 1,51,-1
 268 312 l 1,52,-1
 278 268 l 1,53,-1
 291 199 l 1,54,-1
 312 190 l 1,55,-1
 316 178 l 1,56,-1
 312 166 l 1,57,-1
 299 160 l 1,58,-1
 299 152 l 1,59,-1
 311 67 l 1,60,-1
 311 51 l 1,61,-1
 312 44 l 1,62,-1
 304 36 l 1,14,-1
EndSplineSet
Validated: 1
EndChar

StartChar: B
Encoding: 66 66 37
Width: 352
GlyphClass: 2
Flags: W
LayerCount: 2
Fore
SplineSet
192 480 m 1,0,-1
 192 496 l 1,1,-1
 188 508 l 1,2,-1
 180 516 l 1,3,-1
 165 531 l 1,4,-1
 152 535 l 1,5,-1
 140 539 l 1,6,-1
 124 539 l 1,7,-1
 112 535 l 1,8,-1
 108 523 l 1,9,-1
 107 454 l 1,10,-1
 105 425 l 1,11,-1
 116 420 l 1,12,-1
 124 420 l 1,13,-1
 147 425 l 1,14,-1
 167 437 l 1,15,-1
 188 468 l 1,16,-1
 192 480 l 1,0,-1
276 286 m 1,17,-1
 268 310 l 1,18,-1
 252 326 l 1,19,-1
 240 336 l 1,20,-1
 228 340 l 1,21,-1
 196 352 l 1,22,-1
 184 356 l 1,23,-1
 130 367 l 1,24,-1
 116 364 l 1,25,-1
 112 352 l 1,26,-1
 119 253 l 1,27,-1
 120 230 l 1,28,-1
 122 211 l 1,29,-1
 125 190 l 1,30,-1
 129 147 l 1,31,-1
 133 135 l 1,32,-1
 141 135 l 1,33,-1
 157 137 l 1,34,-1
 181 143 l 1,35,-1
 203 156 l 1,36,-1
 234 183 l 1,37,-1
 268 233 l 1,38,-1
 276 262 l 1,39,-1
 276 286 l 1,17,-1
300 212 m 1,40,-1
 284 180 l 1,41,-1
 246 142 l 1,42,-1
 188 100 l 1,43,-1
 156 84 l 1,44,-1
 144 80 l 1,45,-1
 112 80 l 1,46,-1
 100 84 l 1,47,-1
 96 96 l 1,48,-1
 80 288 l 1,49,-1
 73 352 l 1,50,-1
 69 364 l 1,51,-1
 48 368 l 1,52,-1
 36 372 l 1,53,-1
 32 384 l 1,54,-1
 36 396 l 1,55,-1
 48 400 l 1,56,-1
 64 400 l 1,57,-1
 70 404 l 1,58,-1
 74 416 l 1,59,-1
 74 512 l 1,60,-1
 70 524 l 1,61,-1
 60 540 l 1,62,-1
 36 548 l 1,63,-1
 32 560 l 1,64,-1
 36 572 l 1,65,-1
 48 576 l 1,66,-1
 144 576 l 1,67,-1
 156 572 l 1,68,-1
 188 556 l 1,69,-1
 204 540 l 1,70,-1
 220 508 l 1,71,-1
 224 496 l 1,72,-1
 219 456 l 1,73,-1
 204 436 l 1,74,-1
 191 422 l 1,75,-1
 164 404 l 1,76,-1
 224 384 l 1,77,-1
 236 380 l 1,78,-1
 268 364 l 1,79,-1
 280 358 l 1,80,-1
 295 345 l 1,81,-1
 308 324 l 1,82,-1
 317 309 l 1,83,-1
 321 290 l 1,84,-1
 320 256 l 1,85,-1
 316 244 l 1,86,-1
 300 212 l 1,40,-1
EndSplineSet
Validated: 1
EndChar

StartChar: C
Encoding: 67 67 38
Width: 320
GlyphClass: 2
Flags: W
LayerCount: 2
Fore
SplineSet
276 28 m 1,0,-1
 268 20 l 1,1,-1
 256 16 l 1,2,-1
 209 17 l 1,3,-1
 196 20 l 1,4,-1
 176 26 l 1,5,-1
 155 34 l 1,6,-1
 129 43 l 1,7,-1
 83 78 l 1,8,-1
 56 113 l 1,9,-1
 44 147 l 1,10,-1
 38 173 l 1,11,-1
 35 196 l 1,12,-1
 33 211 l 1,13,-1
 26 263 l 1,14,-1
 30 321 l 1,15,-1
 31 337 l 1,16,-1
 40 375 l 1,17,-1
 53 411 l 1,18,-1
 70 440 l 1,19,-1
 115 491 l 1,20,-1
 144 514 l 1,21,-1
 163 523 l 1,22,-1
 188 529 l 1,23,-1
 204 530 l 1,24,-1
 224 528 l 1,25,-1
 236 524 l 1,26,-1
 236 516 l 1,27,-1
 220 500 l 1,28,-1
 208 496 l 1,29,-1
 196 493 l 1,30,-1
 184 489 l 1,31,-1
 172 484 l 1,32,-1
 128 440 l 1,33,-1
 107 410 l 1,34,-1
 93 377 l 1,35,-1
 89 365 l 1,36,-1
 79 312 l 1,37,-1
 81 292 l 1,38,-1
 94 165 l 1,39,-1
 111 128 l 1,40,-1
 122 113 l 1,41,-1
 146 97 l 1,42,-1
 172 85 l 1,43,-1
 187 81 l 1,44,-1
 215 75 l 1,45,-1
 239 72 l 1,46,-1
 256 64 l 1,47,-1
 268 60 l 1,48,-1
 284 44 l 1,49,-1
 284 36 l 1,50,-1
 276 28 l 1,0,-1
EndSplineSet
Validated: 1
EndChar

StartChar: D
Encoding: 68 68 39
Width: 352
GlyphClass: 2
Flags: W
LayerCount: 2
Fore
SplineSet
280 385 m 1,0,-1
 277 446 l 1,1,-1
 273 458 l 1,2,-1
 257 476 l 1,3,-1
 230 493 l 1,4,-1
 199 501 l 1,5,-1
 174 500 l 1,6,-1
 139 498 l 1,7,-1
 126 497 l 1,8,-1
 95 491 l 1,9,-1
 89 487 l 1,10,-1
 84 482 l 1,11,-1
 90 154 l 1,12,-1
 91 137 l 1,13,-1
 92 112 l 1,14,-1
 96 100 l 1,15,-1
 117 98 l 1,16,-1
 153 115 l 1,17,-1
 165 124 l 1,18,-1
 196 159 l 1,19,-1
 221 199 l 1,20,-1
 243 246 l 1,21,-1
 265 302 l 1,22,-1
 273 333 l 1,23,-1
 280 385 l 1,0,-1
312 324 m 1,24,-1
 299 272 l 1,25,-1
 289 243 l 1,26,-1
 278 213 l 1,27,-1
 260 173 l 1,28,-1
 236 133 l 1,29,-1
 200 98 l 1,30,-1
 137 56 l 1,31,-1
 108 48 l 1,32,-1
 92 48 l 1,33,-1
 67 50 l 1,34,-1
 57 59 l 1,35,-1
 48 114 l 1,36,-1
 48 306 l 1,37,-1
 48 354 l 1,38,-1
 48 482 l 1,39,-1
 48 500 l 1,40,-1
 40 524 l 1,41,-1
 32 532 l 1,42,-1
 32 540 l 1,43,-1
 40 550 l 1,44,-1
 48 550 l 1,45,-1
 64 548 l 1,46,-1
 76 544 l 1,47,-1
 161 550 l 1,48,-1
 174 548 l 1,49,-1
 182 546 l 1,50,-1
 201 544 l 1,51,-1
 217 538 l 1,52,-1
 229 534 l 1,53,-1
 248 527 l 1,54,-1
 267 516 l 1,55,-1
 277 511 l 1,56,-1
 299 493 l 1,57,-1
 312 476 l 1,58,-1
 320 454 l 1,59,-1
 322 405 l 1,60,-1
 317 366 l 1,61,-1
 312 324 l 1,24,-1
EndSplineSet
Validated: 1
EndChar

StartChar: E
Encoding: 69 69 40
Width: 337
GlyphClass: 2
Flags: W
LayerCount: 2
Fore
SplineSet
295 67 m 1,0,-1
 268 50 l 1,1,-1
 244 50 l 1,2,-1
 220 50 l 1,3,-1
 196 50 l 1,4,-1
 159 47 l 1,5,-1
 144 46 l 1,6,-1
 112 47 l 1,7,-1
 79 46 l 1,8,-1
 67 55 l 1,9,-1
 67 63 l 1,10,-1
 67 83 l 1,11,-1
 71 95 l 1,12,-1
 71 273 l 1,13,-1
 67 285 l 1,14,-1
 59 299 l 1,15,-1
 47 303 l 1,16,-1
 31 303 l 1,17,-1
 19 307 l 1,18,-1
 15 319 l 1,19,-1
 19 331 l 1,20,-1
 31 335 l 1,21,-1
 51 334 l 1,22,-1
 63 338 l 1,23,-1
 67 350 l 1,24,-1
 67 500 l 1,25,-1
 63 512 l 1,26,-1
 55 520 l 1,27,-1
 51 538 l 1,28,-1
 55 550 l 1,29,-1
 63 558 l 1,30,-1
 116 554 l 1,31,-1
 148 562 l 1,32,-1
 160 566 l 1,33,-1
 224 566 l 1,34,-1
 236 562 l 1,35,-1
 240 550 l 1,36,-1
 236 538 l 1,37,-1
 224 534 l 1,38,-1
 208 534 l 1,39,-1
 196 530 l 1,40,-1
 154 522 l 1,41,-1
 131 519 l 1,42,-1
 119 515 l 1,43,-1
 114 506 l 1,44,-1
 110 494 l 1,45,-1
 112 368 l 1,46,-1
 116 356 l 1,47,-1
 132 340 l 1,48,-1
 140 340 l 1,49,-1
 164 340 l 1,50,-1
 214 338 l 1,51,-1
 236 340 l 1,52,-1
 268 332 l 1,53,-1
 272 320 l 1,54,-1
 268 308 l 1,55,-1
 256 304 l 1,56,-1
 228 300 l 1,57,-1
 212 300 l 1,58,-1
 161 301 l 1,59,-1
 138 300 l 1,60,-1
 126 296 l 1,61,-1
 121 287 l 1,62,-1
 123 220 l 1,63,-1
 128 192 l 1,64,-1
 128 110 l 1,65,-1
 132 98 l 1,66,-1
 145 86 l 1,67,-1
 253 92 l 1,68,-1
 272 93 l 1,69,-1
 292 106 l 1,70,-1
 300 106 l 1,71,-1
 304 94 l 1,72,-1
 300 82 l 1,73,-1
 295 67 l 1,0,-1
EndSplineSet
Validated: 1
EndChar

StartChar: F
Encoding: 70 70 41
Width: 288
GlyphClass: 2
Flags: W
LayerCount: 2
Fore
SplineSet
240 336 m 1,0,-1
 228 340 l 1,1,-1
 219 341 l 1,2,-1
 207 345 l 1,3,-1
 191 345 l 1,4,-1
 179 341 l 1,5,-1
 172 340 l 1,6,-1
 160 336 l 1,7,-1
 96 336 l 1,8,-1
 84 332 l 1,9,-1
 80 320 l 1,10,-1
 80 128 l 1,11,-1
 84 116 l 1,12,-1
 92 108 l 1,13,-1
 96 96 l 1,14,-1
 96 80 l 1,15,-1
 92 68 l 1,16,-1
 80 62 l 1,17,-1
 48 73 l 1,18,-1
 44 85 l 1,19,-1
 38 186 l 1,20,-1
 39 336 l 1,21,-1
 35 348 l 1,22,-1
 27 356 l 1,23,-1
 27 364 l 1,24,-1
 35 372 l 1,25,-1
 39 384 l 1,26,-1
 39 464 l 1,27,-1
 35 476 l 1,28,-1
 27 484 l 1,29,-1
 23 496 l 1,30,-1
 27 508 l 1,31,-1
 39 512 l 1,32,-1
 208 512 l 1,33,-1
 220 508 l 1,34,-1
 236 492 l 1,35,-1
 236 484 l 1,36,-1
 224 480 l 1,37,-1
 208 480 l 1,38,-1
 196 476 l 1,39,-1
 190 477 l 1,40,-1
 178 473 l 1,41,-1
 146 473 l 1,42,-1
 134 477 l 1,43,-1
 112 480 l 1,44,-1
 96 480 l 1,45,-1
 84 476 l 1,46,-1
 80 464 l 1,47,-1
 80 384 l 1,48,-1
 84 372 l 1,49,-1
 96 368 l 1,50,-1
 240 368 l 1,51,-1
 252 364 l 1,52,-1
 256 352 l 1,53,-1
 252 340 l 1,54,-1
 240 336 l 1,0,-1
EndSplineSet
Validated: 1
EndChar

StartChar: G
Encoding: 71 71 42
Width: 336
GlyphClass: 2
Flags: W
LayerCount: 2
Fore
SplineSet
290 71 m 1,0,-1
 292 28 l 1,1,-1
 289 17 l 1,2,-1
 279 5 l 1,3,-1
 234 3 l 1,4,-1
 220 3 l 1,5,-1
 208 7 l 1,6,-1
 191 10 l 1,7,-1
 180 13 l 1,8,-1
 158 18 l 1,9,-1
 147 22 l 1,10,-1
 116 38 l 1,11,-1
 71 83 l 1,12,-1
 59 101 l 1,13,-1
 51 112 l 1,14,-1
 42 127 l 1,15,-1
 34 156 l 1,16,-1
 31 185 l 1,17,-1
 26 322 l 1,18,-1
 30 347 l 1,19,-1
 39 383 l 1,20,-1
 44 394 l 1,21,-1
 51 411 l 1,22,-1
 73 444 l 1,23,-1
 88 464 l 1,24,-1
 101 482 l 1,25,-1
 121 501 l 1,26,-1
 159 527 l 1,27,-1
 176 538 l 1,28,-1
 188 543 l 1,29,-1
 200 547 l 1,30,-1
 236 556 l 1,31,-1
 248 557 l 1,32,-1
 276 562 l 1,33,-1
 287 558 l 1,34,-1
 298 535 l 1,35,-1
 291 526 l 1,36,-1
 279 523 l 1,37,-1
 264 523 l 1,38,-1
 242 520 l 1,39,-1
 230 516 l 1,40,-1
 216 513 l 1,41,-1
 204 508 l 1,42,-1
 178 492 l 1,43,-1
 150 472 l 1,44,-1
 126 453 l 1,45,-1
 118 441 l 1,46,-1
 104 418 l 1,47,-1
 92 393 l 1,48,-1
 87 380 l 1,49,-1
 82 368 l 1,50,-1
 78 356 l 1,51,-1
 71 333 l 1,52,-1
 69 315 l 1,53,-1
 69 212 l 1,54,-1
 71 190 l 1,55,-1
 75 171 l 1,56,-1
 78 159 l 1,57,-1
 88 139 l 1,58,-1
 128 90 l 1,59,-1
 163 68 l 1,60,-1
 173 64 l 1,61,-1
 199 57 l 1,62,-1
 223 52 l 1,63,-1
 234 49 l 1,64,-1
 246 52 l 1,65,-1
 249 64 l 1,66,-1
 253 90 l 1,67,-1
 252 114 l 1,68,-1
 256 163 l 1,69,-1
 258 202 l 1,70,-1
 253 214 l 1,71,-1
 245 214 l 1,72,-1
 176 212 l 1,73,-1
 166 208 l 1,74,-1
 154 204 l 1,75,-1
 144 201 l 1,76,-1
 97 201 l 1,77,-1
 87 204 l 1,78,-1
 82 216 l 1,79,-1
 87 228 l 1,80,-1
 101 242 l 1,81,-1
 113 247 l 1,82,-1
 265 247 l 1,83,-1
 277 242 l 1,84,-1
 291 228 l 1,85,-1
 296 216 l 1,86,-1
 296 201 l 1,87,-1
 291 190 l 1,88,-1
 291 106 l 1,89,-1
 291 98 l 1,90,-1
 290 71 l 1,0,-1
EndSplineSet
Validated: 1
EndChar

StartChar: H
Encoding: 72 72 43
Width: 400
GlyphClass: 2
Flags: W
LayerCount: 2
Fore
SplineSet
359 88 m 1,0,-1
 351 80 l 1,1,-1
 343 80 l 1,2,-1
 327 96 l 1,3,-1
 323 108 l 1,4,-1
 317 195 l 1,5,-1
 313 207 l 1,6,-1
 301 211 l 1,7,-1
 182 205 l 1,8,-1
 170 201 l 1,9,-1
 153 199 l 1,10,-1
 141 195 l 1,11,-1
 125 195 l 1,12,-1
 113 191 l 1,13,-1
 97 175 l 1,14,-1
 93 163 l 1,15,-1
 96 48 l 1,16,-1
 92 36 l 1,17,-1
 84 36 l 1,18,-1
 51 48 l 1,19,-1
 47 60 l 1,20,-1
 41 196 l 1,21,-1
 37 234 l 1,22,-1
 35 261 l 1,23,-1
 33 433 l 1,24,-1
 31 461 l 1,25,-1
 27 481 l 1,26,-1
 26 498 l 1,27,-1
 26 530 l 1,28,-1
 36 540 l 1,29,-1
 48 544 l 1,30,-1
 66 539 l 1,31,-1
 70 527 l 1,32,-1
 71 502 l 1,33,-1
 73 476 l 1,34,-1
 79 443 l 1,35,-1
 80 432 l 1,36,-1
 84 308 l 1,37,-1
 86 282 l 1,38,-1
 90 270 l 1,39,-1
 91 237 l 1,40,-1
 95 225 l 1,41,-1
 107 226 l 1,42,-1
 119 230 l 1,43,-1
 127 233 l 1,44,-1
 139 237 l 1,45,-1
 209 239 l 1,46,-1
 221 243 l 1,47,-1
 285 243 l 1,48,-1
 297 247 l 1,49,-1
 301 259 l 1,50,-1
 288 416 l 1,51,-1
 288 496 l 1,52,-1
 292 508 l 1,53,-1
 304 512 l 1,54,-1
 316 508 l 1,55,-1
 320 496 l 1,56,-1
 332 364 l 1,57,-1
 335 345 l 1,58,-1
 338 277 l 1,59,-1
 342 265 l 1,60,-1
 348 236 l 1,61,-1
 352 224 l 1,62,-1
 356 156 l 1,63,-1
 360 144 l 1,64,-1
 367 104 l 1,65,-1
 367 96 l 1,66,-1
 359 88 l 1,0,-1
EndSplineSet
Validated: 1
EndChar

StartChar: I
Encoding: 73 73 44
Width: 144
GlyphClass: 2
Flags: W
LayerCount: 2
Fore
SplineSet
96 80 m 1,0,-1
 80 80 l 1,1,-1
 68 84 l 1,2,-1
 64 96 l 1,3,-1
 58 146 l 1,4,-1
 52 180 l 1,5,-1
 48 192 l 1,6,-1
 36 337 l 1,7,-1
 37 363 l 1,8,-1
 33 382 l 1,9,-1
 32 400 l 1,10,-1
 32 528 l 1,11,-1
 36 540 l 1,12,-1
 44 540 l 1,13,-1
 60 524 l 1,14,-1
 64 512 l 1,15,-1
 76 380 l 1,16,-1
 82 253 l 1,17,-1
 89 208 l 1,18,-1
 93 196 l 1,19,-1
 96 150 l 1,20,-1
 100 138 l 1,21,-1
 108 108 l 1,22,-1
 112 96 l 1,23,-1
 108 84 l 1,24,-1
 96 80 l 1,0,-1
EndSplineSet
Validated: 1
EndChar

StartChar: J
Encoding: 74 74 45
Width: 304
GlyphClass: 2
Flags: W
LayerCount: 2
Fore
SplineSet
260 140 m 1,0,-1
 256 114 l 1,1,-1
 252 102 l 1,2,-1
 247 95 l 1,3,-1
 240 81 l 1,4,-1
 232 66 l 1,5,-1
 220 52 l 1,6,-1
 204 36 l 1,7,-1
 192 32 l 1,8,-1
 170 26 l 1,9,-1
 158 22 l 1,10,-1
 140 20 l 1,11,-1
 117 21 l 1,12,-1
 78 36 l 1,13,-1
 69 41 l 1,14,-1
 52 52 l 1,15,-1
 36 68 l 1,16,-1
 32 80 l 1,17,-1
 32 96 l 1,18,-1
 36 108 l 1,19,-1
 48 112 l 1,20,-1
 60 108 l 1,21,-1
 100 68 l 1,22,-1
 112 64 l 1,23,-1
 160 70 l 1,24,-1
 172 74 l 1,25,-1
 185 86 l 1,26,-1
 193 101 l 1,27,-1
 201 125 l 1,28,-1
 207 152 l 1,29,-1
 202 380 l 1,30,-1
 200 401 l 1,31,-1
 197 434 l 1,32,-1
 193 515 l 1,33,-1
 197 545 l 1,34,-1
 212 556 l 1,35,-1
 220 556 l 1,36,-1
 232 549 l 1,37,-1
 241 514 l 1,38,-1
 243 491 l 1,39,-1
 249 425 l 1,40,-1
 250 404 l 1,41,-1
 253 383 l 1,42,-1
 256 368 l 1,43,-1
 259 248 l 1,44,-1
 262 224 l 1,45,-1
 263 164 l 1,46,-1
 260 140 l 1,0,-1
EndSplineSet
Validated: 1
EndChar

StartChar: K
Encoding: 75 75 46
Width: 384
GlyphClass: 2
Flags: W
LayerCount: 2
Fore
SplineSet
332 240 m 1,0,-1
 320 244 l 1,1,-1
 288 276 l 1,2,-1
 256 308 l 1,3,-1
 168 396 l 1,4,-1
 156 400 l 1,5,-1
 144 396 l 1,6,-1
 88 350 l 1,7,-1
 88 316 l 1,8,-1
 89 298 l 1,9,-1
 104 188 l 1,10,-1
 104 180 l 1,11,-1
 104 156 l 1,12,-1
 108 144 l 1,13,-1
 120 76 l 1,14,-1
 124 64 l 1,15,-1
 124 48 l 1,16,-1
 120 36 l 1,17,-1
 104 20 l 1,18,-1
 96 20 l 1,19,-1
 68 29 l 1,20,-1
 64 41 l 1,21,-1
 52 125 l 1,22,-1
 49 141 l 1,23,-1
 40 267 l 1,24,-1
 36 279 l 1,25,-1
 34 313 l 1,26,-1
 26 494 l 1,27,-1
 24 506 l 1,28,-1
 22 525 l 1,29,-1
 23 538 l 1,30,-1
 39 554 l 1,31,-1
 56 556 l 1,32,-1
 60 544 l 1,33,-1
 64 531 l 1,34,-1
 68 519 l 1,35,-1
 72 508 l 1,36,-1
 75 479 l 1,37,-1
 76 416 l 1,38,-1
 80 404 l 1,39,-1
 92 400 l 1,40,-1
 104 404 l 1,41,-1
 112 412 l 1,42,-1
 135 428 l 1,43,-1
 208 492 l 1,44,-1
 226 503 l 1,45,-1
 240 508 l 1,46,-1
 304 556 l 1,47,-1
 316 560 l 1,48,-1
 332 560 l 1,49,-1
 344 556 l 1,50,-1
 344 540 l 1,51,-1
 285 498 l 1,52,-1
 256 476 l 1,53,-1
 232 463 l 1,54,-1
 208 444 l 1,55,-1
 192 428 l 1,56,-1
 188 416 l 1,57,-1
 192 404 l 1,58,-1
 258 346 l 1,59,-1
 280 332 l 1,60,-1
 344 268 l 1,61,-1
 348 256 l 1,62,-1
 344 244 l 1,63,-1
 332 240 l 1,0,-1
EndSplineSet
Validated: 1
EndChar

StartChar: L
Encoding: 76 76 47
Width: 352
GlyphClass: 2
Flags: W
LayerCount: 2
Fore
SplineSet
304 56 m 1,0,-1
 133 48 l 1,1,-1
 118 48 l 1,2,-1
 76 44 l 1,3,-1
 68 44 l 1,4,-1
 42 48 l 1,5,-1
 36 60 l 1,6,-1
 36 68 l 1,7,-1
 42 81 l 1,8,-1
 43 101 l 1,9,-1
 39 251 l 1,10,-1
 39 266 l 1,11,-1
 38 315 l 1,12,-1
 29 415 l 1,13,-1
 28 437 l 1,14,-1
 28 470 l 1,15,-1
 27 486 l 1,16,-1
 25 551 l 1,17,-1
 29 563 l 1,18,-1
 41 567 l 1,19,-1
 70 564 l 1,20,-1
 79 553 l 1,21,-1
 79 545 l 1,22,-1
 78 532 l 1,23,-1
 74 520 l 1,24,-1
 77 425 l 1,25,-1
 81 413 l 1,26,-1
 86 388 l 1,27,-1
 88 370 l 1,28,-1
 90 344 l 1,29,-1
 90 296 l 1,30,-1
 95 96 l 1,31,-1
 99 84 l 1,32,-1
 111 80 l 1,33,-1
 138 82 l 1,34,-1
 164 84 l 1,35,-1
 176 88 l 1,36,-1
 194 88 l 1,37,-1
 218 88 l 1,38,-1
 240 88 l 1,39,-1
 304 88 l 1,40,-1
 316 84 l 1,41,-1
 320 72 l 1,42,-1
 316 60 l 1,43,-1
 304 56 l 1,0,-1
EndSplineSet
Validated: 1
EndChar

StartChar: M
Encoding: 77 77 48
Width: 464
GlyphClass: 2
Flags: W
LayerCount: 2
Fore
SplineSet
416 124 m 1,0,-1
 408 116 l 1,1,-1
 400 116 l 1,2,-1
 384 132 l 1,3,-1
 380 144 l 1,4,-1
 380 400 l 1,5,-1
 376 412 l 1,6,-1
 368 412 l 1,7,-1
 287 316 l 1,8,-1
 254 274 l 1,9,-1
 232 260 l 1,10,-1
 224 260 l 1,11,-1
 208 276 l 1,12,-1
 194 298 l 1,13,-1
 160 340 l 1,14,-1
 112 404 l 1,15,-1
 72 460 l 1,16,-1
 64 460 l 1,17,-1
 64 452 l 1,18,-1
 72 444 l 1,19,-1
 76 432 l 1,20,-1
 88 188 l 1,21,-1
 91 171 l 1,22,-1
 92 48 l 1,23,-1
 88 36 l 1,24,-1
 80 36 l 1,25,-1
 58 40 l 1,26,-1
 52 59 l 1,27,-1
 49 80 l 1,28,-1
 36 195 l 1,29,-1
 35 215 l 1,30,-1
 27 420 l 1,31,-1
 26 455 l 1,32,-1
 28 468 l 1,33,-1
 25 489 l 1,34,-1
 31 500 l 1,35,-1
 48 508 l 1,36,-1
 56 508 l 1,37,-1
 71 506 l 1,38,-1
 88 492 l 1,39,-1
 104 476 l 1,40,-1
 136 428 l 1,41,-1
 184 364 l 1,42,-1
 225 316 l 1,43,-1
 233 316 l 1,44,-1
 278 362 l 1,45,-1
 355 452 l 1,46,-1
 361 461 l 1,47,-1
 365 474 l 1,48,-1
 370 489 l 1,49,-1
 384 508 l 1,50,-1
 392 508 l 1,51,-1
 408 492 l 1,52,-1
 412 480 l 1,53,-1
 415 221 l 1,54,-1
 419 209 l 1,55,-1
 424 188 l 1,56,-1
 428 176 l 1,57,-1
 428 144 l 1,58,-1
 424 132 l 1,59,-1
 416 124 l 1,0,-1
EndSplineSet
Validated: 1
EndChar

StartChar: N
Encoding: 78 78 49
Width: 385
GlyphClass: 2
Flags: W
LayerCount: 2
Fore
SplineSet
337 96 m 1,0,-1
 322 99 l 1,1,-1
 303 123 l 1,2,-1
 289 144 l 1,3,-1
 275 172 l 1,4,-1
 232 234 l 1,5,-1
 200 282 l 1,6,-1
 152 346 l 1,7,-1
 111 405 l 1,8,-1
 95 421 l 1,9,-1
 83 415 l 1,10,-1
 79 403 l 1,11,-1
 85 293 l 1,12,-1
 86 261 l 1,13,-1
 92 236 l 1,14,-1
 92 228 l 1,15,-1
 94 208 l 1,16,-1
 96 192 l 1,17,-1
 96 80 l 1,18,-1
 92 68 l 1,19,-1
 80 64 l 1,20,-1
 68 68 l 1,21,-1
 64 80 l 1,22,-1
 58 120 l 1,23,-1
 54 132 l 1,24,-1
 52 164 l 1,25,-1
 48 176 l 1,26,-1
 37 364 l 1,27,-1
 35 381 l 1,28,-1
 32 414 l 1,29,-1
 32 432 l 1,30,-1
 33 529 l 1,31,-1
 41 531 l 1,32,-1
 49 531 l 1,33,-1
 61 525 l 1,34,-1
 68 516 l 1,35,-1
 92 492 l 1,36,-1
 140 428 l 1,37,-1
 188 364 l 1,38,-1
 220 316 l 1,39,-1
 252 268 l 1,40,-1
 264 248 l 1,41,-1
 292 212 l 1,42,-1
 300 212 l 1,43,-1
 299 224 l 1,44,-1
 295 236 l 1,45,-1
 292 244 l 1,46,-1
 289 259 l 1,47,-1
 288 288 l 1,48,-1
 286 435 l 1,49,-1
 282 447 l 1,50,-1
 276 468 l 1,51,-1
 272 480 l 1,52,-1
 272 496 l 1,53,-1
 276 508 l 1,54,-1
 288 512 l 1,55,-1
 308 510 l 1,56,-1
 323 497 l 1,57,-1
 327 485 l 1,58,-1
 328 363 l 1,59,-1
 330 336 l 1,60,-1
 334 305 l 1,61,-1
 336 284 l 1,62,-1
 348 140 l 1,63,-1
 352 128 l 1,64,-1
 352 112 l 1,65,-1
 348 100 l 1,66,-1
 337 96 l 1,0,-1
EndSplineSet
Validated: 1
EndChar

StartChar: O
Encoding: 79 79 50
Width: 350
GlyphClass: 2
Flags: W
LayerCount: 2
Fore
SplineSet
268 331 m 1,0,-1
 265 379 l 1,1,-1
 250 429 l 1,2,-1
 236 452 l 1,3,-1
 191 491 l 1,4,-1
 154 496 l 1,5,-1
 116 484 l 1,6,-1
 97 477 l 1,7,-1
 71 452 l 1,8,-1
 65 432 l 1,9,-1
 53 353 l 1,10,-1
 48 332 l 1,11,-1
 45 299 l 1,12,-1
 45 260 l 1,13,-1
 41 231 l 1,14,-1
 45 210 l 1,15,-1
 48 185 l 1,16,-1
 54 165 l 1,17,-1
 71 133 l 1,18,-1
 102 113 l 1,19,-1
 123 108 l 1,20,-1
 135 108 l 1,21,-1
 186 133 l 1,22,-1
 236 185 l 1,23,-1
 243 204 l 1,24,-1
 254 270 l 1,25,-1
 261 289 l 1,26,-1
 262 312 l 1,27,-1
 268 331 l 1,0,-1
285 180 m 1,28,-1
 278 169 l 1,29,-1
 207 99 l 1,30,-1
 179 81 l 1,31,-1
 160 75 l 1,32,-1
 101 75 l 1,33,-1
 85 81 l 1,34,-1
 53 99 l 1,35,-1
 7 145 l 1,36,-1
 1 163 l 1,37,-1
 1 329 l 1,38,-1
 1 366 l 1,39,-1
 11 438 l 1,40,-1
 18 453 l 1,41,-1
 66 500 l 1,42,-1
 101 535 l 1,43,-1
 119 541 l 1,44,-1
 166 541 l 1,45,-1
 184 535 l 1,46,-1
 194 532 l 1,47,-1
 211 526 l 1,48,-1
 237 517 l 1,49,-1
 257 504 l 1,50,-1
 294 462 l 1,51,-1
 301 444 l 1,52,-1
 315 291 l 1,53,-1
 312 275 l 1,54,-1
 285 180 l 1,28,-1
EndSplineSet
Validated: 1
EndChar

StartChar: P
Encoding: 80 80 51
Width: 287
GlyphClass: 2
Flags: W
LayerCount: 2
Fore
SplineSet
208 448 m 1,0,-1
 208 480 l 1,1,-1
 204 492 l 1,2,-1
 188 508 l 1,3,-1
 171 515 l 1,4,-1
 159 520 l 1,5,-1
 147 524 l 1,6,-1
 115 524 l 1,7,-1
 103 520 l 1,8,-1
 84 508 l 1,9,-1
 80 496 l 1,10,-1
 80 448 l 1,11,-1
 85 426 l 1,12,-1
 100 420 l 1,13,-1
 112 416 l 1,14,-1
 176 416 l 1,15,-1
 188 420 l 1,16,-1
 204 436 l 1,17,-1
 208 448 l 1,0,-1
244 460 m 1,18,-1
 239 431 l 1,19,-1
 214 400 l 1,20,-1
 194 390 l 1,21,-1
 143 380 l 1,22,-1
 123 380 l 1,23,-1
 106 380 l 1,24,-1
 87 380 l 1,25,-1
 92 300 l 1,26,-1
 94 279 l 1,27,-1
 105 92 l 1,28,-1
 101 80 l 1,29,-1
 82 74 l 1,30,-1
 68 84 l 1,31,-1
 64 96 l 1,32,-1
 52 260 l 1,33,-1
 48 272 l 1,34,-1
 48 336 l 1,35,-1
 44 396 l 1,36,-1
 29 407 l 1,37,-1
 25 419 l 1,38,-1
 29 431 l 1,39,-1
 44 436 l 1,40,-1
 48 448 l 1,41,-1
 48 560 l 1,42,-1
 52 572 l 1,43,-1
 60 572 l 1,44,-1
 75 566 l 1,45,-1
 80 544 l 1,46,-1
 172 551 l 1,47,-1
 190 547 l 1,48,-1
 204 540 l 1,49,-1
 222 528 l 1,50,-1
 236 508 l 1,51,-1
 244 484 l 1,52,-1
 244 460 l 1,18,-1
EndSplineSet
Validated: 1
EndChar

StartChar: Q
Encoding: 81 81 52
Width: 432
GlyphClass: 2
Flags: W
LayerCount: 2
Fore
SplineSet
384 208 m 1,0,-1
 368 208 l 1,1,-1
 333 227 l 1,2,-1
 315 232 l 1,3,-1
 308 220 l 1,4,-1
 300 196 l 1,5,-1
 299 184 l 1,6,-1
 295 172 l 1,7,-1
 284 148 l 1,8,-1
 268 116 l 1,9,-1
 236 84 l 1,10,-1
 228 84 l 1,11,-1
 224 96 l 1,12,-1
 228 108 l 1,13,-1
 247 170 l 1,14,-1
 261 213 l 1,15,-1
 263 224 l 1,16,-1
 266 238 l 1,17,-1
 270 250 l 1,18,-1
 222 273 l 1,19,-1
 179 292 l 1,20,-1
 164 308 l 1,21,-1
 164 316 l 1,22,-1
 176 327 l 1,23,-1
 194 327 l 1,24,-1
 206 323 l 1,25,-1
 214 315 l 1,26,-1
 226 311 l 1,27,-1
 281 290 l 1,28,-1
 287 308 l 1,29,-1
 289 333 l 1,30,-1
 291 424 l 1,31,-1
 288 448 l 1,32,-1
 283 480 l 1,33,-1
 264 519 l 1,34,-1
 249 534 l 1,35,-1
 218 550 l 1,36,-1
 194 556 l 1,37,-1
 175 550 l 1,38,-1
 158 538 l 1,39,-1
 102 468 l 1,40,-1
 92 452 l 1,41,-1
 80 416 l 1,42,-1
 76 404 l 1,43,-1
 61 336 l 1,44,-1
 61 324 l 1,45,-1
 64 257 l 1,46,-1
 68 234 l 1,47,-1
 88 160 l 1,48,-1
 96 144 l 1,49,-1
 124 108 l 1,50,-1
 148 84 l 1,51,-1
 172 76 l 1,52,-1
 196 76 l 1,53,-1
 208 80 l 1,54,-1
 220 76 l 1,55,-1
 220 68 l 1,56,-1
 204 52 l 1,57,-1
 192 48 l 1,58,-1
 144 48 l 1,59,-1
 132 52 l 1,60,-1
 84 100 l 1,61,-1
 46 148 l 1,62,-1
 42 160 l 1,63,-1
 29 206 l 1,64,-1
 22 352 l 1,65,-1
 23 375 l 1,66,-1
 38 429 l 1,67,-1
 57 470 l 1,68,-1
 84 508 l 1,69,-1
 147 576 l 1,70,-1
 156 588 l 1,71,-1
 132 596 l 1,72,-1
 128 608 l 1,73,-1
 132 620 l 1,74,-1
 144 624 l 1,75,-1
 176 624 l 1,76,-1
 188 620 l 1,77,-1
 196 612 l 1,78,-1
 208 608 l 1,79,-1
 244 588 l 1,80,-1
 276 556 l 1,81,-1
 300 524 l 1,82,-1
 312 503 l 1,83,-1
 320 480 l 1,84,-1
 332 364 l 1,85,-1
 333 344 l 1,86,-1
 331 312 l 1,87,-1
 328 285 l 1,88,-1
 326 269 l 1,89,-1
 350 261 l 1,90,-1
 375 247 l 1,91,-1
 396 220 l 1,92,-1
 396 212 l 1,93,-1
 384 208 l 1,0,-1
EndSplineSet
Validated: 1
EndChar

StartChar: R
Encoding: 82 82 53
Width: 406
GlyphClass: 2
Flags: W
LayerCount: 2
Fore
SplineSet
215 534 m 1,0,-1
 208 546 l 1,1,-1
 187 556 l 1,2,-1
 155 560 l 1,3,-1
 125 554 l 1,4,-1
 113 550 l 1,5,-1
 103 544 l 1,6,-1
 116 461 l 1,7,-1
 128 457 l 1,8,-1
 146 460 l 1,9,-1
 180 470 l 1,10,-1
 201 484 l 1,11,-1
 216 516 l 1,12,-1
 215 534 l 1,0,-1
369 151 m 1,13,-1
 357 155 l 1,14,-1
 312 204 l 1,15,-1
 280 236 l 1,16,-1
 201 336 l 1,17,-1
 182 360 l 1,18,-1
 165 377 l 1,19,-1
 146 400 l 1,20,-1
 131 394 l 1,21,-1
 140 224 l 1,22,-1
 150 69 l 1,23,-1
 150 61 l 1,24,-1
 138 57 l 1,25,-1
 101 67 l 1,26,-1
 97 79 l 1,27,-1
 99 123 l 1,28,-1
 97 138 l 1,29,-1
 92 185 l 1,30,-1
 90 330 l 1,31,-1
 86 356 l 1,32,-1
 82 404 l 1,33,-1
 66 410 l 1,34,-1
 56 434 l 1,35,-1
 60 444 l 1,36,-1
 82 453 l 1,37,-1
 80 474 l 1,38,-1
 78 493 l 1,39,-1
 73 530 l 1,40,-1
 58 524 l 1,41,-1
 46 520 l 1,42,-1
 34 524 l 1,43,-1
 31 548 l 1,44,-1
 48 556 l 1,45,-1
 68 566 l 1,46,-1
 64 590 l 1,47,-1
 64 604 l 1,48,-1
 76 608 l 1,49,-1
 88 604 l 1,50,-1
 96 580 l 1,51,-1
 109 581 l 1,52,-1
 129 586 l 1,53,-1
 141 590 l 1,54,-1
 167 589 l 1,55,-1
 180 590 l 1,56,-1
 203 587 l 1,57,-1
 216 579 l 1,58,-1
 243 553 l 1,59,-1
 247 541 l 1,60,-1
 252 517 l 1,61,-1
 249 493 l 1,62,-1
 245 479 l 1,63,-1
 238 463 l 1,64,-1
 198 428 l 1,65,-1
 178 419 l 1,66,-1
 194 400 l 1,67,-1
 350 227 l 1,68,-1
 377 193 l 1,69,-1
 388 176 l 1,70,-1
 390 163 l 1,71,-1
 376 151 l 1,72,-1
 369 151 l 1,13,-1
EndSplineSet
Validated: 1
EndChar

StartChar: S
Encoding: 83 83 54
Width: 272
GlyphClass: 2
Flags: W
LayerCount: 2
Fore
SplineSet
231 102 m 1,0,-1
 220 84 l 1,1,-1
 204 68 l 1,2,-1
 186 56 l 1,3,-1
 172 52 l 1,4,-1
 164 52 l 1,5,-1
 144 52 l 1,6,-1
 132 56 l 1,7,-1
 112 64 l 1,8,-1
 100 68 l 1,9,-1
 68 100 l 1,10,-1
 57 119 l 1,11,-1
 52 132 l 1,12,-1
 48 144 l 1,13,-1
 52 156 l 1,14,-1
 68 172 l 1,15,-1
 76 172 l 1,16,-1
 92 156 l 1,17,-1
 96 144 l 1,18,-1
 100 133 l 1,19,-1
 109 117 l 1,20,-1
 136 89 l 1,21,-1
 148 85 l 1,22,-1
 164 85 l 1,23,-1
 176 89 l 1,24,-1
 190 108 l 1,25,-1
 194 120 l 1,26,-1
 196 140 l 1,27,-1
 196 164 l 1,28,-1
 192 192 l 1,29,-1
 188 204 l 1,30,-1
 177 220 l 1,31,-1
 165 238 l 1,32,-1
 132 283 l 1,33,-1
 84 340 l 1,34,-1
 69 357 l 1,35,-1
 60 370 l 1,36,-1
 49 390 l 1,37,-1
 36 420 l 1,38,-1
 32 432 l 1,39,-1
 32 448 l 1,40,-1
 34 469 l 1,41,-1
 39 481 l 1,42,-1
 50 496 l 1,43,-1
 84 524 l 1,44,-1
 101 534 l 1,45,-1
 116 540 l 1,46,-1
 128 544 l 1,47,-1
 176 544 l 1,48,-1
 188 540 l 1,49,-1
 204 524 l 1,50,-1
 204 516 l 1,51,-1
 189 503 l 1,52,-1
 177 507 l 1,53,-1
 148 509 l 1,54,-1
 129 505 l 1,55,-1
 105 498 l 1,56,-1
 86 477 l 1,57,-1
 76 462 l 1,58,-1
 73 439 l 1,59,-1
 77 427 l 1,60,-1
 84 404 l 1,61,-1
 94 385 l 1,62,-1
 124 348 l 1,63,-1
 204 252 l 1,64,-1
 215 234 l 1,65,-1
 225 219 l 1,66,-1
 229 207 l 1,67,-1
 235 191 l 1,68,-1
 239 179 l 1,69,-1
 242 165 l 1,70,-1
 245 150 l 1,71,-1
 240 128 l 1,72,-1
 236 116 l 1,73,-1
 231 102 l 1,0,-1
EndSplineSet
Validated: 1
EndChar

StartChar: T
Encoding: 84 84 55
Width: 453
GlyphClass: 2
Flags: W
LayerCount: 2
Fore
SplineSet
424 551 m 1,0,-1
 280 551 l 1,1,-1
 268 547 l 1,2,-1
 264 535 l 1,3,-1
 263 480 l 1,4,-1
 263 400 l 1,5,-1
 271 174 l 1,6,-1
 277 112 l 1,7,-1
 279 96 l 1,8,-1
 279 64 l 1,9,-1
 275 52 l 1,10,-1
 259 36 l 1,11,-1
 251 36 l 1,12,-1
 229 53 l 1,13,-1
 224 97 l 1,14,-1
 224 112 l 1,15,-1
 216 301 l 1,16,-1
 216 313 l 1,17,-1
 216 353 l 1,18,-1
 212 375 l 1,19,-1
 208 417 l 1,20,-1
 205 450 l 1,21,-1
 204 528 l 1,22,-1
 200 540 l 1,23,-1
 188 544 l 1,24,-1
 80 541 l 1,25,-1
 68 537 l 1,26,-1
 51 532 l 1,27,-1
 39 528 l 1,28,-1
 27 532 l 1,29,-1
 11 548 l 1,30,-1
 7 560 l 1,31,-1
 11 572 l 1,32,-1
 23 576 l 1,33,-1
 183 576 l 1,34,-1
 195 580 l 1,35,-1
 203 588 l 1,36,-1
 215 592 l 1,37,-1
 231 592 l 1,38,-1
 243 588 l 1,39,-1
 253 588 l 1,40,-1
 261 588 l 1,41,-1
 267 588 l 1,42,-1
 279 592 l 1,43,-1
 423 592 l 1,44,-1
 435 588 l 1,45,-1
 439 576 l 1,46,-1
 436 555 l 1,47,-1
 424 551 l 1,0,-1
EndSplineSet
Validated: 1
EndChar

StartChar: U
Encoding: 85 85 56
Width: 330
GlyphClass: 2
Flags: W
LayerCount: 2
Fore
SplineSet
296 369 m 1,0,-1
 282 253 l 1,1,-1
 278 226 l 1,2,-1
 271 204 l 1,3,-1
 264 186 l 1,4,-1
 255 157 l 1,5,-1
 246 134 l 1,6,-1
 235 112 l 1,7,-1
 218 92 l 1,8,-1
 197 82 l 1,9,-1
 182 78 l 1,10,-1
 159 77 l 1,11,-1
 147 80 l 1,12,-1
 128 86 l 1,13,-1
 108 101 l 1,14,-1
 92 117 l 1,15,-1
 67 166 l 1,16,-1
 63 178 l 1,17,-1
 48 224 l 1,18,-1
 41 247 l 1,19,-1
 33 312 l 1,20,-1
 32 336 l 1,21,-1
 25 541 l 1,22,-1
 29 553 l 1,23,-1
 48 565 l 1,24,-1
 66 559 l 1,25,-1
 70 547 l 1,26,-1
 74 377 l 1,27,-1
 74 355 l 1,28,-1
 75 310 l 1,29,-1
 81 260 l 1,30,-1
 84 244 l 1,31,-1
 90 229 l 1,32,-1
 94 217 l 1,33,-1
 100 196 l 1,34,-1
 116 164 l 1,35,-1
 150 126 l 1,36,-1
 178 116 l 1,37,-1
 193 123 l 1,38,-1
 208 145 l 1,39,-1
 218 172 l 1,40,-1
 224 240 l 1,41,-1
 232 295 l 1,42,-1
 236 307 l 1,43,-1
 247 405 l 1,44,-1
 247 485 l 1,45,-1
 251 497 l 1,46,-1
 272 496 l 1,47,-1
 288 496 l 1,48,-1
 300 492 l 1,49,-1
 304 480 l 1,50,-1
 304 460 l 1,51,-1
 296 369 l 1,0,-1
EndSplineSet
Validated: 1
EndChar

StartChar: V
Encoding: 86 86 57
Width: 352
GlyphClass: 2
Flags: W
LayerCount: 2
Fore
SplineSet
308 460 m 1,0,-1
 307 444 l 1,1,-1
 304 416 l 1,2,-1
 295 383 l 1,3,-1
 283 326 l 1,4,-1
 281 302 l 1,5,-1
 276 268 l 1,6,-1
 271 239 l 1,7,-1
 268 164 l 1,8,-1
 256 64 l 1,9,-1
 252 52 l 1,10,-1
 219 34 l 1,11,-1
 211 34 l 1,12,-1
 189 88 l 1,13,-1
 185 100 l 1,14,-1
 176 128 l 1,15,-1
 164 164 l 1,16,-1
 160 176 l 1,17,-1
 127 255 l 1,18,-1
 123 267 l 1,19,-1
 105 321 l 1,20,-1
 101 333 l 1,21,-1
 83 377 l 1,22,-1
 79 389 l 1,23,-1
 52 468 l 1,24,-1
 48 480 l 1,25,-1
 32 528 l 1,26,-1
 36 540 l 1,27,-1
 48 544 l 1,28,-1
 60 540 l 1,29,-1
 76 524 l 1,30,-1
 92 492 l 1,31,-1
 100 468 l 1,32,-1
 116 436 l 1,33,-1
 123 422 l 1,34,-1
 130 403 l 1,35,-1
 140 380 l 1,36,-1
 144 368 l 1,37,-1
 159 329 l 1,38,-1
 163 317 l 1,39,-1
 175 281 l 1,40,-1
 179 269 l 1,41,-1
 191 233 l 1,42,-1
 195 221 l 1,43,-1
 213 161 l 1,44,-1
 218 148 l 1,45,-1
 226 213 l 1,46,-1
 228 236 l 1,47,-1
 240 320 l 1,48,-1
 256 416 l 1,49,-1
 260 428 l 1,50,-1
 272 480 l 1,51,-1
 279 545 l 1,52,-1
 283 557 l 1,53,-1
 285 568 l 1,54,-1
 289 580 l 1,55,-1
 298 595 l 1,56,-1
 315 602 l 1,57,-1
 323 602 l 1,58,-1
 330 590 l 1,59,-1
 308 460 l 1,0,-1
EndSplineSet
Validated: 1
EndChar

StartChar: W
Encoding: 87 87 58
Width: 512
GlyphClass: 2
Flags: W
LayerCount: 2
Fore
SplineSet
458 497 m 1,0,-1
 454 476 l 1,1,-1
 452 441 l 1,2,-1
 453 391 l 1,3,-1
 448 333 l 1,4,-1
 444 321 l 1,5,-1
 432 237 l 1,6,-1
 428 225 l 1,7,-1
 400 59 l 1,8,-1
 396 47 l 1,9,-1
 380 31 l 1,10,-1
 368 27 l 1,11,-1
 356 31 l 1,12,-1
 340 63 l 1,13,-1
 308 113 l 1,14,-1
 304 125 l 1,15,-1
 292 161 l 1,16,-1
 288 173 l 1,17,-1
 281 201 l 1,18,-1
 276 225 l 1,19,-1
 272 237 l 1,20,-1
 253 340 l 1,21,-1
 249 352 l 1,22,-1
 236 377 l 1,23,-1
 228 377 l 1,24,-1
 220 353 l 1,25,-1
 217 337 l 1,26,-1
 212 318 l 1,27,-1
 204 273 l 1,28,-1
 157 120 l 1,29,-1
 153 108 l 1,30,-1
 121 44 l 1,31,-1
 109 40 l 1,32,-1
 97 44 l 1,33,-1
 93 56 l 1,34,-1
 91 81 l 1,35,-1
 87 93 l 1,36,-1
 81 108 l 1,37,-1
 77 120 l 1,38,-1
 64 237 l 1,39,-1
 44 353 l 1,40,-1
 41 372 l 1,41,-1
 32 502 l 1,42,-1
 33 516 l 1,43,-1
 37 528 l 1,44,-1
 49 532 l 1,45,-1
 66 526 l 1,46,-1
 70 514 l 1,47,-1
 81 452 l 1,48,-1
 92 345 l 1,49,-1
 96 319 l 1,50,-1
 108 233 l 1,51,-1
 111 212 l 1,52,-1
 112 189 l 1,53,-1
 116 177 l 1,54,-1
 124 177 l 1,55,-1
 144 237 l 1,56,-1
 148 249 l 1,57,-1
 160 285 l 1,58,-1
 164 297 l 1,59,-1
 176 349 l 1,60,-1
 192 397 l 1,61,-1
 196 409 l 1,62,-1
 204 417 l 1,63,-1
 208 429 l 1,64,-1
 208 477 l 1,65,-1
 212 489 l 1,66,-1
 228 505 l 1,67,-1
 236 505 l 1,68,-1
 252 489 l 1,69,-1
 268 457 l 1,70,-1
 272 445 l 1,71,-1
 288 365 l 1,72,-1
 313 259 l 1,73,-1
 316 249 l 1,74,-1
 320 237 l 1,75,-1
 328 200 l 1,76,-1
 336 157 l 1,77,-1
 340 145 l 1,78,-1
 356 129 l 1,79,-1
 364 129 l 1,80,-1
 368 141 l 1,81,-1
 372 201 l 1,82,-1
 383 285 l 1,83,-1
 388 313 l 1,84,-1
 400 397 l 1,85,-1
 410 497 l 1,86,-1
 412 526 l 1,87,-1
 416 547 l 1,88,-1
 425 558 l 1,89,-1
 437 562 l 1,90,-1
 453 562 l 1,91,-1
 465 558 l 1,92,-1
 469 546 l 1,93,-1
 458 497 l 1,0,-1
EndSplineSet
Validated: 1
EndChar

StartChar: X
Encoding: 88 88 59
Width: 352
GlyphClass: 2
Flags: W
LayerCount: 2
Fore
SplineSet
304 46 m 1,0,-1
 287 42 l 1,1,-1
 271 58 l 1,2,-1
 241 129 l 1,3,-1
 219 178 l 1,4,-1
 211 193 l 1,5,-1
 196 225 l 1,6,-1
 176 295 l 1,7,-1
 164 300 l 1,8,-1
 154 275 l 1,9,-1
 108 162 l 1,10,-1
 76 114 l 1,11,-1
 60 98 l 1,12,-1
 36 99 l 1,13,-1
 32 110 l 1,14,-1
 38 131 l 1,15,-1
 56 171 l 1,16,-1
 82 219 l 1,17,-1
 111 284 l 1,18,-1
 124 308 l 1,19,-1
 137 328 l 1,20,-1
 140 340 l 1,21,-1
 136 358 l 1,22,-1
 123 382 l 1,23,-1
 100 434 l 1,24,-1
 79 481 l 1,25,-1
 74 494 l 1,26,-1
 70 506 l 1,27,-1
 82 528 l 1,28,-1
 90 528 l 1,29,-1
 108 511 l 1,30,-1
 130 478 l 1,31,-1
 156 412 l 1,32,-1
 164 388 l 1,33,-1
 172 388 l 1,34,-1
 188 404 l 1,35,-1
 203 425 l 1,36,-1
 231 470 l 1,37,-1
 236 484 l 1,38,-1
 244 508 l 1,39,-1
 250 519 l 1,40,-1
 260 540 l 1,41,-1
 272 544 l 1,42,-1
 288 544 l 1,43,-1
 300 540 l 1,44,-1
 300 532 l 1,45,-1
 298 522 l 1,46,-1
 294 510 l 1,47,-1
 288 496 l 1,48,-1
 284 484 l 1,49,-1
 220 365 l 1,50,-1
 211 348 l 1,51,-1
 205 337 l 1,52,-1
 224 297 l 1,53,-1
 260 207 l 1,54,-1
 284 145 l 1,55,-1
 300 106 l 1,56,-1
 309 85 l 1,57,-1
 313 73 l 1,58,-1
 316 58 l 1,59,-1
 304 46 l 1,0,-1
EndSplineSet
Validated: 1
EndChar

StartChar: Y
Encoding: 89 89 60
Width: 368
GlyphClass: 2
Flags: W
LayerCount: 2
Fore
SplineSet
324 572 m 1,0,-1
 300 532 l 1,1,-1
 268 484 l 1,2,-1
 236 436 l 1,3,-1
 220 404 l 1,4,-1
 216 387 l 1,5,-1
 215 372 l 1,6,-1
 215 344 l 1,7,-1
 216 328 l 1,8,-1
 220 276 l 1,9,-1
 220 252 l 1,10,-1
 222 213 l 1,11,-1
 224 64 l 1,12,-1
 220 52 l 1,13,-1
 212 52 l 1,14,-1
 184 56 l 1,15,-1
 180 68 l 1,16,-1
 177 102 l 1,17,-1
 173 158 l 1,18,-1
 176 191 l 1,19,-1
 176 224 l 1,20,-1
 170 352 l 1,21,-1
 166 364 l 1,22,-1
 149 406 l 1,23,-1
 132 422 l 1,24,-1
 68 500 l 1,25,-1
 36 548 l 1,26,-1
 32 560 l 1,27,-1
 36 572 l 1,28,-1
 48 576 l 1,29,-1
 60 572 l 1,30,-1
 87 541 l 1,31,-1
 108 508 l 1,32,-1
 164 436 l 1,33,-1
 176 432 l 1,34,-1
 188 436 l 1,35,-1
 204 452 l 1,36,-1
 233 502 l 1,37,-1
 273 570 l 1,38,-1
 282 589 l 1,39,-1
 298 605 l 1,40,-1
 320 608 l 1,41,-1
 332 604 l 1,42,-1
 336 592 l 1,43,-1
 332 580 l 1,44,-1
 324 572 l 1,0,-1
EndSplineSet
Validated: 1
EndChar

StartChar: Z
Encoding: 90 90 61
Width: 416
GlyphClass: 2
Flags: W
LayerCount: 2
Fore
SplineSet
368 48 m 1,0,-1
 272 48 l 1,1,-1
 220 52 l 1,2,-1
 208 48 l 1,3,-1
 144 48 l 1,4,-1
 96 48 l 1,5,-1
 64 48 l 1,6,-1
 52 52 l 1,7,-1
 40 59 l 1,8,-1
 32 67 l 1,9,-1
 28 79 l 1,10,-1
 33 102 l 1,11,-1
 45 106 l 1,12,-1
 58 111 l 1,13,-1
 70 115 l 1,14,-1
 92 157 l 1,15,-1
 99 176 l 1,16,-1
 117 217 l 1,17,-1
 137 258 l 1,18,-1
 141 270 l 1,19,-1
 157 302 l 1,20,-1
 175 338 l 1,21,-1
 191 370 l 1,22,-1
 217 419 l 1,23,-1
 221 431 l 1,24,-1
 237 463 l 1,25,-1
 256 501 l 1,26,-1
 268 521 l 1,27,-1
 268 529 l 1,28,-1
 256 533 l 1,29,-1
 91 533 l 1,30,-1
 79 537 l 1,31,-1
 82 569 l 1,32,-1
 94 573 l 1,33,-1
 122 577 l 1,34,-1
 144 576 l 1,35,-1
 289 575 l 1,36,-1
 301 579 l 1,37,-1
 319 589 l 1,38,-1
 346 589 l 1,39,-1
 348 577 l 1,40,-1
 327 533 l 1,41,-1
 300 484 l 1,42,-1
 284 452 l 1,43,-1
 268 420 l 1,44,-1
 192 256 l 1,45,-1
 188 244 l 1,46,-1
 180 229 l 1,47,-1
 156 180 l 1,48,-1
 140 148 l 1,49,-1
 127 121 l 1,50,-1
 127 113 l 1,51,-1
 132 100 l 1,52,-1
 144 96 l 1,53,-1
 208 96 l 1,54,-1
 256 96 l 1,55,-1
 352 96 l 1,56,-1
 364 92 l 1,57,-1
 380 76 l 1,58,-1
 384 64 l 1,59,-1
 380 52 l 1,60,-1
 368 48 l 1,0,-1
EndSplineSet
Validated: 1
EndChar

StartChar: bracketleft
Encoding: 91 91 62
Width: 240
GlyphClass: 2
Flags: W
LayerCount: 2
Fore
SplineSet
192 32 m 1,0,-1
 96 32 l 1,1,-1
 84 36 l 1,2,-1
 68 52 l 1,3,-1
 64 64 l 1,4,-1
 50 205 l 1,5,-1
 48 224 l 1,6,-1
 32 608 l 1,7,-1
 36 620 l 1,8,-1
 48 624 l 1,9,-1
 150 630 l 1,10,-1
 156 620 l 1,11,-1
 156 612 l 1,12,-1
 147 602 l 1,13,-1
 139 594 l 1,14,-1
 112 592 l 1,15,-1
 74 585 l 1,16,-1
 62 581 l 1,17,-1
 62 573 l 1,18,-1
 70 565 l 1,19,-1
 74 553 l 1,20,-1
 80 420 l 1,21,-1
 80 400 l 1,22,-1
 92 236 l 1,23,-1
 94 210 l 1,24,-1
 96 96 l 1,25,-1
 100 84 l 1,26,-1
 116 68 l 1,27,-1
 128 64 l 1,28,-1
 176 64 l 1,29,-1
 188 60 l 1,30,-1
 204 44 l 1,31,-1
 204 36 l 1,32,-1
 192 32 l 1,0,-1
EndSplineSet
Validated: 1
EndChar

StartChar: backslash
Encoding: 92 92 63
Width: 448
GlyphClass: 2
Flags: W
LayerCount: 2
Fore
SplineSet
401 64 m 1,0,-1
 390 69 l 1,1,-1
 331 135 l 1,2,-1
 269 216 l 1,3,-1
 250 250 l 1,4,-1
 191 340 l 1,5,-1
 183 364 l 1,6,-1
 167 396 l 1,7,-1
 125 460 l 1,8,-1
 93 508 l 1,9,-1
 77 540 l 1,10,-1
 73 552 l 1,11,-1
 36 596 l 1,12,-1
 32 608 l 1,13,-1
 36 620 l 1,14,-1
 68 628 l 1,15,-1
 76 628 l 1,16,-1
 84 620 l 1,17,-1
 124 556 l 1,18,-1
 128 544 l 1,19,-1
 156 492 l 1,20,-1
 188 444 l 1,21,-1
 220 396 l 1,22,-1
 260 324 l 1,23,-1
 268 316 l 1,24,-1
 276 292 l 1,25,-1
 316 236 l 1,26,-1
 348 188 l 1,27,-1
 380 140 l 1,28,-1
 415 93 l 1,29,-1
 423 85 l 1,30,-1
 427 73 l 1,31,-1
 415 61 l 1,32,-1
 401 64 l 1,0,-1
EndSplineSet
Validated: 1
EndChar

StartChar: bracketright
Encoding: 93 93 64
Width: 320
GlyphClass: 2
Flags: W
LayerCount: 2
Fore
SplineSet
272 -4 m 1,0,-1
 268 -19 l 1,1,-1
 252 -32 l 1,2,-1
 152 -44 l 1,3,-1
 140 -48 l 1,4,-1
 128 -44 l 1,5,-1
 112 -28 l 1,6,-1
 108 -16 l 1,7,-1
 112 -4 l 1,8,-1
 144 4 l 1,9,-1
 168 4 l 1,10,-1
 220 16 l 1,11,-1
 232 20 l 1,12,-1
 236 32 l 1,13,-1
 224 84 l 1,14,-1
 220 96 l 1,15,-1
 212 142 l 1,16,-1
 212 161 l 1,17,-1
 208 212 l 1,18,-1
 208 220 l 1,19,-1
 204 256 l 1,20,-1
 201 344 l 1,21,-1
 200 364 l 1,22,-1
 176 580 l 1,23,-1
 172 592 l 1,24,-1
 172 608 l 1,25,-1
 168 620 l 1,26,-1
 156 624 l 1,27,-1
 88 612 l 1,28,-1
 64 612 l 1,29,-1
 40 614 l 1,30,-1
 32 628 l 1,31,-1
 32 636 l 1,32,-1
 48 652 l 1,33,-1
 60 656 l 1,34,-1
 156 656 l 1,35,-1
 168 660 l 1,36,-1
 192 684 l 1,37,-1
 204 688 l 1,38,-1
 216 684 l 1,39,-1
 220 672 l 1,40,-1
 239 373 l 1,41,-1
 243 337 l 1,42,-1
 252 239 l 1,43,-1
 256 220 l 1,44,-1
 264 172 l 1,45,-1
 268 160 l 1,46,-1
 280 76 l 1,47,-1
 284 16 l 1,48,-1
 280 4 l 1,49,-1
 272 -4 l 1,0,-1
EndSplineSet
Validated: 1
EndChar

StartChar: asciicircum
Encoding: 94 94 65
Width: 192
GlyphClass: 2
Flags: W
LayerCount: 2
Fore
SplineSet
54 470 m 1,0,-1
 44 452 l 1,1,-1
 36 452 l 1,2,-1
 32 464 l 1,3,-1
 32 480 l 1,4,-1
 44 500 l 1,5,-1
 52 524 l 1,6,-1
 60 524 l 1,7,-1
 64 512 l 1,8,-1
 64 496 l 1,9,-1
 60 484 l 1,10,-1
 54 470 l 1,0,-1
144 464 m 1,11,-1
 132 468 l 1,12,-1
 124 492 l 1,13,-1
 92 524 l 1,14,-1
 68 532 l 1,15,-1
 64 544 l 1,16,-1
 64 560 l 1,17,-1
 68 572 l 1,18,-1
 80 576 l 1,19,-1
 92 572 l 1,20,-1
 100 548 l 1,21,-1
 156 492 l 1,22,-1
 160 480 l 1,23,-1
 156 468 l 1,24,-1
 144 464 l 1,11,-1
EndSplineSet
Validated: 1
EndChar

StartChar: underscore
Encoding: 95 95 66
Width: 576
GlyphClass: 2
Flags: W
LayerCount: 2
Fore
SplineSet
528 80 m 1,0,-1
 512 80 l 1,1,-1
 500 76 l 1,2,-1
 428 76 l 1,3,-1
 404 76 l 1,4,-1
 364 76 l 1,5,-1
 352 80 l 1,6,-1
 336 80 l 1,7,-1
 324 76 l 1,8,-1
 293 75 l 1,9,-1
 261 75 l 1,10,-1
 249 71 l 1,11,-1
 236 68 l 1,12,-1
 224 64 l 1,13,-1
 48 64 l 1,14,-1
 36 68 l 1,15,-1
 32 80 l 1,16,-1
 36 92 l 1,17,-1
 52 108 l 1,18,-1
 60 108 l 1,19,-1
 68 100 l 1,20,-1
 92 100 l 1,21,-1
 100 108 l 1,22,-1
 112 112 l 1,23,-1
 272 112 l 1,24,-1
 340 116 l 1,25,-1
 348 116 l 1,26,-1
 420 116 l 1,27,-1
 432 112 l 1,28,-1
 512 112 l 1,29,-1
 524 108 l 1,30,-1
 540 92 l 1,31,-1
 540 84 l 1,32,-1
 528 80 l 1,0,-1
EndSplineSet
Validated: 1
EndChar

StartChar: grave
Encoding: 96 96 67
Width: 176
GlyphClass: 2
Flags: W
LayerCount: 2
Fore
SplineSet
86 569 m 1,0,-1
 82 564 l 1,1,-1
 78 564 l 1,2,-1
 69 573 l 1,3,-1
 65 587 l 1,4,-1
 43 619 l 1,5,-1
 41 626 l 1,6,-1
 41 635 l 1,7,-1
 39 642 l 1,8,-1
 34 647 l 1,9,-1
 32 653 l 1,10,-1
 34 660 l 1,11,-1
 41 663 l 1,12,-1
 47 660 l 1,13,-1
 54 653 l 1,14,-1
 65 633 l 1,15,-1
 82 605 l 1,16,-1
 86 592 l 1,17,-1
 88 596 l 1,18,-1
 93 580 l 1,19,-1
 91 573 l 1,20,-1
 86 569 l 1,0,-1
EndSplineSet
Validated: 1
EndChar

StartChar: a
Encoding: 97 97 68
Width: 277
GlyphClass: 2
Flags: W
LayerCount: 2
Fore
SplineSet
170 170 m 1,0,-1
 156 193 l 1,1,-1
 140 208 l 1,2,-1
 132 208 l 1,3,-1
 112 167 l 1,4,-1
 116 155 l 1,5,-1
 128 152 l 1,6,-1
 144 152 l 1,7,-1
 167 154 l 1,8,-1
 170 170 l 1,0,-1
244 42 m 1,9,-1
 236 34 l 1,10,-1
 228 34 l 1,11,-1
 224 46 l 1,12,-1
 217 74 l 1,13,-1
 213 85 l 1,14,-1
 204 102 l 1,15,-1
 194 118 l 1,16,-1
 153 120 l 1,17,-1
 128 121 l 1,18,-1
 116 118 l 1,19,-1
 100 102 l 1,20,-1
 92 80 l 1,21,-1
 80 46 l 1,22,-1
 76 34 l 1,23,-1
 68 5 l 1,24,-1
 52 4 l 1,25,-1
 35 12 l 1,26,-1
 32 30 l 1,27,-1
 36 42 l 1,28,-1
 44 49 l 1,29,-1
 48 61 l 1,30,-1
 76 155 l 1,31,-1
 80 167 l 1,32,-1
 112 273 l 1,33,-1
 112 288 l 1,34,-1
 108 299 l 1,35,-1
 100 307 l 1,36,-1
 96 318 l 1,37,-1
 100 329 l 1,38,-1
 124 337 l 1,39,-1
 144 318 l 1,40,-1
 148 307 l 1,41,-1
 156 299 l 1,42,-1
 160 288 l 1,43,-1
 188 208 l 1,44,-1
 198 189 l 1,45,-1
 223 141 l 1,46,-1
 231 134 l 1,47,-1
 235 122 l 1,48,-1
 253 69 l 1,49,-1
 252 49 l 1,50,-1
 244 42 l 1,9,-1
EndSplineSet
Validated: 1
EndChar

StartChar: b
Encoding: 98 98 69
Width: 251
GlyphClass: 2
Flags: W
LayerCount: 2
Fore
SplineSet
172 290 m 1,0,-1
 168 301 l 1,1,-1
 157 308 l 1,2,-1
 143 309 l 1,3,-1
 93 297 l 1,4,-1
 79 292 l 1,5,-1
 63 277 l 1,6,-1
 63 259 l 1,7,-1
 63 244 l 1,8,-1
 67 223 l 1,9,-1
 87 223 l 1,10,-1
 129 231 l 1,11,-1
 141 234 l 1,12,-1
 168 266 l 1,13,-1
 172 290 l 1,0,-1
188 153 m 1,14,-1
 184 164 l 1,15,-1
 169 176 l 1,16,-1
 160 180 l 1,17,-1
 141 183 l 1,18,-1
 94 183 l 1,19,-1
 83 179 l 1,20,-1
 67 164 l 1,21,-1
 63 153 l 1,22,-1
 70 118 l 1,23,-1
 74 101 l 1,24,-1
 79 92 l 1,25,-1
 110 92 l 1,26,-1
 150 103 l 1,27,-1
 169 119 l 1,28,-1
 184 141 l 1,29,-1
 188 153 l 1,14,-1
205 110 m 1,30,-1
 168 81 l 1,31,-1
 137 65 l 1,32,-1
 110 62 l 1,33,-1
 74 62 l 1,34,-1
 75 27 l 1,35,-1
 74 17 l 1,36,-1
 58 15 l 1,37,-1
 47 19 l 1,38,-1
 42 59 l 1,39,-1
 33 185 l 1,40,-1
 32 203 l 1,41,-1
 32 320 l 1,42,-1
 36 331 l 1,43,-1
 59 331 l 1,44,-1
 67 324 l 1,45,-1
 148 337 l 1,46,-1
 172 335 l 1,47,-1
 189 322 l 1,48,-1
 200 301 l 1,49,-1
 200 293 l 1,50,-1
 200 283 l 1,51,-1
 197 271 l 1,52,-1
 189 256 l 1,53,-1
 185 245 l 1,54,-1
 172 229 l 1,55,-1
 160 214 l 1,56,-1
 183 207 l 1,57,-1
 200 195 l 1,58,-1
 215 179 l 1,59,-1
 219 168 l 1,60,-1
 219 138 l 1,61,-1
 215 126 l 1,62,-1
 205 110 l 1,30,-1
EndSplineSet
Validated: 1
EndChar

StartChar: c
Encoding: 99 99 70
Width: 208
GlyphClass: 2
Flags: W
LayerCount: 2
Fore
SplineSet
162 19 m 1,0,-1
 137 16 l 1,1,-1
 119 21 l 1,2,-1
 103 29 l 1,3,-1
 83 40 l 1,4,-1
 56 76 l 1,5,-1
 21 156 l 1,6,-1
 17 170 l 1,7,-1
 23 224 l 1,8,-1
 28 241 l 1,9,-1
 43 274 l 1,10,-1
 74 301 l 1,11,-1
 103 318 l 1,12,-1
 115 323 l 1,13,-1
 142 327 l 1,14,-1
 154 323 l 1,15,-1
 158 313 l 1,16,-1
 154 302 l 1,17,-1
 142 298 l 1,18,-1
 120 292 l 1,19,-1
 108 288 l 1,20,-1
 87 275 l 1,21,-1
 74 255 l 1,22,-1
 63 224 l 1,23,-1
 59 206 l 1,24,-1
 56 146 l 1,25,-1
 61 127 l 1,26,-1
 83 84 l 1,27,-1
 115 55 l 1,28,-1
 129 49 l 1,29,-1
 158 49 l 1,30,-1
 171 44 l 1,31,-1
 174 37 l 1,32,-1
 170 26 l 1,33,-1
 162 19 l 1,0,-1
EndSplineSet
Validated: 1
EndChar

StartChar: d
Encoding: 100 100 71
Width: 256
GlyphClass: 2
Flags: W
LayerCount: 2
Fore
SplineSet
190 222 m 1,0,-1
 190 251 l 1,1,-1
 186 262 l 1,2,-1
 172 279 l 1,3,-1
 139 291 l 1,4,-1
 127 295 l 1,5,-1
 95 295 l 1,6,-1
 84 291 l 1,7,-1
 80 280 l 1,8,-1
 84 195 l 1,9,-1
 95 90 l 1,10,-1
 99 80 l 1,11,-1
 115 79 l 1,12,-1
 155 123 l 1,13,-1
 174 149 l 1,14,-1
 177 160 l 1,15,-1
 191 204 l 1,16,-1
 190 222 l 1,0,-1
213 158 m 1,17,-1
 209 147 l 1,18,-1
 194 120 l 1,19,-1
 176 91 l 1,20,-1
 124 36 l 1,21,-1
 95 32 l 1,22,-1
 80 32 l 1,23,-1
 68 36 l 1,24,-1
 64 47 l 1,25,-1
 48 193 l 1,26,-1
 45 266 l 1,27,-1
 42 291 l 1,28,-1
 38 302 l 1,29,-1
 42 313 l 1,30,-1
 55 327 l 1,31,-1
 63 327 l 1,32,-1
 71 320 l 1,33,-1
 95 324 l 1,34,-1
 127 324 l 1,35,-1
 139 321 l 1,36,-1
 171 306 l 1,37,-1
 211 272 l 1,38,-1
 222 251 l 1,39,-1
 222 207 l 1,40,-1
 213 158 l 1,17,-1
EndSplineSet
Validated: 1
EndChar

StartChar: e
Encoding: 101 101 72
Width: 256
GlyphClass: 2
Flags: W
LayerCount: 2
Fore
SplineSet
208 193 m 1,0,-1
 176 193 l 1,1,-1
 164 189 l 1,2,-1
 115 187 l 1,3,-1
 103 183 l 1,4,-1
 101 164 l 1,5,-1
 100 123 l 1,6,-1
 112 60 l 1,7,-1
 116 49 l 1,8,-1
 128 45 l 1,9,-1
 192 45 l 1,10,-1
 204 42 l 1,11,-1
 204 34 l 1,12,-1
 198 23 l 1,13,-1
 182 23 l 1,14,-1
 170 20 l 1,15,-1
 144 16 l 1,16,-1
 71 14 l 1,17,-1
 59 18 l 1,18,-1
 52 34 l 1,19,-1
 52 42 l 1,20,-1
 76 49 l 1,21,-1
 75 65 l 1,22,-1
 68 93 l 1,23,-1
 64 164 l 1,24,-1
 62 180 l 1,25,-1
 36 187 l 1,26,-1
 32 208 l 1,27,-1
 36 219 l 1,28,-1
 56 224 l 1,29,-1
 56 241 l 1,30,-1
 52 263 l 1,31,-1
 52 285 l 1,32,-1
 54 317 l 1,33,-1
 68 322 l 1,34,-1
 80 326 l 1,35,-1
 112 326 l 1,36,-1
 124 322 l 1,37,-1
 176 311 l 1,38,-1
 188 308 l 1,39,-1
 192 296 l 1,40,-1
 188 285 l 1,41,-1
 180 285 l 1,42,-1
 140 293 l 1,43,-1
 128 296 l 1,44,-1
 112 296 l 1,45,-1
 100 293 l 1,46,-1
 96 282 l 1,47,-1
 96 237 l 1,48,-1
 100 226 l 1,49,-1
 112 223 l 1,50,-1
 208 223 l 1,51,-1
 220 219 l 1,52,-1
 224 208 l 1,53,-1
 220 197 l 1,54,-1
 208 193 l 1,0,-1
EndSplineSet
Validated: 1
EndChar

StartChar: f
Encoding: 102 102 73
Width: 224
GlyphClass: 2
Flags: W
HStem: 204 38<163 171> 295 31<44 60> 316 33<131 155>
VStem: 64 32<261 276> 80 28<108 186.201> 84 35<35 43>
LayerCount: 2
Fore
SplineSet
179 211 m 1,0,-1
 171 204 l 1,1,-1
 163 204 l 1,2,-1
 127 200 l 1,3,-1
 111 200 l 1,4,-1
 108 194 l 1,5,-1
 108 186 l 1,6,-1
 108 181 l 1,7,-1
 111 108 l 1,8,-1
 115 97 l 1,9,-1
 123 51 l 1,10,-1
 119 26 l 1,11,-1
 108 20 l 1,12,-1
 100 20 l 1,13,-1
 84 35 l 1,14,-1
 84 43 l 1,15,-1
 80 77 l 1,16,-1
 76 166 l 1,17,-1
 69 197 l 1,18,-1
 42 193 l 1,19,-1
 36 204 l 1,20,-1
 38 218 l 1,21,-1
 52 227 l 1,22,-1
 68 233 l 1,23,-1
 64 261 l 1,24,-1
 64 276 l 1,25,-1
 60 288 l 1,26,-1
 36 295 l 1,27,-1
 32 307 l 1,28,-1
 36 318 l 1,29,-1
 44 326 l 1,30,-1
 111 338 l 1,31,-1
 123 341 l 1,32,-1
 131 349 l 1,33,-1
 155 349 l 1,34,-1
 171 334 l 1,35,-1
 171 326 l 1,36,-1
 155 316 l 1,37,-1
 147 316 l 1,38,-1
 123 311 l 1,39,-1
 100 303 l 1,40,-1
 96 292 l 1,41,-1
 96 261 l 1,42,-1
 100 250 l 1,43,-1
 108 233 l 1,44,-1
 123 234 l 1,45,-1
 171 242 l 1,46,-1
 186 235 l 1,47,-1
 187 219 l 1,48,-1
 179 211 l 1,0,-1
EndSplineSet
Validated: 1
EndChar

StartChar: g
Encoding: 103 103 74
Width: 262
GlyphClass: 2
Flags: W
LayerCount: 2
Fore
SplineSet
221 125 m 1,0,-1
 217 115 l 1,1,-1
 217 72 l 1,2,-1
 214 62 l 1,3,-1
 198 34 l 1,4,-1
 183 20 l 1,5,-1
 171 16 l 1,6,-1
 125 16 l 1,7,-1
 113 20 l 1,8,-1
 90 41 l 1,9,-1
 56 64 l 1,10,-1
 36 90 l 1,11,-1
 32 101 l 1,12,-1
 29 199 l 1,13,-1
 36 224 l 1,14,-1
 43 241 l 1,15,-1
 51 252 l 1,16,-1
 67 280 l 1,17,-1
 98 308 l 1,18,-1
 129 322 l 1,19,-1
 140 326 l 1,20,-1
 187 326 l 1,21,-1
 198 322 l 1,22,-1
 202 312 l 1,23,-1
 198 301 l 1,24,-1
 187 298 l 1,25,-1
 140 298 l 1,26,-1
 129 294 l 1,27,-1
 98 266 l 1,28,-1
 82 238 l 1,29,-1
 78 227 l 1,30,-1
 67 196 l 1,31,-1
 63 185 l 1,32,-1
 63 129 l 1,33,-1
 67 118 l 1,34,-1
 82 90 l 1,35,-1
 129 48 l 1,36,-1
 140 44 l 1,37,-1
 156 44 l 1,38,-1
 167 48 l 1,39,-1
 183 62 l 1,40,-1
 187 72 l 1,41,-1
 187 115 l 1,42,-1
 183 125 l 1,43,-1
 171 129 l 1,44,-1
 109 129 l 1,45,-1
 98 132 l 1,46,-1
 94 143 l 1,47,-1
 98 153 l 1,48,-1
 109 157 l 1,49,-1
 136 160 l 1,50,-1
 190 160 l 1,51,-1
 198 160 l 1,52,-1
 206 167 l 1,53,-1
 214 167 l 1,54,-1
 229 153 l 1,55,-1
 233 143 l 1,56,-1
 229 132 l 1,57,-1
 221 125 l 1,0,-1
EndSplineSet
Validated: 1
EndChar

StartChar: h
Encoding: 104 104 75
Width: 295
GlyphClass: 2
Flags: W
LayerCount: 2
Fore
SplineSet
245 23 m 1,0,-1
 240 36 l 1,1,-1
 232 60 l 1,2,-1
 220 96 l 1,3,-1
 216 108 l 1,4,-1
 203 118 l 1,5,-1
 184 116 l 1,6,-1
 172 112 l 1,7,-1
 112 108 l 1,8,-1
 95 106 l 1,9,-1
 80 92 l 1,10,-1
 76 80 l 1,11,-1
 76 64 l 1,12,-1
 80 52 l 1,13,-1
 87 37 l 1,14,-1
 87 29 l 1,15,-1
 72 20 l 1,16,-1
 64 20 l 1,17,-1
 50 28 l 1,18,-1
 40 92 l 1,19,-1
 32 100 l 1,20,-1
 32 108 l 1,21,-1
 40 116 l 1,22,-1
 44 128 l 1,23,-1
 44 320 l 1,24,-1
 48 332 l 1,25,-1
 56 332 l 1,26,-1
 66 323 l 1,27,-1
 72 300 l 1,28,-1
 76 288 l 1,29,-1
 76 160 l 1,30,-1
 80 148 l 1,31,-1
 92 144 l 1,32,-1
 144 151 l 1,33,-1
 188 160 l 1,34,-1
 200 164 l 1,35,-1
 192 196 l 1,36,-1
 184 243 l 1,37,-1
 180 255 l 1,38,-1
 172 288 l 1,39,-1
 168 300 l 1,40,-1
 160 308 l 1,41,-1
 156 320 l 1,42,-1
 160 332 l 1,43,-1
 172 336 l 1,44,-1
 184 332 l 1,45,-1
 200 316 l 1,46,-1
 204 304 l 1,47,-1
 216 268 l 1,48,-1
 220 256 l 1,49,-1
 232 220 l 1,50,-1
 240 180 l 1,51,-1
 248 140 l 1,52,-1
 252 128 l 1,53,-1
 256 100 l 1,54,-1
 264 83 l 1,55,-1
 268 71 l 1,56,-1
 272 26 l 1,57,-1
 264 20 l 1,58,-1
 245 23 l 1,0,-1
EndSplineSet
Validated: 1
EndChar

StartChar: i
Encoding: 105 105 76
Width: 112
GlyphClass: 2
Flags: W
HStem: 32 300<52 60>
VStem: 38 42<48 213.805> 48 32<188 288>
LayerCount: 2
Fore
SplineSet
64 32 m 1,0,-1
 48 32 l 1,1,-1
 38 43 l 1,2,-1
 38 123 l 1,3,-1
 44 180 l 1,4,-1
 44 188 l 1,5,-1
 48 224 l 1,6,-1
 48 240 l 1,7,-1
 48 288 l 1,8,-1
 44 300 l 1,9,-1
 36 308 l 1,10,-1
 36 316 l 1,11,-1
 52 332 l 1,12,-1
 60 332 l 1,13,-1
 76 316 l 1,14,-1
 80 304 l 1,15,-1
 80 48 l 1,16,-1
 76 36 l 1,17,-1
 64 32 l 1,0,-1
EndSplineSet
Validated: 1
EndChar

StartChar: j
Encoding: 106 106 77
Width: 208
GlyphClass: 2
Flags: W
LayerCount: 2
Fore
SplineSet
174 62 m 1,0,-1
 162 41 l 1,1,-1
 150 32 l 1,2,-1
 101 32 l 1,3,-1
 88 36 l 1,4,-1
 53 53 l 1,5,-1
 43 66 l 1,6,-1
 32 101 l 1,7,-1
 32 118 l 1,8,-1
 36 131 l 1,9,-1
 49 135 l 1,10,-1
 62 131 l 1,11,-1
 70 117 l 1,12,-1
 74 104 l 1,13,-1
 74 87 l 1,14,-1
 88 71 l 1,15,-1
 101 66 l 1,16,-1
 118 66 l 1,17,-1
 131 71 l 1,18,-1
 143 92 l 1,19,-1
 137 201 l 1,20,-1
 136 214 l 1,21,-1
 118 272 l 1,22,-1
 114 285 l 1,23,-1
 105 294 l 1,24,-1
 101 307 l 1,25,-1
 105 320 l 1,26,-1
 118 324 l 1,27,-1
 131 320 l 1,28,-1
 148 303 l 1,29,-1
 152 290 l 1,30,-1
 165 251 l 1,31,-1
 168 237 l 1,32,-1
 173 173 l 1,33,-1
 174 157 l 1,34,-1
 177 104 l 1,35,-1
 177 78 l 1,36,-1
 174 62 l 1,0,-1
EndSplineSet
Validated: 1
EndChar

StartChar: k
Encoding: 107 107 78
Width: 313
GlyphClass: 2
Flags: W
HStem: 0 323 64 21G<269 292>
VStem: 76 31<15 143>
LayerCount: 2
Fore
SplineSet
280 64 m 1,0,-1
 269 65 l 1,1,-1
 230 104 l 1,2,-1
 166 150 l 1,3,-1
 135 165 l 1,4,-1
 123 169 l 1,5,-1
 111 165 l 1,6,-1
 107 154 l 1,7,-1
 107 15 l 1,8,-1
 103 4 l 1,9,-1
 91 0 l 1,10,-1
 79 4 l 1,11,-1
 76 15 l 1,12,-1
 74 62 l 1,13,-1
 72 73 l 1,14,-1
 70 143 l 1,15,-1
 41 146 l 1,16,-1
 37 150 l 1,17,-1
 34 163 l 1,18,-1
 62 184 l 1,19,-1
 62 198 l 1,20,-1
 60 231 l 1,21,-1
 56 242 l 1,22,-1
 44 292 l 1,23,-1
 40 304 l 1,24,-1
 38 312 l 1,25,-1
 38 319 l 1,26,-1
 44 323 l 1,27,-1
 61 324 l 1,28,-1
 69 316 l 1,29,-1
 85 280 l 1,30,-1
 96 245 l 1,31,-1
 105 224 l 1,32,-1
 119 224 l 1,33,-1
 165 282 l 1,34,-1
 179 303 l 1,35,-1
 190 319 l 1,36,-1
 202 323 l 1,37,-1
 214 319 l 1,38,-1
 216 307 l 1,39,-1
 210 295 l 1,40,-1
 206 284 l 1,41,-1
 190 258 l 1,42,-1
 159 212 l 1,43,-1
 159 204 l 1,44,-1
 182 192 l 1,45,-1
 222 163 l 1,46,-1
 246 147 l 1,47,-1
 293 104 l 1,48,-1
 297 92 l 1,49,-1
 297 77 l 1,50,-1
 292 68 l 1,51,-1
 280 64 l 1,0,-1
EndSplineSet
Validated: 1
EndChar

StartChar: l
Encoding: 108 108 79
Width: 272
GlyphClass: 2
Flags: W
HStem: 46 15<212 220> 309 20G<52 76> 309 20G<52 76>
VStem: 44 36<97 301>
LayerCount: 2
Fore
SplineSet
220 69 m 1,0,-1
 212 69 l 1,1,-1
 212 61 l 1,2,-1
 220 61 l 1,3,-1
 220 69 l 1,0,-1
226 46 m 1,4,-1
 174 44 l 1,5,-1
 166 42 l 1,6,-1
 110 42 l 1,7,-1
 102 42 l 1,8,-1
 78 42 l 1,9,-1
 54 50 l 1,10,-1
 50 62 l 1,11,-1
 45 248 l 1,12,-1
 44 261 l 1,13,-1
 44 301 l 1,14,-1
 52 325 l 1,15,-1
 64 329 l 1,16,-1
 76 325 l 1,17,-1
 80 313 l 1,18,-1
 86 97 l 1,19,-1
 90 85 l 1,20,-1
 102 81 l 1,21,-1
 224 89 l 1,22,-1
 236 85 l 1,23,-1
 240 73 l 1,24,-1
 242 62 l 1,25,-1
 238 50 l 1,26,-1
 226 46 l 1,4,-1
EndSplineSet
Validated: 1
EndChar

StartChar: m
Encoding: 109 109 80
Width: 368
GlyphClass: 2
Flags: W
HStem: 23 269
VStem: 304 38<57 75>
LayerCount: 2
Fore
SplineSet
340 48 m 1,0,-1
 316 48 l 1,1,-1
 308 57 l 1,2,-1
 304 71 l 1,3,-1
 304 163 l 1,4,-1
 299 197 l 1,5,-1
 294 208 l 1,6,-1
 275 195 l 1,7,-1
 245 155 l 1,8,-1
 227 121 l 1,9,-1
 218 94 l 1,10,-1
 202 75 l 1,11,-1
 194 75 l 1,12,-1
 162 105 l 1,13,-1
 151 121 l 1,14,-1
 89 195 l 1,15,-1
 81 195 l 1,16,-1
 77 181 l 1,17,-1
 79 154 l 1,18,-1
 81 131 l 1,19,-1
 93 34 l 1,20,-1
 88 23 l 1,21,-1
 81 20 l 1,22,-1
 69 25 l 1,23,-1
 64 57 l 1,24,-1
 60 71 l 1,25,-1
 50 163 l 1,26,-1
 44 237 l 1,27,-1
 40 250 l 1,28,-1
 32 260 l 1,29,-1
 32 269 l 1,30,-1
 48 287 l 1,31,-1
 56 287 l 1,32,-1
 134 193 l 1,33,-1
 178 131 l 1,34,-1
 185 127 l 1,35,-1
 233 189 l 1,36,-1
 267 241 l 1,37,-1
 275 269 l 1,38,-1
 287 292 l 1,39,-1
 304 292 l 1,40,-1
 316 287 l 1,41,-1
 320 273 l 1,42,-1
 320 255 l 1,43,-1
 326 220 l 1,44,-1
 336 89 l 1,45,-1
 340 75 l 1,46,-1
 342 67 l 1,47,-1
 342 58 l 1,48,-1
 340 48 l 1,0,-1
EndSplineSet
Validated: 1
EndChar

StartChar: n
Encoding: 110 110 81
Width: 320
GlyphClass: 2
Flags: W
LayerCount: 2
Fore
SplineSet
290 57 m 1,0,-1
 280 52 l 1,1,-1
 272 52 l 1,2,-1
 264 76 l 1,3,-1
 233 105 l 1,4,-1
 206 120 l 1,5,-1
 174 140 l 1,6,-1
 88 204 l 1,7,-1
 80 204 l 1,8,-1
 76 192 l 1,9,-1
 77 113 l 1,10,-1
 80 100 l 1,11,-1
 88 44 l 1,12,-1
 84 32 l 1,13,-1
 60 33 l 1,14,-1
 52 48 l 1,15,-1
 52 70 l 1,16,-1
 46 108 l 1,17,-1
 44 128 l 1,18,-1
 40 220 l 1,19,-1
 40 244 l 1,20,-1
 40 252 l 1,21,-1
 32 260 l 1,22,-1
 32 268 l 1,23,-1
 48 284 l 1,24,-1
 56 284 l 1,25,-1
 88 252 l 1,26,-1
 128 212 l 1,27,-1
 176 180 l 1,28,-1
 208 164 l 1,29,-1
 240 148 l 1,30,-1
 248 148 l 1,31,-1
 252 160 l 1,32,-1
 250 173 l 1,33,-1
 245 203 l 1,34,-1
 241 215 l 1,35,-1
 229 263 l 1,36,-1
 225 275 l 1,37,-1
 220 320 l 1,38,-1
 224 332 l 1,39,-1
 236 332 l 1,40,-1
 248 316 l 1,41,-1
 256 292 l 1,42,-1
 259 279 l 1,43,-1
 268 256 l 1,44,-1
 272 244 l 1,45,-1
 284 192 l 1,46,-1
 296 83 l 1,47,-1
 296 68 l 1,48,-1
 290 57 l 1,0,-1
EndSplineSet
Validated: 1
EndChar

StartChar: o
Encoding: 111 111 82
Width: 281
GlyphClass: 2
Flags: W
LayerCount: 2
Fore
SplineSet
208 202 m 1,0,-1
 207 223 l 1,1,-1
 202 239 l 1,2,-1
 192 254 l 1,3,-1
 181 260 l 1,4,-1
 170 260 l 1,5,-1
 152 256 l 1,6,-1
 128 239 l 1,7,-1
 111 223 l 1,8,-1
 100 205 l 1,9,-1
 88 180 l 1,10,-1
 79 163 l 1,11,-1
 68 135 l 1,12,-1
 62 116 l 1,13,-1
 60 100 l 1,14,-1
 66 82 l 1,15,-1
 86 61 l 1,16,-1
 102 56 l 1,17,-1
 144 56 l 1,18,-1
 161 66 l 1,19,-1
 174 81 l 1,20,-1
 187 101 l 1,21,-1
 195 116 l 1,22,-1
 205 142 l 1,23,-1
 211 183 l 1,24,-1
 208 202 l 1,0,-1
238 128 m 1,25,-1
 233 112 l 1,26,-1
 228 98 l 1,27,-1
 213 73 l 1,28,-1
 187 40 l 1,29,-1
 178 32 l 1,30,-1
 168 27 l 1,31,-1
 111 23 l 1,32,-1
 97 26 l 1,33,-1
 77 31 l 1,34,-1
 45 52 l 1,35,-1
 32 71 l 1,36,-1
 28 87 l 1,37,-1
 25 120 l 1,38,-1
 33 152 l 1,39,-1
 41 171 l 1,40,-1
 54 194 l 1,41,-1
 122 285 l 1,42,-1
 137 292 l 1,43,-1
 153 295 l 1,44,-1
 171 291 l 1,45,-1
 217 273 l 1,46,-1
 229 262 l 1,47,-1
 239 239 l 1,48,-1
 246 219 l 1,49,-1
 246 159 l 1,50,-1
 243 145 l 1,51,-1
 238 128 l 1,25,-1
EndSplineSet
Validated: 1
EndChar

StartChar: p
Encoding: 112 112 83
Width: 250
GlyphClass: 2
Flags: W
LayerCount: 2
Fore
SplineSet
191 254 m 1,0,-1
 184 268 l 1,1,-1
 172 272 l 1,2,-1
 156 272 l 1,3,-1
 142 271 l 1,4,-1
 105 264 l 1,5,-1
 88 255 l 1,6,-1
 82 242 l 1,7,-1
 80 228 l 1,8,-1
 81 212 l 1,9,-1
 88 191 l 1,10,-1
 94 187 l 1,11,-1
 124 190 l 1,12,-1
 134 195 l 1,13,-1
 157 207 l 1,14,-1
 187 242 l 1,15,-1
 191 254 l 1,0,-1
224 252 m 1,16,-1
 216 230 l 1,17,-1
 152 164 l 1,18,-1
 120 148 l 1,19,-1
 96 140 l 1,20,-1
 92 128 l 1,21,-1
 92 112 l 1,22,-1
 98 83 l 1,23,-1
 99 70 l 1,24,-1
 102 31 l 1,25,-1
 98 19 l 1,26,-1
 86 15 l 1,27,-1
 74 19 l 1,28,-1
 70 31 l 1,29,-1
 69 44 l 1,30,-1
 64 71 l 1,31,-1
 62 87 l 1,32,-1
 59 110 l 1,33,-1
 56 124 l 1,34,-1
 52 148 l 1,35,-1
 40 156 l 1,36,-1
 33 160 l 1,37,-1
 32 172 l 1,38,-1
 40 180 l 1,39,-1
 48 184 l 1,40,-1
 44 320 l 1,41,-1
 48 332 l 1,42,-1
 60 336 l 1,43,-1
 72 332 l 1,44,-1
 76 320 l 1,45,-1
 76 304 l 1,46,-1
 80 292 l 1,47,-1
 92 291 l 1,48,-1
 128 300 l 1,49,-1
 140 302 l 1,50,-1
 188 304 l 1,51,-1
 200 300 l 1,52,-1
 208 292 l 1,53,-1
 223 265 l 1,54,-1
 224 252 l 1,16,-1
EndSplineSet
Validated: 1
EndChar

StartChar: q
Encoding: 113 113 84
Width: 283
GlyphClass: 2
Flags: W
LayerCount: 2
Fore
SplineSet
135 157 m 1,0,-1
 116 180 l 1,1,-1
 112 192 l 1,2,-1
 118 201 l 1,3,-1
 125 202 l 1,4,-1
 132 196 l 1,5,-1
 149 177 l 1,6,-1
 146 252 l 1,7,-1
 142 258 l 1,8,-1
 135 266 l 1,9,-1
 119 271 l 1,10,-1
 111 270 l 1,11,-1
 104 268 l 1,12,-1
 89 258 l 1,13,-1
 73 232 l 1,14,-1
 70 224 l 1,15,-1
 69 216 l 1,16,-1
 71 125 l 1,17,-1
 73 117 l 1,18,-1
 79 108 l 1,19,-1
 95 99 l 1,20,-1
 105 99 l 1,21,-1
 121 109 l 1,22,-1
 143 145 l 1,23,-1
 135 157 l 1,0,-1
260 36 m 1,24,-1
 184 105 l 1,25,-1
 174 111 l 1,26,-1
 158 125 l 1,27,-1
 148 108 l 1,28,-1
 130 84 l 1,29,-1
 108 68 l 1,30,-1
 96 65 l 1,31,-1
 81 67 l 1,32,-1
 51 87 l 1,33,-1
 44 97 l 1,34,-1
 40 108 l 1,35,-1
 32 208 l 1,36,-1
 35 226 l 1,37,-1
 42 244 l 1,38,-1
 65 280 l 1,39,-1
 86 295 l 1,40,-1
 100 299 l 1,41,-1
 137 299 l 1,42,-1
 149 293 l 1,43,-1
 166 269 l 1,44,-1
 170 257 l 1,45,-1
 173 158 l 1,46,-1
 180 148 l 1,47,-1
 268 60 l 1,48,-1
 272 48 l 1,49,-1
 268 36 l 1,50,-1
 260 36 l 1,24,-1
EndSplineSet
Validated: 1
EndChar

StartChar: r
Encoding: 114 114 85
Width: 263
GlyphClass: 2
Flags: W
LayerCount: 2
Fore
SplineSet
159 266 m 1,0,-1
 152 275 l 1,1,-1
 140 279 l 1,2,-1
 92 279 l 1,3,-1
 80 275 l 1,4,-1
 76 256 l 1,5,-1
 76 240 l 1,6,-1
 80 224 l 1,7,-1
 88 220 l 1,8,-1
 120 220 l 1,9,-1
 136 228 l 1,10,-1
 152 244 l 1,11,-1
 159 266 l 1,0,-1
240 36 m 1,12,-1
 229 41 l 1,13,-1
 180 105 l 1,14,-1
 135 156 l 1,15,-1
 116 170 l 1,16,-1
 97 174 l 1,17,-1
 91 172 l 1,18,-1
 92 160 l 1,19,-1
 96 83 l 1,20,-1
 101 56 l 1,21,-1
 105 44 l 1,22,-1
 106 30 l 1,23,-1
 104 20 l 1,24,-1
 92 16 l 1,25,-1
 80 20 l 1,26,-1
 76 32 l 1,27,-1
 72 42 l 1,28,-1
 66 82 l 1,29,-1
 64 100 l 1,30,-1
 62 113 l 1,31,-1
 55 168 l 1,32,-1
 51 180 l 1,33,-1
 48 196 l 1,34,-1
 44 240 l 1,35,-1
 46 276 l 1,36,-1
 51 298 l 1,37,-1
 60 304 l 1,38,-1
 156 304 l 1,39,-1
 168 300 l 1,40,-1
 184 284 l 1,41,-1
 188 272 l 1,42,-1
 188 256 l 1,43,-1
 184 244 l 1,44,-1
 156 212 l 1,45,-1
 138 201 l 1,46,-1
 128 196 l 1,47,-1
 215 107 l 1,48,-1
 227 89 l 1,49,-1
 248 60 l 1,50,-1
 252 48 l 1,51,-1
 248 36 l 1,52,-1
 240 36 l 1,12,-1
EndSplineSet
Validated: 1
EndChar

StartChar: s
Encoding: 115 115 86
Width: 192
GlyphClass: 2
Flags: W
LayerCount: 2
Fore
SplineSet
148 32 m 1,0,-1
 141 25 l 1,1,-1
 132 22 l 1,2,-1
 108 21 l 1,3,-1
 92 24 l 1,4,-1
 78 30 l 1,5,-1
 66 35 l 1,6,-1
 36 56 l 1,7,-1
 32 68 l 1,8,-1
 32 84 l 1,9,-1
 38 89 l 1,10,-1
 43 90 l 1,11,-1
 79 57 l 1,12,-1
 107 51 l 1,13,-1
 124 53 l 1,14,-1
 129 57 l 1,15,-1
 134 77 l 1,16,-1
 130 98 l 1,17,-1
 124 112 l 1,18,-1
 106 144 l 1,19,-1
 30 252 l 1,20,-1
 27 261 l 1,21,-1
 28 270 l 1,22,-1
 41 295 l 1,23,-1
 57 310 l 1,24,-1
 67 312 l 1,25,-1
 72 312 l 1,26,-1
 81 310 l 1,27,-1
 92 304 l 1,28,-1
 121 274 l 1,29,-1
 116 264 l 1,30,-1
 109 264 l 1,31,-1
 101 272 l 1,32,-1
 88 285 l 1,33,-1
 72 290 l 1,34,-1
 62 286 l 1,35,-1
 56 278 l 1,36,-1
 54 264 l 1,37,-1
 56 256 l 1,38,-1
 124 176 l 1,39,-1
 140 153 l 1,40,-1
 144 144 l 1,41,-1
 154 114 l 1,42,-1
 160 84 l 1,43,-1
 160 52 l 1,44,-1
 156 40 l 1,45,-1
 148 32 l 1,0,-1
EndSplineSet
Validated: 1
EndChar

StartChar: t
Encoding: 116 116 87
Width: 302
GlyphClass: 2
Flags: W
LayerCount: 2
Fore
SplineSet
267 273 m 1,0,-1
 191 266 l 1,1,-1
 179 262 l 1,2,-1
 163 242 l 1,3,-1
 166 207 l 1,4,-1
 167 199 l 1,5,-1
 175 112 l 1,6,-1
 179 98 l 1,7,-1
 185 85 l 1,8,-1
 188 70 l 1,9,-1
 188 32 l 1,10,-1
 187 21 l 1,11,-1
 175 16 l 1,12,-1
 163 21 l 1,13,-1
 155 31 l 1,14,-1
 155 49 l 1,15,-1
 152 64 l 1,16,-1
 148 79 l 1,17,-1
 143 93 l 1,18,-1
 132 194 l 1,19,-1
 129 218 l 1,20,-1
 126 236 l 1,21,-1
 123 249 l 1,22,-1
 112 251 l 1,23,-1
 17 247 l 1,24,-1
 5 252 l 1,25,-1
 5 262 l 1,26,-1
 15 278 l 1,27,-1
 37 281 l 1,28,-1
 112 285 l 1,29,-1
 129 288 l 1,30,-1
 132 300 l 1,31,-1
 143 305 l 1,32,-1
 159 305 l 1,33,-1
 161 300 l 1,34,-1
 169 290 l 1,35,-1
 185 291 l 1,36,-1
 196 294 l 1,37,-1
 211 297 l 1,38,-1
 270 305 l 1,39,-1
 282 300 l 1,40,-1
 286 285 l 1,41,-1
 279 278 l 1,42,-1
 267 273 l 1,0,-1
EndSplineSet
Validated: 1
EndChar

StartChar: u
Encoding: 117 117 88
Width: 216
GlyphClass: 2
Flags: W
LayerCount: 2
Fore
SplineSet
171 75 m 1,0,-1
 166 61 l 1,1,-1
 158 39 l 1,2,-1
 141 21 l 1,3,-1
 127 16 l 1,4,-1
 108 16 l 1,5,-1
 94 21 l 1,6,-1
 55 62 l 1,7,-1
 51 76 l 1,8,-1
 33 183 l 1,9,-1
 32 198 l 1,10,-1
 32 279 l 1,11,-1
 37 294 l 1,12,-1
 54 296 l 1,13,-1
 65 294 l 1,14,-1
 70 279 l 1,15,-1
 70 239 l 1,16,-1
 71 224 l 1,17,-1
 73 168 l 1,18,-1
 75 149 l 1,19,-1
 89 76 l 1,20,-1
 95 64 l 1,21,-1
 103 62 l 1,22,-1
 131 71 l 1,23,-1
 135 87 l 1,24,-1
 144 147 l 1,25,-1
 144 161 l 1,26,-1
 146 259 l 1,27,-1
 151 274 l 1,28,-1
 165 279 l 1,29,-1
 179 274 l 1,30,-1
 184 259 l 1,31,-1
 181 139 l 1,32,-1
 179 122 l 1,33,-1
 171 75 l 1,0,-1
EndSplineSet
Validated: 1
EndChar

StartChar: v
Encoding: 118 118 89
Width: 209
GlyphClass: 2
Flags: W
LayerCount: 2
Fore
SplineSet
182 208 m 1,0,-1
 174 128 l 1,1,-1
 172 116 l 1,2,-1
 157 71 l 1,3,-1
 153 59 l 1,4,-1
 140 36 l 1,5,-1
 128 32 l 1,6,-1
 116 36 l 1,7,-1
 96 80 l 1,8,-1
 90 91 l 1,9,-1
 84 100 l 1,10,-1
 76 124 l 1,11,-1
 64 160 l 1,12,-1
 53 190 l 1,13,-1
 49 202 l 1,14,-1
 30 272 l 1,15,-1
 35 281 l 1,16,-1
 39 284 l 1,17,-1
 47 284 l 1,18,-1
 56 266 l 1,19,-1
 67 227 l 1,20,-1
 80 192 l 1,21,-1
 84 180 l 1,22,-1
 100 148 l 1,23,-1
 112 112 l 1,24,-1
 116 100 l 1,25,-1
 124 91 l 1,26,-1
 140 100 l 1,27,-1
 144 112 l 1,28,-1
 151 182 l 1,29,-1
 152 194 l 1,30,-1
 160 256 l 1,31,-1
 164 268 l 1,32,-1
 176 272 l 1,33,-1
 185 266 l 1,34,-1
 189 260 l 1,35,-1
 182 208 l 1,0,-1
EndSplineSet
Validated: 1
EndChar

StartChar: w
Encoding: 119 119 90
Width: 359
GlyphClass: 2
Flags: W
LayerCount: 2
Fore
SplineSet
341 252 m 1,0,-1
 308 166 l 1,1,-1
 292 127 l 1,2,-1
 268 79 l 1,3,-1
 256 74 l 1,4,-1
 244 79 l 1,5,-1
 187 160 l 1,6,-1
 179 160 l 1,7,-1
 164 127 l 1,8,-1
 147 84 l 1,9,-1
 146 75 l 1,10,-1
 139 55 l 1,11,-1
 135 40 l 1,12,-1
 124 21 l 1,13,-1
 112 16 l 1,14,-1
 100 21 l 1,15,-1
 94 29 l 1,16,-1
 84 79 l 1,17,-1
 68 117 l 1,18,-1
 64 132 l 1,19,-1
 60 150 l 1,20,-1
 36 214 l 1,21,-1
 32 228 l 1,22,-1
 20 272 l 1,23,-1
 16 286 l 1,24,-1
 16 306 l 1,25,-1
 21 317 l 1,26,-1
 32 320 l 1,27,-1
 44 301 l 1,28,-1
 48 286 l 1,29,-1
 68 214 l 1,30,-1
 84 175 l 1,31,-1
 96 132 l 1,32,-1
 100 123 l 1,33,-1
 113 107 l 1,34,-1
 123 120 l 1,35,-1
 151 180 l 1,36,-1
 152 186 l 1,37,-1
 164 224 l 1,38,-1
 176 228 l 1,39,-1
 188 224 l 1,40,-1
 196 195 l 1,41,-1
 244 137 l 1,42,-1
 252 137 l 1,43,-1
 264 160 l 1,44,-1
 301 243 l 1,45,-1
 313 272 l 1,46,-1
 321 276 l 1,47,-1
 337 276 l 1,48,-1
 344 270 l 1,49,-1
 344 261 l 1,50,-1
 341 252 l 1,0,-1
EndSplineSet
Validated: 1
EndChar

StartChar: x
Encoding: 120 120 91
Width: 283
GlyphClass: 2
Flags: W
LayerCount: 2
Fore
SplineSet
257 34 m 1,0,-1
 243 36 l 1,1,-1
 215 76 l 1,2,-1
 142 159 l 1,3,-1
 135 163 l 1,4,-1
 99 126 l 1,5,-1
 71 86 l 1,6,-1
 58 61 l 1,7,-1
 49 36 l 1,8,-1
 37 32 l 1,9,-1
 20 32 l 1,10,-1
 6 53 l 1,11,-1
 13 68 l 1,12,-1
 22 76 l 1,13,-1
 38 98 l 1,14,-1
 56 120 l 1,15,-1
 65 134 l 1,16,-1
 104 185 l 1,17,-1
 110 195 l 1,18,-1
 104 216 l 1,19,-1
 100 228 l 1,20,-1
 83 262 l 1,21,-1
 58 289 l 1,22,-1
 53 299 l 1,23,-1
 59 308 l 1,24,-1
 71 312 l 1,25,-1
 83 312 l 1,26,-1
 95 296 l 1,27,-1
 125 237 l 1,28,-1
 140 212 l 1,29,-1
 144 214 l 1,30,-1
 180 276 l 1,31,-1
 184 279 l 1,32,-1
 198 280 l 1,33,-1
 208 265 l 1,34,-1
 208 257 l 1,35,-1
 176 212 l 1,36,-1
 166 197 l 1,37,-1
 163 182 l 1,38,-1
 174 168 l 1,39,-1
 210 120 l 1,40,-1
 268 57 l 1,41,-1
 273 49 l 1,42,-1
 269 36 l 1,43,-1
 257 34 l 1,0,-1
EndSplineSet
Validated: 1
EndChar

StartChar: y
Encoding: 121 121 92
Width: 305
GlyphClass: 2
Flags: W
LayerCount: 2
Fore
SplineSet
269 308 m 1,0,-1
 181 220 l 1,1,-1
 175 187 l 1,2,-1
 175 179 l 1,3,-1
 179 146 l 1,4,-1
 182 123 l 1,5,-1
 187 109 l 1,6,-1
 190 97 l 1,7,-1
 193 16 l 1,8,-1
 189 4 l 1,9,-1
 181 4 l 1,10,-1
 169 7 l 1,11,-1
 166 22 l 1,12,-1
 165 35 l 1,13,-1
 162 53 l 1,14,-1
 161 64 l 1,15,-1
 154 109 l 1,16,-1
 151 122 l 1,17,-1
 149 132 l 1,18,-1
 145 144 l 1,19,-1
 141 172 l 1,20,-1
 109 204 l 1,21,-1
 65 230 l 1,22,-1
 33 246 l 1,23,-1
 5 276 l 1,24,-1
 5 284 l 1,25,-1
 17 288 l 1,26,-1
 29 284 l 1,27,-1
 49 272 l 1,28,-1
 64 265 l 1,29,-1
 101 244 l 1,30,-1
 133 228 l 1,31,-1
 141 228 l 1,32,-1
 205 292 l 1,33,-1
 237 324 l 1,34,-1
 253 351 l 1,35,-1
 264 362 l 1,36,-1
 269 364 l 1,37,-1
 276 359 l 1,38,-1
 285 340 l 1,39,-1
 269 308 l 1,0,-1
EndSplineSet
Validated: 1
EndChar

StartChar: z
Encoding: 122 122 93
Width: 254
GlyphClass: 2
Flags: W
LayerCount: 2
Fore
SplineSet
226 44 m 1,0,-1
 219 41 l 1,1,-1
 207 39 l 1,2,-1
 191 39 l 1,3,-1
 179 41 l 1,4,-1
 154 36 l 1,5,-1
 110 32 l 1,6,-1
 98 28 l 1,7,-1
 62 16 l 1,8,-1
 50 20 l 1,9,-1
 34 36 l 1,10,-1
 34 44 l 1,11,-1
 50 60 l 1,12,-1
 69 68 l 1,13,-1
 73 80 l 1,14,-1
 78 112 l 1,15,-1
 82 124 l 1,16,-1
 98 156 l 1,17,-1
 105 165 l 1,18,-1
 154 260 l 1,19,-1
 158 272 l 1,20,-1
 155 287 l 1,21,-1
 143 291 l 1,22,-1
 111 291 l 1,23,-1
 99 287 l 1,24,-1
 87 282 l 1,25,-1
 67 279 l 1,26,-1
 43 279 l 1,27,-1
 35 279 l 1,28,-1
 24 290 l 1,29,-1
 24 298 l 1,30,-1
 30 304 l 1,31,-1
 44 309 l 1,32,-1
 55 311 l 1,33,-1
 64 311 l 1,34,-1
 76 315 l 1,35,-1
 158 320 l 1,36,-1
 170 324 l 1,37,-1
 178 332 l 1,38,-1
 190 336 l 1,39,-1
 202 332 l 1,40,-1
 206 320 l 1,41,-1
 202 308 l 1,42,-1
 194 300 l 1,43,-1
 190 288 l 1,44,-1
 190 272 l 1,45,-1
 186 260 l 1,46,-1
 174 224 l 1,47,-1
 162 204 l 1,48,-1
 146 172 l 1,49,-1
 130 140 l 1,50,-1
 114 108 l 1,51,-1
 110 96 l 1,52,-1
 110 80 l 1,53,-1
 114 68 l 1,54,-1
 127 66 l 1,55,-1
 138 68 l 1,56,-1
 147 72 l 1,57,-1
 159 76 l 1,58,-1
 222 80 l 1,59,-1
 234 76 l 1,60,-1
 238 64 l 1,61,-1
 234 52 l 1,62,-1
 226 44 l 1,0,-1
EndSplineSet
Validated: 1
EndChar

StartChar: braceleft
Encoding: 123 123 94
Width: 352
GlyphClass: 2
Flags: W
LayerCount: 2
Fore
SplineSet
298 13 m 1,0,-1
 278 1 l 1,1,-1
 266 -3 l 1,2,-1
 218 -3 l 1,3,-1
 190 1 l 1,4,-1
 174 17 l 1,5,-1
 157 45 l 1,6,-1
 150 59 l 1,7,-1
 142 90 l 1,8,-1
 138 109 l 1,9,-1
 140 224 l 1,10,-1
 136 236 l 1,11,-1
 120 252 l 1,12,-1
 108 256 l 1,13,-1
 60 256 l 1,14,-1
 48 260 l 1,15,-1
 32 276 l 1,16,-1
 32 284 l 1,17,-1
 44 288 l 1,18,-1
 97 302 l 1,19,-1
 118 316 l 1,20,-1
 137 330 l 1,21,-1
 151 342 l 1,22,-1
 156 352 l 1,23,-1
 156 368 l 1,24,-1
 152 380 l 1,25,-1
 143 406 l 1,26,-1
 139 418 l 1,27,-1
 133 443 l 1,28,-1
 131 465 l 1,29,-1
 126 497 l 1,30,-1
 125 558 l 1,31,-1
 129 587 l 1,32,-1
 135 601 l 1,33,-1
 145 619 l 1,34,-1
 209 683 l 1,35,-1
 221 687 l 1,36,-1
 233 683 l 1,37,-1
 237 671 l 1,38,-1
 233 659 l 1,39,-1
 207 646 l 1,40,-1
 197 635 l 1,41,-1
 189 627 l 1,42,-1
 177 614 l 1,43,-1
 170 601 l 1,44,-1
 159 579 l 1,45,-1
 155 562 l 1,46,-1
 157 543 l 1,47,-1
 161 531 l 1,48,-1
 167 509 l 1,49,-1
 171 497 l 1,50,-1
 182 423 l 1,51,-1
 186 392 l 1,52,-1
 188 368 l 1,53,-1
 189 356 l 1,54,-1
 189 342 l 1,55,-1
 186 328 l 1,56,-1
 180 316 l 1,57,-1
 170 304 l 1,58,-1
 140 288 l 1,59,-1
 163 262 l 1,60,-1
 168 252 l 1,61,-1
 172 240 l 1,62,-1
 180 178 l 1,63,-1
 180 152 l 1,64,-1
 185 91 l 1,65,-1
 190 65 l 1,66,-1
 213 34 l 1,67,-1
 234 29 l 1,68,-1
 246 33 l 1,69,-1
 278 49 l 1,70,-1
 286 57 l 1,71,-1
 298 61 l 1,72,-1
 310 57 l 1,73,-1
 314 45 l 1,74,-1
 314 29 l 1,75,-1
 310 17 l 1,76,-1
 298 13 l 1,0,-1
EndSplineSet
Validated: 1
EndChar

StartChar: bar
Encoding: 124 124 95
Width: 144
GlyphClass: 2
Flags: W
LayerCount: 2
Fore
SplineSet
97 60 m 1,0,-1
 90 53 l 1,1,-1
 78 50 l 1,2,-1
 67 53 l 1,3,-1
 59 74 l 1,4,-1
 51 80 l 1,5,-1
 47 91 l 1,6,-1
 44 451 l 1,7,-1
 44 467 l 1,8,-1
 36 507 l 1,9,-1
 32 538 l 1,10,-1
 32 565 l 1,11,-1
 36 575 l 1,12,-1
 51 589 l 1,13,-1
 63 592 l 1,14,-1
 74 589 l 1,15,-1
 78 578 l 1,16,-1
 78 565 l 1,17,-1
 82 555 l 1,18,-1
 89 478 l 1,19,-1
 92 468 l 1,20,-1
 97 451 l 1,21,-1
 101 414 l 1,22,-1
 101 75 l 1,23,-1
 97 60 l 1,0,-1
EndSplineSet
Validated: 1
EndChar

StartChar: braceright
Encoding: 125 125 96
Width: 272
GlyphClass: 2
Flags: W
LayerCount: 2
Fore
SplineSet
30 682 m 1,0,-1
 51 692 l 1,1,-1
 63 695 l 1,2,-1
 111 690 l 1,3,-1
 138 683 l 1,4,-1
 153 665 l 1,5,-1
 167 636 l 1,6,-1
 172 621 l 1,7,-1
 177 590 l 1,8,-1
 179 570 l 1,9,-1
 166 456 l 1,10,-1
 168 444 l 1,11,-1
 183 426 l 1,12,-1
 194 421 l 1,13,-1
 242 416 l 1,14,-1
 254 411 l 1,15,-1
 268 394 l 1,16,-1
 267 386 l 1,17,-1
 255 383 l 1,18,-1
 201 374 l 1,19,-1
 178 362 l 1,20,-1
 158 350 l 1,21,-1
 143 340 l 1,22,-1
 137 330 l 1,23,-1
 135 314 l 1,24,-1
 138 302 l 1,25,-1
 144 275 l 1,26,-1
 147 263 l 1,27,-1
 151 237 l 1,28,-1
 150 215 l 1,29,-1
 152 183 l 1,30,-1
 147 122 l 1,31,-1
 140 94 l 1,32,-1
 133 80 l 1,33,-1
 121 64 l 1,34,-1
 51 6 l 1,35,-1
 39 4 l 1,36,-1
 27 9 l 1,37,-1
 24 21 l 1,38,-1
 29 33 l 1,39,-1
 57 43 l 1,40,-1
 68 53 l 1,41,-1
 76 60 l 1,42,-1
 90 72 l 1,43,-1
 98 84 l 1,44,-1
 111 105 l 1,45,-1
 117 121 l 1,46,-1
 117 140 l 1,47,-1
 114 153 l 1,48,-1
 110 175 l 1,49,-1
 107 188 l 1,50,-1
 104 262 l 1,51,-1
 103 294 l 1,52,-1
 103 318 l 1,53,-1
 104 330 l 1,54,-1
 105 344 l 1,55,-1
 109 357 l 1,56,-1
 117 369 l 1,57,-1
 128 380 l 1,58,-1
 159 392 l 1,59,-1
 139 421 l 1,60,-1
 135 431 l 1,61,-1
 132 443 l 1,62,-1
 131 506 l 1,63,-1
 133 532 l 1,64,-1
 134 593 l 1,65,-1
 132 619 l 1,66,-1
 112 652 l 1,67,-1
 92 660 l 1,68,-1
 79 657 l 1,69,-1
 46 644 l 1,70,-1
 37 637 l 1,71,-1
 25 634 l 1,72,-1
 13 639 l 1,73,-1
 11 652 l 1,74,-1
 12 668 l 1,75,-1
 17 679 l 1,76,-1
 30 682 l 1,0,-1
EndSplineSet
Validated: 1
EndChar

StartChar: asciitilde
Encoding: 126 126 97
Width: 288
GlyphClass: 2
Flags: W
LayerCount: 2
Fore
SplineSet
244 284 m 1,0,-1
 220 260 l 1,1,-1
 208 256 l 1,2,-1
 196 260 l 1,3,-1
 154 310 l 1,4,-1
 134 338 l 1,5,-1
 101 376 l 1,6,-1
 84 380 l 1,7,-1
 70 373 l 1,8,-1
 57 340 l 1,9,-1
 55 323 l 1,10,-1
 55 306 l 1,11,-1
 36 308 l 1,12,-1
 32 320 l 1,13,-1
 32 352 l 1,14,-1
 36 364 l 1,15,-1
 45 382 l 1,16,-1
 67 405 l 1,17,-1
 84 412 l 1,18,-1
 96 414 l 1,19,-1
 108 412 l 1,20,-1
 155 359 l 1,21,-1
 172 332 l 1,22,-1
 180 319 l 1,23,-1
 192 306 l 1,24,-1
 208 304 l 1,25,-1
 226 319 l 1,26,-1
 230 343 l 1,27,-1
 228 387 l 1,28,-1
 226 403 l 1,29,-1
 229 412 l 1,30,-1
 238 422 l 1,31,-1
 246 422 l 1,32,-1
 250 410 l 1,33,-1
 257 316 l 1,34,-1
 252 292 l 1,35,-1
 244 284 l 1,0,-1
EndSplineSet
Validated: 1
EndChar

StartChar: exclamdown
Encoding: 161 161 98
Width: 112
GlyphClass: 2
Flags: W
LayerCount: 2
Fore
SplineSet
76 492 m 1,0,-1
 80 480 l 1,1,-1
 75 255 l 1,2,-1
 72 236 l 1,3,-1
 69 212 l 1,4,-1
 67 190 l 1,5,-1
 64 64 l 1,6,-1
 60 52 l 1,7,-1
 48 48 l 1,8,-1
 36 52 l 1,9,-1
 32 64 l 1,10,-1
 34 220 l 1,11,-1
 35 241 l 1,12,-1
 38 266 l 1,13,-1
 40 290 l 1,14,-1
 42 315 l 1,15,-1
 46 363 l 1,16,-1
 48 480 l 1,17,-1
 52 492 l 1,18,-1
 64 496 l 1,19,-1
 76 492 l 1,0,-1
76 620 m 1,20,-1
 80 608 l 1,21,-1
 80 592 l 1,22,-1
 76 580 l 1,23,-1
 64 576 l 1,24,-1
 48 576 l 1,25,-1
 36 580 l 1,26,-1
 32 592 l 1,27,-1
 36 604 l 1,28,-1
 52 620 l 1,29,-1
 64 624 l 1,30,-1
 76 620 l 1,20,-1
EndSplineSet
Validated: 1
EndChar

StartChar: cent
Encoding: 162 162 99
Width: 320
GlyphClass: 2
Flags: W
LayerCount: 2
Fore
SplineSet
176 336 m 1,0,-1
 176 400 l 1,1,-1
 173 421 l 1,2,-1
 157 419 l 1,3,-1
 144 416 l 1,4,-1
 132 412 l 1,5,-1
 100 396 l 1,6,-1
 68 369 l 1,7,-1
 65 357 l 1,8,-1
 68 345 l 1,9,-1
 83 327 l 1,10,-1
 96 320 l 1,11,-1
 120 313 l 1,12,-1
 134 310 l 1,13,-1
 148 308 l 1,14,-1
 160 309 l 1,15,-1
 174 315 l 1,16,-1
 176 336 l 1,0,-1
277 313 m 1,17,-1
 268 308 l 1,18,-1
 256 304 l 5,19,-1
 239 299 l 5,20,-1
 227 295 l 5,21,-1
 212 284 l 1,22,-1
 208 272 l 1,23,-1
 208 240 l 1,24,-1
 210 226 l 1,25,-1
 224 128 l 1,26,-1
 220 116 l 1,27,-1
 208 112 l 1,28,-1
 196 116 l 1,29,-1
 189 132 l 1,30,-1
 180 173 l 1,31,-1
 178 192 l 1,32,-1
 174 272 l 1,33,-1
 172 284 l 1,34,-1
 161 285 l 1,35,-1
 116 289 l 1,36,-1
 100 292 l 1,37,-1
 91 296 l 1,38,-1
 68 308 l 1,39,-1
 39 334 l 1,40,-1
 32 352 l 1,41,-1
 32 368 l 1,42,-1
 37 386 l 1,43,-1
 56 408 l 1,44,-1
 84 428 l 1,45,-1
 116 444 l 1,46,-1
 128 448 l 1,47,-1
 170 462 l 1,48,-1
 175 471 l 1,49,-1
 176 624 l 1,50,-1
 180 636 l 1,51,-1
 192 640 l 1,52,-1
 204 636 l 1,53,-1
 208 624 l 1,54,-1
 208 480 l 1,55,-1
 211 462 l 1,56,-1
 225 458 l 1,57,-1
 237 454 l 1,58,-1
 256 448 l 1,59,-1
 268 444 l 1,60,-1
 283 432 l 1,61,-1
 283 421 l 1,62,-1
 276 420 l 1,63,-1
 266 425 l 1,64,-1
 253 430 l 1,65,-1
 224 432 l 1,66,-1
 212 428 l 1,67,-1
 208 416 l 1,68,-1
 208 352 l 1,69,-1
 211 328 l 1,70,-1
 222 328 l 1,71,-1
 238 334 l 1,72,-1
 252 340 l 1,73,-1
 260 348 l 1,74,-1
 272 352 l 1,75,-1
 284 348 l 1,76,-1
 288 336 l 1,77,-1
 284 324 l 1,78,-1
 277 313 l 1,17,-1
EndSplineSet
Validated: 1
EndChar

StartChar: sterling
Encoding: 163 163 100
Width: 416
GlyphClass: 2
Flags: W
LayerCount: 2
Fore
SplineSet
240 592 m 1,0,-1
 230 584 l 1,1,-1
 200 553 l 1,2,-1
 188 532 l 1,3,-1
 176 496 l 1,4,-1
 172 484 l 1,5,-1
 160 432 l 1,6,-1
 164 420 l 1,7,-1
 176 416 l 1,8,-1
 224 416 l 1,9,-1
 236 412 l 1,10,-1
 240 400 l 1,11,-1
 236 388 l 1,12,-1
 224 384 l 1,13,-1
 160 384 l 1,14,-1
 153 379 l 1,15,-1
 149 367 l 1,16,-1
 151 340 l 1,17,-1
 153 323 l 1,18,-1
 153 314 l 1,19,-1
 148 284 l 1,20,-1
 147 272 l 1,21,-1
 144 224 l 1,22,-1
 140 212 l 1,23,-1
 132 212 l 1,24,-1
 128 224 l 1,25,-1
 128 368 l 1,26,-1
 123 376 l 1,27,-1
 111 380 l 1,28,-1
 79 380 l 1,29,-1
 67 376 l 1,30,-1
 57 374 l 1,31,-1
 45 373 l 1,32,-1
 33 377 l 1,33,-1
 32 384 l 1,34,-1
 36 396 l 1,35,-1
 48 400 l 1,36,-1
 112 400 l 1,37,-1
 124 404 l 1,38,-1
 128 416 l 1,39,-1
 130 460 l 1,40,-1
 132 476 l 1,41,-1
 144 512 l 1,42,-1
 148 524 l 1,43,-1
 164 556 l 1,44,-1
 174 576 l 1,45,-1
 198 602 l 1,46,-1
 228 620 l 1,47,-1
 240 624 l 1,48,-1
 252 620 l 1,49,-1
 256 608 l 1,50,-1
 252 596 l 1,51,-1
 240 592 l 1,0,-1
372 124 m 1,52,-1
 358 106 l 1,53,-1
 336 96 l 1,54,-1
 258 98 l 1,55,-1
 244 100 l 1,56,-1
 208 112 l 1,57,-1
 196 119 l 1,58,-1
 188 124 l 1,59,-1
 176 128 l 1,60,-1
 160 128 l 1,61,-1
 148 124 l 1,62,-1
 124 100 l 1,63,-1
 101 89 l 1,64,-1
 92 84 l 1,65,-1
 80 80 l 1,66,-1
 64 80 l 1,67,-1
 52 84 l 1,68,-1
 48 96 l 1,69,-1
 52 108 l 1,70,-1
 68 124 l 1,71,-1
 92 132 l 1,72,-1
 140 180 l 1,73,-1
 148 204 l 1,74,-1
 156 204 l 1,75,-1
 160 192 l 1,76,-1
 160 176 l 1,77,-1
 164 164 l 1,78,-1
 176 160 l 1,79,-1
 191 160 l 1,80,-1
 204 156 l 1,81,-1
 214 153 l 1,82,-1
 236 140 l 1,83,-1
 244 135 l 1,84,-1
 256 130 l 1,85,-1
 320 128 l 1,86,-1
 332 132 l 1,87,-1
 359 161 l 1,88,-1
 365 176 l 1,89,-1
 368 192 l 1,90,-1
 372 204 l 1,91,-1
 380 204 l 1,92,-1
 384 192 l 1,93,-1
 384 144 l 1,94,-1
 380 132 l 1,95,-1
 372 124 l 1,52,-1
EndSplineSet
Validated: 1
EndChar

StartChar: dieresis
Encoding: 168 168 101
Width: 207
GlyphClass: 2
Flags: W
LayerCount: 2
Fore
SplineSet
121 323 m 1,0,-1
 116 329 l 1,1,-1
 113 338 l 1,2,-1
 116 348 l 1,3,-1
 124 350 l 1,4,-1
 147 350 l 1,5,-1
 156 348 l 1,6,-1
 159 338 l 1,7,-1
 156 329 l 1,8,-1
 144 317 l 1,9,-1
 136 313 l 1,10,-1
 127 317 l 1,11,-1
 121 323 l 1,0,-1
41 321 m 1,12,-1
 36 327 l 1,13,-1
 33 336 l 1,14,-1
 36 346 l 1,15,-1
 45 348 l 1,16,-1
 53 352 l 1,17,-1
 59 358 l 1,18,-1
 64 358 l 1,19,-1
 76 346 l 1,20,-1
 79 336 l 1,21,-1
 76 327 l 1,22,-1
 64 314 l 1,23,-1
 56 311 l 1,24,-1
 47 314 l 1,25,-1
 41 321 l 1,12,-1
EndSplineSet
Validated: 1
EndChar

StartChar: copyright
Encoding: 169 169 102
Width: 102
GlyphClass: 2
Flags: W
LayerCount: 2
Fore
SplineSet
80 50 m 1,0,-1
 79 59 l 1,1,-1
 75 69 l 1,2,-1
 72 73 l 1,3,-1
 59 81 l 1,4,-1
 48 82 l 1,5,-1
 37 79 l 1,6,-1
 32 78 l 1,7,-1
 24 73 l 1,8,-1
 23 69 l 1,9,-1
 19 54 l 1,10,-1
 18 50 l 1,11,-1
 18 44 l 1,12,-1
 18 36 l 1,13,-1
 16 30 l 1,14,-1
 18 26 l 1,15,-1
 18 20 l 1,16,-1
 20 17 l 1,17,-1
 24 11 l 1,18,-1
 34 7 l 1,19,-1
 39 6 l 1,20,-1
 42 6 l 1,21,-1
 57 11 l 1,22,-1
 72 20 l 1,23,-1
 73 25 l 1,24,-1
 76 38 l 1,25,-1
 78 42 l 1,26,-1
 78 45 l 1,27,-1
 80 50 l 1,0,-1
77 20 m 1,28,-1
 75 19 l 1,29,-1
 59 6 l 1,30,-1
 53 2 l 1,31,-1
 49 1 l 1,32,-1
 35 1 l 1,33,-1
 32 2 l 1,34,-1
 24 6 l 1,35,-1
 14 15 l 1,36,-1
 13 18 l 1,37,-1
 13 48 l 1,38,-1
 13 55 l 1,39,-1
 15 69 l 1,40,-1
 16 71 l 1,41,-1
 27 80 l 1,42,-1
 35 86 l 1,43,-1
 39 87 l 1,44,-1
 50 87 l 1,45,-1
 54 86 l 1,46,-1
 57 86 l 1,47,-1
 60 84 l 1,48,-1
 66 82 l 1,49,-1
 71 81 l 1,50,-1
 79 73 l 1,51,-1
 80 69 l 1,52,-1
 84 42 l 1,53,-1
 83 38 l 1,54,-1
 77 20 l 1,28,-1
53 22 m 1,55,-1
 49 21 l 1,56,-1
 47 22 l 1,57,-1
 44 24 l 1,58,-1
 41 25 l 1,59,-1
 37 30 l 1,60,-1
 32 43 l 1,61,-1
 31 45 l 1,62,-1
 32 53 l 1,63,-1
 33 55 l 1,64,-1
 36 60 l 1,65,-1
 40 64 l 1,66,-1
 44 66 l 1,67,-1
 46 68 l 1,68,-1
 50 68 l 1,69,-1
 52 68 l 1,70,-1
 53 66 l 1,71,-1
 52 64 l 1,72,-1
 50 63 l 1,73,-1
 47 63 l 1,74,-1
 45 62 l 1,75,-1
 42 60 l 1,76,-1
 40 57 l 1,77,-1
 39 53 l 1,78,-1
 37 50 l 1,79,-1
 37 41 l 1,80,-1
 38 38 l 1,81,-1
 41 32 l 1,82,-1
 46 27 l 1,83,-1
 48 27 l 1,84,-1
 53 27 l 1,85,-1
 54 26 l 1,86,-1
 55 24 l 1,87,-1
 54 23 l 1,88,-1
 53 22 l 1,55,-1
EndSplineSet
Validated: 1
EndChar

StartChar: logicalnot
Encoding: 172 172 103
Width: 480
GlyphClass: 2
Flags: W
LayerCount: 2
Fore
SplineSet
425 279 m 1,0,-1
 415 280 l 1,1,-1
 400 292 l 1,2,-1
 396 304 l 1,3,-1
 392 334 l 1,4,-1
 388 346 l 1,5,-1
 384 356 l 1,6,-1
 381 370 l 1,7,-1
 380 416 l 1,8,-1
 376 428 l 1,9,-1
 364 432 l 1,10,-1
 348 432 l 1,11,-1
 336 428 l 1,12,-1
 328 420 l 1,13,-1
 316 416 l 1,14,-1
 264 404 l 1,15,-1
 256 404 l 1,16,-1
 220 400 l 1,17,-1
 71 386 l 1,18,-1
 60 384 l 1,19,-1
 48 388 l 1,20,-1
 32 404 l 1,21,-1
 32 412 l 1,22,-1
 48 428 l 1,23,-1
 70 439 l 1,24,-1
 79 441 l 1,25,-1
 120 444 l 1,26,-1
 160 446 l 1,27,-1
 172 448 l 1,28,-1
 288 460 l 1,29,-1
 299 461 l 1,30,-1
 348 464 l 1,31,-1
 378 460 l 1,32,-1
 393 458 l 1,33,-1
 406 456 l 1,34,-1
 411 453 l 1,35,-1
 419 425 l 1,36,-1
 424 412 l 1,37,-1
 426 397 l 1,38,-1
 431 305 l 1,39,-1
 432 292 l 1,40,-1
 425 279 l 1,0,-1
EndSplineSet
Validated: 1
EndChar

StartChar: registered
Encoding: 174 174 104
Width: 109
GlyphClass: 2
Flags: W
LayerCount: 2
Fore
SplineSet
62 56 m 1,0,-1
 62 57 l 1,1,-1
 60 58 l 1,2,-1
 52 58 l 1,3,-1
 51 57 l 1,4,-1
 50 54 l 1,5,-1
 50 52 l 1,6,-1
 51 49 l 1,7,-1
 52 48 l 1,8,-1
 57 48 l 1,9,-1
 59 50 l 1,10,-1
 62 52 l 1,11,-1
 62 56 l 1,0,-1
76 20 m 1,12,-1
 74 20 l 1,13,-1
 66 31 l 1,14,-1
 59 38 l 1,15,-1
 56 40 l 1,16,-1
 53 41 l 1,17,-1
 52 41 l 1,18,-1
 52 39 l 1,19,-1
 53 27 l 1,20,-1
 54 23 l 1,21,-1
 54 21 l 1,22,-1
 55 19 l 1,23,-1
 54 18 l 1,24,-1
 52 17 l 1,25,-1
 51 18 l 1,26,-1
 50 19 l 1,27,-1
 49 21 l 1,28,-1
 49 27 l 1,29,-1
 48 30 l 1,30,-1
 48 32 l 1,31,-1
 46 40 l 1,32,-1
 46 42 l 1,33,-1
 46 45 l 1,34,-1
 45 52 l 1,35,-1
 45 57 l 1,36,-1
 46 61 l 1,37,-1
 47 61 l 1,38,-1
 62 61 l 1,39,-1
 64 61 l 1,40,-1
 67 59 l 1,41,-1
 67 56 l 1,42,-1
 67 54 l 1,43,-1
 67 52 l 1,44,-1
 62 47 l 1,45,-1
 60 45 l 1,46,-1
 58 45 l 1,47,-1
 72 31 l 1,48,-1
 74 28 l 1,49,-1
 76 24 l 1,50,-1
 77 22 l 1,51,-1
 76 20 l 1,52,-1
 76 20 l 1,12,-1
95 43 m 1,53,-1
 94 54 l 1,54,-1
 89 65 l 1,55,-1
 85 70 l 1,56,-1
 71 78 l 1,57,-1
 59 79 l 1,58,-1
 47 76 l 1,59,-1
 41 75 l 1,60,-1
 33 70 l 1,61,-1
 31 65 l 1,62,-1
 27 48 l 1,63,-1
 26 43 l 1,64,-1
 25 37 l 1,65,-1
 25 28 l 1,66,-1
 24 22 l 1,67,-1
 25 17 l 1,68,-1
 26 11 l 1,69,-1
 28 7 l 1,70,-1
 33 0 l 1,71,-1
 43 -5 l 1,72,-1
 49 -5 l 1,73,-1
 53 -5 l 1,74,-1
 69 0 l 1,75,-1
 85 11 l 1,76,-1
 87 15 l 1,77,-1
 90 30 l 1,78,-1
 93 34 l 1,79,-1
 93 38 l 1,80,-1
 95 43 l 1,53,-1
92 11 m 1,81,-1
 90 9 l 1,82,-1
 72 -5 l 1,83,-1
 65 -10 l 1,84,-1
 60 -11 l 1,85,-1
 44 -11 l 1,86,-1
 41 -10 l 1,87,-1
 33 -5 l 1,88,-1
 21 4 l 1,89,-1
 19 8 l 1,90,-1
 19 42 l 1,91,-1
 19 50 l 1,92,-1
 22 65 l 1,93,-1
 24 67 l 1,94,-1
 35 77 l 1,95,-1
 44 84 l 1,96,-1
 49 86 l 1,97,-1
 61 86 l 1,98,-1
 65 84 l 1,99,-1
 69 84 l 1,100,-1
 73 82 l 1,101,-1
 79 80 l 1,102,-1
 85 78 l 1,103,-1
 94 69 l 1,104,-1
 95 65 l 1,105,-1
 99 34 l 1,106,-1
 99 30 l 1,107,-1
 92 11 l 1,81,-1
EndSplineSet
Validated: 5
EndChar

StartChar: plusminus
Encoding: 177 177 105
Width: 448
GlyphClass: 2
Flags: W
LayerCount: 2
Fore
SplineSet
360 108 m 1,0,-1
 352 100 l 1,1,-1
 340 96 l 1,2,-1
 164 96 l 1,3,-1
 152 100 l 1,4,-1
 142 104 l 1,5,-1
 130 108 l 1,6,-1
 100 112 l 1,7,-1
 88 116 l 1,8,-1
 84 128 l 1,9,-1
 88 140 l 1,10,-1
 114 146 l 1,11,-1
 135 146 l 1,12,-1
 148 144 l 1,13,-1
 356 144 l 1,14,-1
 368 140 l 1,15,-1
 372 128 l 1,16,-1
 368 116 l 1,17,-1
 360 108 l 1,0,-1
400 348 m 1,18,-1
 392 340 l 1,19,-1
 380 336 l 1,20,-1
 268 336 l 1,21,-1
 256 332 l 1,22,-1
 252 320 l 1,23,-1
 252 240 l 1,24,-1
 256 228 l 1,25,-1
 264 220 l 1,26,-1
 268 208 l 1,27,-1
 264 196 l 1,28,-1
 248 180 l 1,29,-1
 240 180 l 1,30,-1
 236 192 l 1,31,-1
 236 208 l 1,32,-1
 232 220 l 1,33,-1
 224 228 l 1,34,-1
 216 252 l 1,35,-1
 200 332 l 1,36,-1
 188 336 l 1,37,-1
 44 336 l 1,38,-1
 32 340 l 1,39,-1
 32 348 l 1,40,-1
 48 364 l 1,41,-1
 72 372 l 1,42,-1
 80 380 l 1,43,-1
 92 384 l 1,44,-1
 172 384 l 1,45,-1
 184 388 l 1,46,-1
 188 400 l 1,47,-1
 188 464 l 1,48,-1
 192 476 l 1,49,-1
 200 484 l 1,50,-1
 204 496 l 1,51,-1
 204 512 l 1,52,-1
 208 524 l 1,53,-1
 216 524 l 1,54,-1
 232 508 l 1,55,-1
 236 496 l 1,56,-1
 236 416 l 1,57,-1
 240 404 l 1,58,-1
 256 388 l 1,59,-1
 268 384 l 1,60,-1
 284 384 l 1,61,-1
 348 384 l 1,62,-1
 364 384 l 1,63,-1
 376 388 l 1,64,-1
 384 396 l 1,65,-1
 392 396 l 1,66,-1
 408 380 l 1,67,-1
 412 368 l 1,68,-1
 408 356 l 1,69,-1
 400 348 l 1,18,-1
EndSplineSet
EndChar

StartChar: acute
Encoding: 180 180 106
Width: 166
GlyphClass: 2
Flags: W
LayerCount: 2
Fore
SplineSet
81 521 m 1,0,-1
 79 513 l 1,1,-1
 73 501 l 1,2,-1
 69 493 l 1,3,-1
 52 472 l 1,4,-1
 49 464 l 1,5,-1
 39 454 l 1,6,-1
 34 454 l 1,7,-1
 32 462 l 1,8,-1
 32 481 l 1,9,-1
 34 489 l 1,10,-1
 42 501 l 1,11,-1
 46 508 l 1,12,-1
 60 532 l 1,13,-1
 64 538 l 1,14,-1
 74 548 l 1,15,-1
 79 548 l 1,16,-1
 88 538 l 1,17,-1
 88 533 l 1,18,-1
 81 521 l 1,0,-1
EndSplineSet
Validated: 1
EndChar

StartChar: cedilla
Encoding: 184 184 107
Width: 161
GlyphClass: 2
Flags: W
LayerCount: 2
Fore
SplineSet
82 21 m 1,0,-1
 108 13 l 1,1,-1
 98 12 l 1,2,-1
 96 5 l 1,3,-1
 104 1 l 1,4,-1
 117 -2 l 1,5,-1
 124 -5 l 1,6,-1
 131 -19 l 1,7,-1
 134 -28 l 1,8,-1
 129 -41 l 1,9,-1
 123 -46 l 1,10,-1
 91 -66 l 1,11,-1
 82 -67 l 1,12,-1
 69 -64 l 1,13,-1
 62 -60 l 1,14,-1
 53 -45 l 1,15,-1
 53 -37 l 1,16,-1
 59 -30 l 1,17,-1
 65 -30 l 1,18,-1
 69 -37 l 1,19,-1
 76 -41 l 1,20,-1
 87 -40 l 1,21,-1
 103 -32 l 1,22,-1
 104 -25 l 1,23,-1
 97 -22 l 1,24,-1
 84 -19 l 1,25,-1
 76 -14 l 1,26,-1
 69 0 l 1,27,-1
 66 8 l 1,28,-1
 74 16 l 1,29,-1
 82 21 l 1,0,-1
EndSplineSet
Validated: 1
EndChar

StartChar: questiondown
Encoding: 191 191 109
Width: 350
GlyphClass: 2
Flags: W
LayerCount: 2
Fore
SplineSet
165 495 m 1,0,-1
 161 482 l 1,1,-1
 153 472 l 1,2,-1
 140 468 l 1,3,-1
 122 468 l 1,4,-1
 108 472 l 1,5,-1
 104 486 l 1,6,-1
 104 522 l 1,7,-1
 108 535 l 1,8,-1
 122 540 l 1,9,-1
 140 540 l 1,10,-1
 153 535 l 1,11,-1
 171 517 l 1,12,-1
 171 508 l 1,13,-1
 165 495 l 1,0,-1
308 64 m 1,14,-1
 302 54 l 1,15,-1
 297 40 l 1,16,-1
 292 30 l 1,17,-1
 284 18 l 1,18,-1
 277 5 l 1,19,-1
 268 -4 l 1,20,-1
 255 -14 l 1,21,-1
 225 -32 l 1,22,-1
 212 -36 l 1,23,-1
 140 -36 l 1,24,-1
 126 -32 l 1,25,-1
 113 -30 l 1,26,-1
 100 -25 l 1,27,-1
 86 -18 l 1,28,-1
 72 -11 l 1,29,-1
 36 22 l 1,30,-1
 32 36 l 1,31,-1
 36 49 l 1,32,-1
 40 61 l 1,33,-1
 45 72 l 1,34,-1
 54 85 l 1,35,-1
 89 117 l 1,36,-1
 104 126 l 1,37,-1
 144 139 l 1,38,-1
 158 144 l 1,39,-1
 171 148 l 1,40,-1
 176 162 l 1,41,-1
 170 245 l 1,42,-1
 166 263 l 1,43,-1
 162 274 l 1,44,-1
 158 288 l 1,45,-1
 155 323 l 1,46,-1
 153 337 l 1,47,-1
 153 364 l 1,48,-1
 158 378 l 1,49,-1
 162 391 l 1,50,-1
 171 391 l 1,51,-1
 189 373 l 1,52,-1
 194 360 l 1,53,-1
 210 255 l 1,54,-1
 212 234 l 1,55,-1
 212 126 l 1,56,-1
 207 112 l 1,57,-1
 194 108 l 1,58,-1
 158 108 l 1,59,-1
 144 103 l 1,60,-1
 121 92 l 1,61,-1
 108 85 l 1,62,-1
 93 66 l 1,63,-1
 86 54 l 1,64,-1
 81 40 l 1,65,-1
 79 28 l 1,66,-1
 79 19 l 1,67,-1
 86 9 l 1,68,-1
 104 0 l 1,69,-1
 135 -5 l 1,70,-1
 153 -5 l 1,71,-1
 180 -5 l 1,72,-1
 195 -4 l 1,73,-1
 212 0 l 1,74,-1
 223 5 l 1,75,-1
 259 41 l 1,76,-1
 266 54 l 1,77,-1
 270 67 l 1,78,-1
 274 78 l 1,79,-1
 280 91 l 1,80,-1
 287 102 l 1,81,-1
 298 109 l 1,82,-1
 311 104 l 1,83,-1
 316 91 l 1,84,-1
 315 76 l 1,85,-1
 308 64 l 1,14,-1
EndSplineSet
Validated: 1
EndChar

StartChar: Ccedilla
Encoding: 199 199 117
Width: 320
GlyphClass: 2
Flags: W
LayerCount: 2
Fore
SplineSet
154 35 m 1,0,-1
 180 27 l 1,1,-1
 170 26 l 1,2,-1
 168 19 l 1,3,-1
 176 15 l 1,4,-1
 189 12 l 1,5,-1
 196 9 l 1,6,-1
 203 -5 l 1,7,-1
 206 -14 l 1,8,-1
 201 -27 l 1,9,-1
 195 -32 l 1,10,-1
 163 -52 l 1,11,-1
 154 -53 l 1,12,-1
 141 -50 l 1,13,-1
 134 -46 l 1,14,-1
 125 -31 l 1,15,-1
 125 -23 l 1,16,-1
 131 -16 l 1,17,-1
 137 -16 l 1,18,-1
 141 -23 l 1,19,-1
 148 -27 l 1,20,-1
 159 -26 l 1,21,-1
 175 -18 l 1,22,-1
 176 -11 l 1,23,-1
 169 -8 l 1,24,-1
 156 -5 l 1,25,-1
 148 0 l 1,26,-1
 141 14 l 1,27,-1
 138 22 l 1,28,-1
 146 30 l 1,29,-1
 154 35 l 1,0,-1
276 28 m 1,30,-1
 268 20 l 1,31,-1
 256 16 l 1,32,-1
 209 17 l 1,33,-1
 196 20 l 1,34,-1
 176 26 l 1,35,-1
 155 34 l 1,36,-1
 129 43 l 1,37,-1
 83 78 l 1,38,-1
 56 113 l 1,39,-1
 44 147 l 1,40,-1
 38 173 l 1,41,-1
 35 196 l 1,42,-1
 33 211 l 1,43,-1
 26 263 l 1,44,-1
 30 321 l 1,45,-1
 31 337 l 1,46,-1
 40 375 l 1,47,-1
 53 411 l 1,48,-1
 70 440 l 1,49,-1
 115 491 l 1,50,-1
 144 514 l 1,51,-1
 163 523 l 1,52,-1
 188 529 l 1,53,-1
 204 530 l 1,54,-1
 224 528 l 1,55,-1
 236 524 l 1,56,-1
 236 516 l 1,57,-1
 220 500 l 1,58,-1
 208 496 l 1,59,-1
 196 493 l 1,60,-1
 184 489 l 1,61,-1
 172 484 l 1,62,-1
 128 440 l 1,63,-1
 107 410 l 1,64,-1
 93 377 l 1,65,-1
 89 365 l 1,66,-1
 79 312 l 1,67,-1
 81 292 l 1,68,-1
 94 165 l 1,69,-1
 111 128 l 1,70,-1
 122 113 l 1,71,-1
 146 97 l 1,72,-1
 172 85 l 1,73,-1
 187 81 l 1,74,-1
 215 75 l 1,75,-1
 239 72 l 1,76,-1
 256 64 l 1,77,-1
 268 60 l 1,78,-1
 284 44 l 1,79,-1
 284 36 l 1,80,-1
 276 28 l 1,30,-1
EndSplineSet
Validated: 5
EndChar

StartChar: Eth
Encoding: 208 208 126
Width: 352
GlyphClass: 2
Flags: W
LayerCount: 2
Fore
SplineSet
280 385 m 1,0,-1
 277 446 l 1,1,-1
 273 458 l 1,2,-1
 257 476 l 1,3,-1
 230 493 l 1,4,-1
 199 501 l 1,5,-1
 174 500 l 1,6,-1
 139 498 l 1,7,-1
 126 497 l 1,8,-1
 95 491 l 1,9,-1
 89 487 l 1,10,-1
 84 482 l 1,11,-1
 90 154 l 1,12,-1
 91 137 l 1,13,-1
 92 112 l 1,14,-1
 96 100 l 1,15,-1
 117 98 l 1,16,-1
 153 115 l 1,17,-1
 165 124 l 1,18,-1
 196 159 l 1,19,-1
 221 199 l 1,20,-1
 243 246 l 1,21,-1
 265 302 l 1,22,-1
 273 333 l 1,23,-1
 280 385 l 1,0,-1
312 324 m 1,24,-1
 299 272 l 1,25,-1
 289 243 l 1,26,-1
 278 213 l 1,27,-1
 260 173 l 1,28,-1
 236 133 l 1,29,-1
 200 98 l 1,30,-1
 137 56 l 1,31,-1
 108 48 l 1,32,-1
 92 48 l 1,33,-1
 67 50 l 1,34,-1
 57 59 l 1,35,-1
 48 114 l 1,36,-1
 48 306 l 1,37,-1
 48 354 l 1,38,-1
 48 482 l 1,39,-1
 48 500 l 1,40,-1
 40 524 l 1,41,-1
 32 532 l 1,42,-1
 32 540 l 1,43,-1
 40 550 l 1,44,-1
 48 550 l 1,45,-1
 64 548 l 1,46,-1
 76 544 l 1,47,-1
 161 550 l 1,48,-1
 174 548 l 1,49,-1
 182 546 l 1,50,-1
 201 544 l 1,51,-1
 217 538 l 1,52,-1
 229 534 l 1,53,-1
 248 527 l 1,54,-1
 267 516 l 1,55,-1
 277 511 l 1,56,-1
 299 493 l 1,57,-1
 312 476 l 1,58,-1
 320 454 l 1,59,-1
 322 405 l 1,60,-1
 317 366 l 1,61,-1
 312 324 l 1,24,-1
194 317 m 1,62,-1
 186 309 l 1,63,-1
 174 305 l 1,64,-1
 126 305 l 1,65,-1
 114 301 l 1,66,-1
 106 293 l 1,67,-1
 94 289 l 1,68,-1
 62 289 l 1,69,-1
 50 285 l 1,70,-1
 42 277 l 1,71,-1
 30 273 l 1,72,-1
 14 273 l 1,73,-1
 2 277 l 1,74,-1
 -2 289 l 1,75,-1
 2 301 l 1,76,-1
 14 305 l 1,77,-1
 30 305 l 1,78,-1
 42 309 l 1,79,-1
 50 317 l 1,80,-1
 62 321 l 1,81,-1
 94 321 l 1,82,-1
 106 325 l 1,83,-1
 114 333 l 1,84,-1
 126 337 l 1,85,-1
 190 337 l 1,86,-1
 202 333 l 1,87,-1
 202 325 l 1,88,-1
 194 317 l 1,62,-1
EndSplineSet
Validated: 5
EndChar

StartChar: Ntilde
Encoding: 209 209 127
Width: 384
GlyphClass: 2
Flags: W
LayerCount: 2
Fore
SplineSet
240 535 m 5,0,-1
 225 520 l 5,1,-1
 217 518 l 5,2,-1
 210 520 l 5,3,-1
 183 552 l 1,4,-1
 171 569 l 1,5,-1
 150 593 l 1,6,-1
 139 596 l 1,7,-1
 131 591 l 1,8,-1
 122 571 l 1,9,-1
 121 560 l 1,10,-1
 121 549 l 1,11,-1
 109 551 l 1,12,-1
 107 558 l 1,13,-1
 107 578 l 1,14,-1
 109 586 l 1,15,-1
 115 597 l 1,16,-1
 129 611 l 1,17,-1
 139 616 l 1,18,-1
 147 617 l 1,19,-1
 154 616 l 1,20,-1
 184 583 l 1,21,-1
 195 566 l 1,22,-1
 200 557 l 1,23,-1
 207 549 l 5,24,-1
 217 548 l 5,25,-1
 229 557 l 5,26,-1
 231 573 l 5,27,-1
 230 600 l 5,28,-1
 229 610 l 5,29,-1
 230 616 l 5,30,-1
 236 622 l 5,31,-1
 241 622 l 5,32,-1
 244 615 l 5,33,-1
 248 556 l 5,34,-1
 245 540 l 5,35,-1
 240 535 l 5,0,-1
337 96 m 1,36,-1
 322 99 l 1,37,-1
 303 123 l 1,38,-1
 289 144 l 1,39,-1
 275 172 l 1,40,-1
 232 234 l 1,41,-1
 200 282 l 1,42,-1
 152 346 l 1,43,-1
 111 405 l 1,44,-1
 95 421 l 1,45,-1
 83 415 l 1,46,-1
 79 403 l 1,47,-1
 85 293 l 1,48,-1
 86 261 l 1,49,-1
 92 236 l 1,50,-1
 92 228 l 1,51,-1
 94 208 l 1,52,-1
 96 192 l 1,53,-1
 96 80 l 1,54,-1
 92 68 l 1,55,-1
 80 64 l 1,56,-1
 68 68 l 1,57,-1
 64 80 l 1,58,-1
 58 120 l 1,59,-1
 54 132 l 1,60,-1
 52 164 l 1,61,-1
 48 176 l 1,62,-1
 37 364 l 1,63,-1
 35 381 l 1,64,-1
 32 414 l 1,65,-1
 32 432 l 1,66,-1
 33 529 l 1,67,-1
 41 531 l 1,68,-1
 49 531 l 1,69,-1
 61 525 l 1,70,-1
 68 516 l 1,71,-1
 92 492 l 1,72,-1
 140 428 l 1,73,-1
 188 364 l 1,74,-1
 220 316 l 1,75,-1
 252 268 l 1,76,-1
 264 248 l 1,77,-1
 292 212 l 1,78,-1
 300 212 l 1,79,-1
 299 224 l 1,80,-1
 295 236 l 1,81,-1
 292 244 l 1,82,-1
 289 259 l 1,83,-1
 288 288 l 1,84,-1
 286 435 l 1,85,-1
 282 447 l 1,86,-1
 276 468 l 1,87,-1
 272 480 l 1,88,-1
 272 496 l 1,89,-1
 276 508 l 1,90,-1
 288 512 l 1,91,-1
 308 510 l 1,92,-1
 323 497 l 1,93,-1
 327 485 l 1,94,-1
 328 363 l 1,95,-1
 330 336 l 1,96,-1
 334 305 l 1,97,-1
 336 284 l 1,98,-1
 348 140 l 1,99,-1
 352 128 l 1,100,-1
 352 112 l 1,101,-1
 348 100 l 1,102,-1
 337 96 l 1,36,-1
EndSplineSet
Validated: 1
EndChar

StartChar: multiply
Encoding: 215 215 133
Width: 231
GlyphClass: 2
Flags: W
LayerCount: 2
Fore
SplineSet
194 80 m 1,0,-1
 182 81 l 1,1,-1
 160 110 l 1,2,-1
 106 166 l 1,3,-1
 101 170 l 1,4,-1
 73 143 l 1,5,-1
 54 117 l 1,6,-1
 43 99 l 1,7,-1
 36 81 l 1,8,-1
 27 80 l 1,9,-1
 14 80 l 1,10,-1
 3 93 l 1,11,-1
 9 105 l 1,12,-1
 16 110 l 1,13,-1
 28 124 l 1,14,-1
 42 139 l 1,15,-1
 48 148 l 1,16,-1
 77 184 l 1,17,-1
 83 191 l 1,18,-1
 77 205 l 1,19,-1
 75 214 l 1,20,-1
 61 237 l 1,21,-1
 43 255 l 1,22,-1
 40 262 l 1,23,-1
 43 269 l 1,24,-1
 54 270 l 1,25,-1
 61 270 l 1,26,-1
 71 260 l 1,27,-1
 94 219 l 1,28,-1
 104 204 l 1,29,-1
 107 204 l 1,30,-1
 136 245 l 1,31,-1
 137 250 l 1,32,-1
 149 250 l 1,33,-1
 157 238 l 1,34,-1
 157 233 l 1,35,-1
 131 204 l 1,36,-1
 123 192 l 1,37,-1
 122 182 l 1,38,-1
 131 172 l 1,39,-1
 158 139 l 1,40,-1
 202 95 l 1,41,-1
 205 90 l 1,42,-1
 202 81 l 1,43,-1
 194 80 l 1,0,-1
EndSplineSet
Validated: 1
EndChar

StartChar: Thorn
Encoding: 222 222 140
Width: 287
GlyphClass: 2
Flags: W
LayerCount: 2
Fore
SplineSet
42.3583984375 195.958984375 m 1048,0,-1
44 201.564453125 m 1,1,-1
 29 212.564453125 l 1,2,-1
 25 224.564453125 l 1,3,-1
 29 236.564453125 l 1,4,-1
 44 241.564453125 l 1,5,-1
 48 253.564453125 l 1,6,-1
 48 365.564453125 l 1,7,-1
 52 377.564453125 l 1,8,-1
 60 377.564453125 l 1,9,-1
 75 371.564453125 l 1,10,-1
 80 349.564453125 l 1,11,-1
 172 356.564453125 l 1,12,-1
 190 352.564453125 l 1,13,-1
 204 345.564453125 l 1,14,-1
 222 333.564453125 l 1,15,-1
 236 313.564453125 l 1,16,-1
 244 289.564453125 l 1,17,-1
 244 265.564453125 l 1,18,-1
 239 236.564453125 l 1,19,-1
 214 205.564453125 l 1,20,-1
 194 195.564453125 l 1,21,-1
 143 185.564453125 l 1,22,-1
 123 185.564453125 l 1,23,-1
 106 185.564453125 l 1,24,-1
 87 185.564453125 l 9,25,-1
 83.5791015625 173.38671875 l 17,26,-1
 79.447265625 9 l 1,27,-1
 76.0263671875 -3.177734375 l 1,28,-1
 62.521484375 -13.8369140625 l 1,29,-1
 43.255859375 -8.75390625 l 1,30,-1
 38.685546875 3.041015625 l 1,31,-1
 40.7177734375 190.353515625 l 1,32,-1
 44 201.564453125 l 1,1,-1
40.521484375 164.163085938 m 1025,33,-1
63 339.564453125 m 17,34,-1
 48.1962890625 339.374023438 l 1,35,-1
 46.1640625 526.686523438 l 1,36,-1
 50.734375 538.481445312 l 1,37,-1
 70 543.564453125 l 1,38,-1
 83.5048828125 532.905273438 l 1,39,-1
 86.92578125 520.727539062 l 1,40,-1
 91.0576171875 356.340820312 l 1,41,-1
 94.478515625 344.163085938 l 9,42,-1
 63 339.564453125 l 17,34,-1
208 253.564453125 m 1,43,-1
 208 285.564453125 l 1,44,-1
 204 297.564453125 l 1,45,-1
 188 313.564453125 l 1,46,-1
 171 320.564453125 l 1,47,-1
 159 325.564453125 l 1,48,-1
 147 329.564453125 l 1,49,-1
 115 329.564453125 l 1,50,-1
 103 325.564453125 l 1,51,-1
 84 313.564453125 l 1,52,-1
 80 301.564453125 l 1,53,-1
 80 253.564453125 l 1,54,-1
 85 231.564453125 l 1,55,-1
 100 225.564453125 l 1,56,-1
 112 221.564453125 l 1,57,-1
 176 221.564453125 l 1,58,-1
 188 225.564453125 l 1,59,-1
 204 241.564453125 l 1,60,-1
 208 253.564453125 l 1,43,-1
EndSplineSet
Validated: 5
EndChar

StartChar: germandbls
Encoding: 223 223 141
Width: 347
GlyphClass: 2
Flags: W
LayerCount: 2
Fore
SplineSet
302 150 m 5,0,-1
 298 138 l 5,1,-1
 292 130 l 5,2,-1
 287 118 l 5,3,-1
 282 107 l 5,4,-1
 276 96 l 5,5,-1
 270 89 l 5,6,-1
 235 60 l 5,7,-1
 222 56 l 5,8,-1
 208 53 l 5,9,-1
 191 53 l 5,10,-1
 164 53 l 5,11,-1
 151 56 l 5,12,-1
 138 60 l 5,13,-1
 120 74 l 5,14,-1
 116 85 l 5,15,-1
 116 130 l 5,16,-1
 120 140 l 5,17,-1
 129 140 l 5,18,-1
 147 125 l 5,19,-1
 151 115 l 5,20,-1
 151 100 l 5,21,-1
 157 92 l 5,22,-1
 169 85 l 5,23,-1
 204 85 l 5,24,-1
 217 89 l 5,25,-1
 244 114 l 5,26,-1
 249 125 l 5,27,-1
 257 144 l 5,28,-1
 261 155 l 5,29,-1
 264 168 l 5,30,-1
 265 187 l 5,31,-1
 261 207 l 5,32,-1
 257 217 l 5,33,-1
 252 228 l 5,34,-1
 201 265 l 5,35,-1
 189 268 l 5,36,-1
 153 268 l 5,37,-1
 140 270 l 5,38,-1
 120 294 l 5,39,-1
 116 305 l 5,40,-1
 120 316 l 5,41,-1
 159 343 l 5,42,-1
 169 364 l 5,43,-1
 174 383 l 5,44,-1
 178 393 l 5,45,-1
 182 411 l 5,46,-1
 185 425 l 5,47,-1
 180 449 l 5,48,-1
 175 460 l 5,49,-1
 156 480 l 5,50,-1
 143 484 l 5,51,-1
 129 484 l 5,52,-1
 116 482 l 5,53,-1
 103 478 l 5,54,-1
 89 467 l 5,55,-1
 81 452 l 5,56,-1
 81 437 l 5,57,-1
 81 379 l 5,58,-1
 81 12 l 5,59,-1
 76 0 l 5,60,-1
 59 -14 l 5,61,-1
 41 -12 l 5,62,-1
 37 -1 l 5,63,-1
 37 454 l 5,64,-1
 46 480 l 5,65,-1
 58 500 l 5,66,-1
 69 509 l 5,67,-1
 103 521 l 5,68,-1
 119 523 l 5,69,-1
 129 521 l 5,70,-1
 140 518 l 5,71,-1
 153 513 l 5,72,-1
 164 508 l 5,73,-1
 199 478 l 5,74,-1
 204 467 l 5,75,-1
 219 436 l 5,76,-1
 222 423 l 5,77,-1
 222 408 l 5,78,-1
 222 390 l 5,79,-1
 218 372 l 5,80,-1
 211 358 l 5,81,-1
 199 343 l 5,82,-1
 193 334 l 5,83,-1
 182 323 l 5,84,-1
 173 316 l 5,85,-1
 173 309 l 5,86,-1
 194 300 l 5,87,-1
 208 294 l 5,88,-1
 222 291 l 5,89,-1
 244 280 l 5,90,-1
 282 251 l 5,91,-1
 298 228 l 5,92,-1
 307 205 l 5,93,-1
 310 187 l 5,94,-1
 310 174 l 5,95,-1
 307 161 l 5,96,-1
 302 150 l 5,0,-1
EndSplineSet
Validated: 1
EndChar

StartChar: ccedilla
Encoding: 231 231 149
Width: 208
GlyphClass: 2
Flags: W
LayerCount: 2
Fore
SplineSet
91 36 m 1,0,-1
 105 30 l 1,1,-1
 100 29 l 1,2,-1
 99 24 l 1,3,-1
 103 21 l 1,4,-1
 110 18 l 1,5,-1
 114 16 l 1,6,-1
 117 5 l 1,7,-1
 119 -2 l 1,8,-1
 116 -12 l 1,9,-1
 113 -16 l 1,10,-1
 96 -31 l 1,11,-1
 91 -32 l 1,12,-1
 84 -30 l 1,13,-1
 81 -27 l 1,14,-1
 76 -15 l 1,15,-1
 76 -9 l 1,16,-1
 79 -3 l 1,17,-1
 82 -3 l 1,18,-1
 84 -9 l 1,19,-1
 88 -12 l 1,20,-1
 94 -11 l 1,21,-1
 103 -5 l 1,22,-1
 103 0 l 1,23,-1
 99 3 l 1,24,-1
 92 5 l 1,25,-1
 88 9 l 1,26,-1
 84 20 l 1,27,-1
 83 26 l 1,28,-1
 87 32 l 1,29,-1
 91 36 l 1,0,-1
162 19 m 1,30,-1
 137 16 l 1,31,-1
 119 21 l 1,32,-1
 103 29 l 1,33,-1
 83 40 l 1,34,-1
 56 76 l 1,35,-1
 21 156 l 1,36,-1
 17 170 l 1,37,-1
 23 224 l 1,38,-1
 28 241 l 1,39,-1
 43 274 l 1,40,-1
 74 301 l 1,41,-1
 103 318 l 1,42,-1
 115 323 l 1,43,-1
 142 327 l 1,44,-1
 154 323 l 1,45,-1
 158 313 l 1,46,-1
 154 302 l 1,47,-1
 142 298 l 1,48,-1
 120 292 l 1,49,-1
 108 288 l 1,50,-1
 87 275 l 1,51,-1
 74 255 l 1,52,-1
 63 224 l 1,53,-1
 59 206 l 1,54,-1
 56 146 l 1,55,-1
 61 127 l 1,56,-1
 83 84 l 1,57,-1
 115 55 l 1,58,-1
 129 49 l 1,59,-1
 158 49 l 1,60,-1
 171 44 l 1,61,-1
 174 37 l 1,62,-1
 170 26 l 1,63,-1
 162 19 l 1,30,-1
EndSplineSet
Validated: 5
EndChar

StartChar: eth
Encoding: 240 240 158
Width: 304
GlyphClass: 2
Flags: W
LayerCount: 2
Fore
SplineSet
210 466 m 1,0,-1
 207 464 l 1,1,-1
 199 456 l 1,2,-1
 190 444 l 1,3,-1
 188 442 l 1,4,-1
 186 440 l 1,5,-1
 182 435 l 1,6,-1
 180 433 l 1,7,-1
 178 430 l 1,8,-1
 174 428 l 1,9,-1
 170 426 l 1,10,-1
 158 436 l 1,11,-1
 152 442 l 1,12,-1
 151 445 l 1,13,-1
 152 448 l 1,14,-1
 154 450 l 1,15,-1
 156 451 l 1,16,-1
 167 465 l 1,17,-1
 174 475 l 1,18,-1
 185 486 l 1,19,-1
 186 488 l 1,20,-1
 187 489 l 1,21,-1
 188 491 l 1,22,-1
 194 493 l 1,23,-1
 198 492 l 1,24,-1
 205 488 l 1,25,-1
 214 477 l 1,26,-1
 214 473 l 1,27,-1
 210 466 l 1,0,-1
135 381 m 1,28,-1
 132 379 l 1,29,-1
 124 371 l 1,30,-1
 115 359 l 1,31,-1
 113 357 l 1,32,-1
 111 355 l 1,33,-1
 107 350 l 1,34,-1
 106 348 l 1,35,-1
 103 345 l 1,36,-1
 99 343 l 1,37,-1
 95 343 l 1,38,-1
 83 351 l 1,39,-1
 77 357 l 1,40,-1
 76 360 l 1,41,-1
 77 363 l 1,42,-1
 79 365 l 1,43,-1
 81 366 l 1,44,-1
 92 380 l 1,45,-1
 99 390 l 1,46,-1
 110 401 l 1,47,-1
 111 403 l 1,48,-1
 112 404 l 1,49,-1
 113 406 l 1,50,-1
 119 408 l 1,51,-1
 123 408 l 1,52,-1
 130 403 l 1,53,-1
 140 394 l 1,54,-1
 139 388 l 1,55,-1
 135 381 l 1,28,-1
195 90 m 1,56,-1
 192 76 l 1,57,-1
 186 64 l 1,58,-1
 170 48 l 1,59,-1
 158 44 l 1,60,-1
 126 46 l 1,61,-1
 106 56 l 1,62,-1
 85 76 l 1,63,-1
 80 84 l 1,64,-1
 78 99 l 1,65,-1
 85 123 l 1,66,-1
 101 142 l 1,67,-1
 114 149 l 1,68,-1
 132 151 l 1,69,-1
 149 150 l 1,70,-1
 162 145 l 1,71,-1
 171 139 l 1,72,-1
 182 126 l 1,73,-1
 189 116 l 1,74,-1
 192 107 l 1,75,-1
 195 90 l 1,56,-1
270 193 m 1,76,-1
 267 212 l 1,77,-1
 263 237 l 1,78,-1
 259 257 l 1,79,-1
 255 273 l 1,80,-1
 251 285 l 1,81,-1
 245 303 l 1,82,-1
 241 316 l 1,83,-1
 233 335 l 1,84,-1
 224 353 l 1,85,-1
 214 370 l 1,86,-1
 201 390 l 1,87,-1
 177 419 l 1,88,-1
 142 448 l 1,89,-1
 116 462 l 1,90,-1
 82 471 l 1,91,-1
 49 471 l 1,92,-1
 39 462 l 1,93,-1
 39 446 l 1,94,-1
 45 442 l 1,95,-1
 89 431 l 1,96,-1
 106 423 l 1,97,-1
 141 395 l 1,98,-1
 171 355 l 1,99,-1
 187 324 l 1,100,-1
 196 304 l 1,101,-1
 205 275 l 1,102,-1
 211 238 l 1,103,-1
 216 170 l 1,104,-1
 214 156 l 1,105,-1
 201 168 l 1,106,-1
 181 178 l 1,107,-1
 166 183 l 1,108,-1
 122 188 l 1,109,-1
 101 186 l 1,110,-1
 86 181 l 1,111,-1
 69 170 l 1,112,-1
 45 136 l 1,113,-1
 38 117 l 1,114,-1
 38 101 l 1,115,-1
 44 80 l 1,116,-1
 58 59 l 1,117,-1
 84 35 l 1,118,-1
 88 32 l 1,119,-1
 115 18 l 1,120,-1
 160 12 l 1,121,-1
 170 13 l 1,122,-1
 200 20 l 1,123,-1
 227 38 l 1,124,-1
 250 67 l 1,125,-1
 259 92 l 1,126,-1
 266 130 l 1,127,-1
 269 148 l 1,128,-1
 270 167 l 1,129,-1
 270 193 l 1,76,-1
EndSplineSet
Validated: 9
EndChar

StartChar: divide
Encoding: 247 247 165
Width: 320
GlyphClass: 2
Flags: W
LayerCount: 2
Fore
SplineSet
284 199 m 1,0,-1
 273 193 l 1,1,-1
 256 189 l 1,2,-1
 188 187 l 1,3,-1
 172 186 l 1,4,-1
 99 177 l 1,5,-1
 85 172 l 1,6,-1
 71 167 l 1,7,-1
 54 164 l 1,8,-1
 31 164 l 1,9,-1
 15 167 l 1,10,-1
 9 177 l 1,11,-1
 15 186 l 1,12,-1
 31 189 l 1,13,-1
 51 192 l 1,14,-1
 68 195 l 1,15,-1
 82 199 l 1,16,-1
 99 202 l 1,17,-1
 172 212 l 1,18,-1
 188 213 l 1,19,-1
 278 215 l 1,20,-1
 295 212 l 1,21,-1
 295 205 l 1,22,-1
 284 199 l 1,0,-1
153 246 m 1,23,-1
 147 239 l 1,24,-1
 137 236 l 1,25,-1
 127 239 l 1,26,-1
 114 253 l 1,27,-1
 110 263 l 1,28,-1
 114 273 l 1,29,-1
 120 279 l 1,30,-1
 127 299 l 1,31,-1
 140 313 l 1,32,-1
 147 313 l 1,33,-1
 160 299 l 1,34,-1
 163 289 l 1,35,-1
 163 263 l 1,36,-1
 160 253 l 1,37,-1
 153 246 l 1,23,-1
163 64 m 1,38,-1
 137 64 l 1,39,-1
 127 67 l 1,40,-1
 114 80 l 1,41,-1
 110 90 l 1,42,-1
 114 100 l 1,43,-1
 124 103 l 1,44,-1
 150 103 l 1,45,-1
 160 100 l 1,46,-1
 173 87 l 1,47,-1
 176 77 l 1,48,-1
 173 67 l 1,49,-1
 163 64 l 1,38,-1
EndSplineSet
Validated: 1
EndChar

StartChar: Aogonek
Encoding: 260 260 173
Width: 343
GlyphClass: 2
Flags: W
LayerCount: 2
Fore
SplineSet
296 26 m 5,0,1
 257 -18 257 -18 312 -69 c 4,2,3
 316 -73 316 -73 305 -79 c 5,4,-1
 301 -78 l 6,5,6
 265 -65 265 -65 258 -31 c 4,7,8
 254 -12 254 -12 258 4 c 4,9,10
 263 33 263 33 273 38 c 4,11,12
 289 48 289 48 296 26 c 5,0,1
276 35 m 1028,13,-1
304 53 m 1024,14,-1
241 207 m 1,15,-1
 239 212 l 1,16,-1
 234 237 l 1,17,-1
 204 432 l 1,18,-1
 200 444 l 1,19,-1
 188 448 l 1,20,-1
 176 444 l 1,21,-1
 172 432 l 1,22,-1
 138 300 l 1,23,-1
 125 234 l 1,24,-1
 122 210 l 1,25,-1
 124 201 l 1,26,-1
 225 191 l 1,27,-1
 237 195 l 1,28,-1
 241 207 l 1,15,-1
304 36 m 5,29,-1
 296 28 l 5,30,-1
 288 28 l 5,31,-1
 272 35 l 5,32,-1
 268 56 l 1,33,-1
 268 72 l 1,34,-1
 264 84 l 1,35,-1
 248 158 l 1,36,-1
 236 162 l 1,37,-1
 156 162 l 1,38,-1
 116 165 l 1,39,-1
 92 56 l 1,40,-1
 88 44 l 1,41,-1
 72 28 l 1,42,-1
 57 32 l 1,43,-1
 53 44 l 1,44,-1
 71 153 l 1,45,-1
 67 165 l 1,46,-1
 32 172 l 1,47,-1
 34 202 l 1,48,-1
 46 206 l 1,49,-1
 62 206 l 1,50,-1
 74 210 l 1,51,-1
 83 221 l 1,52,-1
 94 260 l 1,53,-1
 108 324 l 1,54,-1
 112 336 l 1,55,-1
 156 496 l 1,56,-1
 159 509 l 1,57,-1
 169 534 l 1,58,-1
 173 546 l 1,59,-1
 189 562 l 1,60,-1
 197 562 l 1,61,-1
 207 551 l 1,62,-1
 213 530 l 1,63,-1
 217 518 l 1,64,-1
 232 460 l 1,65,-1
 236 448 l 1,66,-1
 268 312 l 1,67,-1
 278 268 l 1,68,-1
 291 199 l 1,69,-1
 312 190 l 1,70,-1
 316 178 l 1,71,-1
 312 166 l 1,72,-1
 299 160 l 1,73,-1
 299 152 l 1,74,-1
 311 67 l 1,75,-1
 311 51 l 1,76,-1
 312 44 l 1,77,-1
 304 36 l 5,29,-1
EndSplineSet
Validated: 37
EndChar

StartChar: aogonek
Encoding: 261 261 174
Width: 277
GlyphClass: 2
Flags: W
LayerCount: 2
Fore
SplineSet
252 37 m 1,0,1
 213 -8 213 -8 268 -58 c 0,2,3
 272 -63 272 -63 261 -68 c 1,4,-1
 257 -67 l 2,5,6
 220 -55 220 -55 214 -20 c 0,7,8
 210 -2 210 -2 214 15 c 0,9,10
 219 44 219 44 228 48 c 0,11,12
 244 58 244 58 252 37 c 1,0,1
170 170 m 1,13,-1
 156 193 l 1,14,-1
 140 208 l 1,15,-1
 132 208 l 1,16,-1
 112 167 l 1,17,-1
 116 155 l 1,18,-1
 128 152 l 1,19,-1
 144 152 l 1,20,-1
 167 154 l 1,21,-1
 170 170 l 1,13,-1
244 42 m 1,22,-1
 236 34 l 1,23,-1
 228 34 l 1,24,-1
 224 46 l 1,25,-1
 217 74 l 1,26,-1
 213 85 l 1,27,-1
 204 102 l 1,28,-1
 194 118 l 1,29,-1
 153 120 l 1,30,-1
 128 121 l 1,31,-1
 116 118 l 1,32,-1
 100 102 l 1,33,-1
 92 80 l 1,34,-1
 80 46 l 1,35,-1
 76 34 l 1,36,-1
 68 5 l 1,37,-1
 52 4 l 1,38,-1
 35 12 l 1,39,-1
 32 30 l 1,40,-1
 36 42 l 1,41,-1
 44 49 l 1,42,-1
 48 61 l 1,43,-1
 76 155 l 1,44,-1
 80 167 l 1,45,-1
 112 273 l 1,46,-1
 112 288 l 1,47,-1
 108 299 l 1,48,-1
 100 307 l 1,49,-1
 96 318 l 1,50,-1
 100 329 l 1,51,-1
 124 337 l 1,52,-1
 144 318 l 1,53,-1
 148 307 l 1,54,-1
 156 299 l 1,55,-1
 160 288 l 1,56,-1
 188 208 l 1,57,-1
 198 189 l 1,58,-1
 223 141 l 1,59,-1
 231 134 l 1,60,-1
 235 122 l 1,61,-1
 253 69 l 1,62,-1
 252 49 l 1,63,-1
 244 42 l 1,22,-1
EndSplineSet
Validated: 37
EndChar

StartChar: Cacute
Encoding: 262 262 175
Width: 320
GlyphClass: 2
Flags: W
LayerCount: 2
Fore
SplineSet
276 28 m 1,0,-1
 268 20 l 1,1,-1
 256 16 l 1,2,-1
 209 17 l 1,3,-1
 196 20 l 1,4,-1
 176 26 l 1,5,-1
 155 34 l 1,6,-1
 129 43 l 1,7,-1
 83 78 l 1,8,-1
 56 113 l 1,9,-1
 44 147 l 1,10,-1
 38 173 l 1,11,-1
 35 196 l 1,12,-1
 33 211 l 1,13,-1
 26 263 l 1,14,-1
 30 321 l 1,15,-1
 31 337 l 1,16,-1
 40 375 l 1,17,-1
 53 411 l 1,18,-1
 70 440 l 1,19,-1
 115 491 l 1,20,-1
 144 514 l 1,21,-1
 163 523 l 1,22,-1
 188 529 l 1,23,-1
 204 530 l 1,24,-1
 224 528 l 1,25,-1
 236 524 l 1,26,-1
 236 516 l 1,27,-1
 220 500 l 1,28,-1
 208 496 l 1,29,-1
 196 493 l 1,30,-1
 184 489 l 1,31,-1
 172 484 l 1,32,-1
 128 440 l 1,33,-1
 107 410 l 1,34,-1
 93 377 l 1,35,-1
 89 365 l 1,36,-1
 79 312 l 1,37,-1
 81 292 l 1,38,-1
 94 165 l 1,39,-1
 111 128 l 1,40,-1
 122 113 l 1,41,-1
 146 97 l 1,42,-1
 172 85 l 1,43,-1
 187 81 l 1,44,-1
 215 75 l 1,45,-1
 239 72 l 1,46,-1
 256 64 l 1,47,-1
 268 60 l 1,48,-1
 284 44 l 1,49,-1
 284 36 l 1,50,-1
 276 28 l 1,0,-1
EndSplineSet
Refer: 67 96 S -1 -0 0 1 220 20 2
Validated: 25
EndChar

StartChar: cacute
Encoding: 263 263 176
Width: 208
GlyphClass: 2
Flags: W
LayerCount: 2
Fore
SplineSet
162 19 m 1,0,-1
 137 16 l 1,1,-1
 119 21 l 1,2,-1
 103 29 l 1,3,-1
 83 40 l 1,4,-1
 56 76 l 1,5,-1
 21 156 l 1,6,-1
 17 170 l 1,7,-1
 23 224 l 1,8,-1
 28 241 l 1,9,-1
 43 274 l 1,10,-1
 74 301 l 1,11,-1
 103 318 l 1,12,-1
 115 323 l 1,13,-1
 142 327 l 1,14,-1
 154 323 l 1,15,-1
 158 313 l 1,16,-1
 154 302 l 1,17,-1
 142 298 l 1,18,-1
 120 292 l 1,19,-1
 108 288 l 1,20,-1
 87 275 l 1,21,-1
 74 255 l 1,22,-1
 63 224 l 1,23,-1
 59 206 l 1,24,-1
 56 146 l 1,25,-1
 61 127 l 1,26,-1
 83 84 l 1,27,-1
 115 55 l 1,28,-1
 129 49 l 1,29,-1
 158 49 l 1,30,-1
 171 44 l 1,31,-1
 174 37 l 1,32,-1
 170 26 l 1,33,-1
 162 19 l 1,0,-1
EndSplineSet
Refer: 106 180 S 1 0 0 1 53 -121 2
Validated: 1
EndChar

StartChar: Eogonek
Encoding: 280 280 177
Width: 337
GlyphClass: 2
Flags: W
LayerCount: 2
Fore
SplineSet
268 50 m 1,0,1
 229 5 229 5 284 -45 c 0,2,3
 288 -50 288 -50 277 -55 c 1,4,-1
 273 -54 l 2,5,6
 236 -42 236 -42 230 -7 c 0,7,8
 226 11 226 11 230 28 c 0,9,10
 235 57 235 57 244 62 c 0,11,12
 260 71 260 71 268 50 c 1,0,1
295 67 m 1,13,-1
 268 50 l 1,14,-1
 244 50 l 1,15,-1
 220 50 l 1,16,-1
 196 50 l 1,17,-1
 159 47 l 1,18,-1
 144 46 l 1,19,-1
 112 47 l 1,20,-1
 79 46 l 1,21,-1
 67 55 l 1,22,-1
 67 63 l 1,23,-1
 67 83 l 1,24,-1
 71 95 l 1,25,-1
 71 273 l 1,26,-1
 67 285 l 1,27,-1
 59 299 l 1,28,-1
 47 303 l 1,29,-1
 31 303 l 1,30,-1
 19 307 l 1,31,-1
 15 319 l 1,32,-1
 19 331 l 1,33,-1
 31 335 l 1,34,-1
 51 334 l 1,35,-1
 63 338 l 1,36,-1
 67 350 l 1,37,-1
 67 500 l 1,38,-1
 63 512 l 1,39,-1
 55 520 l 1,40,-1
 51 538 l 1,41,-1
 55 550 l 1,42,-1
 63 558 l 1,43,-1
 116 554 l 1,44,-1
 148 562 l 1,45,-1
 160 566 l 1,46,-1
 224 566 l 1,47,-1
 236 562 l 1,48,-1
 240 550 l 1,49,-1
 236 538 l 1,50,-1
 224 534 l 1,51,-1
 208 534 l 1,52,-1
 196 530 l 1,53,-1
 154 522 l 1,54,-1
 131 519 l 1,55,-1
 119 515 l 1,56,-1
 114 506 l 1,57,-1
 110 494 l 1,58,-1
 112 368 l 1,59,-1
 116 356 l 1,60,-1
 132 340 l 1,61,-1
 140 340 l 1,62,-1
 164 340 l 1,63,-1
 214 338 l 1,64,-1
 236 340 l 1,65,-1
 268 332 l 1,66,-1
 272 320 l 1,67,-1
 268 308 l 1,68,-1
 256 304 l 1,69,-1
 228 300 l 1,70,-1
 212 300 l 1,71,-1
 161 301 l 1,72,-1
 138 300 l 1,73,-1
 126 296 l 1,74,-1
 121 287 l 1,75,-1
 123 220 l 1,76,-1
 128 192 l 1,77,-1
 128 110 l 1,78,-1
 132 98 l 1,79,-1
 145 86 l 1,80,-1
 253 92 l 1,81,-1
 272 93 l 1,82,-1
 292 106 l 1,83,-1
 300 106 l 1,84,-1
 304 94 l 1,85,-1
 300 82 l 1,86,-1
 295 67 l 1,13,-1
EndSplineSet
Validated: 37
EndChar

StartChar: eogonek
Encoding: 281 281 178
Width: 256
GlyphClass: 2
Flags: W
LayerCount: 2
Fore
SplineSet
198 22 m 1,0,1
 161 -17 161 -17 213 -60 c 0,2,3
 216 -64 216 -64 206 -69 c 1,4,-1
 202 -68 l 2,5,6
 169 -58 169 -58 162 -27 c 0,7,8
 159 -11 159 -11 163 3 c 0,9,10
 167 28 167 28 176 32 c 0,11,12
 191 41 191 41 198 22 c 1,0,1
208 193 m 1,13,-1
 176 193 l 1,14,-1
 164 189 l 1,15,-1
 115 187 l 1,16,-1
 103 183 l 1,17,-1
 101 164 l 1,18,-1
 100 123 l 1,19,-1
 112 60 l 1,20,-1
 116 49 l 1,21,-1
 128 45 l 1,22,-1
 192 45 l 1,23,-1
 204 42 l 1,24,-1
 204 34 l 1,25,-1
 198 23 l 1,26,-1
 182 23 l 1,27,-1
 170 20 l 1,28,-1
 144 16 l 1,29,-1
 71 14 l 1,30,-1
 59 18 l 1,31,-1
 52 34 l 1,32,-1
 52 42 l 1,33,-1
 76 49 l 1,34,-1
 75 65 l 1,35,-1
 68 93 l 1,36,-1
 64 164 l 1,37,-1
 62 180 l 1,38,-1
 36 187 l 1,39,-1
 32 208 l 1,40,-1
 36 219 l 1,41,-1
 56 224 l 1,42,-1
 56 241 l 1,43,-1
 52 263 l 1,44,-1
 52 285 l 1,45,-1
 54 317 l 1,46,-1
 68 322 l 1,47,-1
 80 326 l 1,48,-1
 112 326 l 1,49,-1
 124 322 l 1,50,-1
 176 311 l 1,51,-1
 188 308 l 1,52,-1
 192 296 l 1,53,-1
 188 285 l 1,54,-1
 180 285 l 1,55,-1
 140 293 l 1,56,-1
 128 296 l 1,57,-1
 112 296 l 1,58,-1
 100 293 l 1,59,-1
 96 282 l 1,60,-1
 96 237 l 1,61,-1
 100 226 l 1,62,-1
 112 223 l 1,63,-1
 208 223 l 1,64,-1
 220 219 l 1,65,-1
 224 208 l 1,66,-1
 220 197 l 1,67,-1
 208 193 l 1,13,-1
EndSplineSet
Validated: 37
EndChar

StartChar: Lslash
Encoding: 321 321 179
Width: 422
GlyphClass: 2
Flags: W
LayerCount: 2
Fore
SplineSet
216 383 m 1,0,-1
 203 371 l 1,1,-1
 162 337 l 1,2,-1
 112 292 l 1,3,-1
 104 283 l 1,4,-1
 99 281 l 1,5,-1
 90 272 l 1,6,-1
 85 269 l 1,7,-1
 58 246 l 1,8,-1
 49 236 l 1,9,-1
 35 225 l 1,10,-1
 15 216 l 1,11,-1
 9 218 l 1,12,-1
 5 222 l 1,13,-1
 7 228 l 1,14,-1
 10 236 l 1,15,-1
 14 241 l 1,16,-1
 19 243 l 1,17,-1
 28 253 l 1,18,-1
 33 255 l 1,19,-1
 99 318 l 1,20,-1
 149 362 l 1,21,-1
 207 416 l 1,22,-1
 215 425 l 1,23,-1
 221 427 l 1,24,-1
 229 437 l 1,25,-1
 250 445 l 1,26,-1
 255 445 l 1,27,-1
 259 440 l 1,28,-1
 258 433 l 1,29,-1
 251 418 l 1,30,-1
 247 413 l 1,31,-1
 216 383 l 1,0,-1
374 56 m 1,32,-1
 203 48 l 1,33,-1
 188 48 l 1,34,-1
 146 44 l 1,35,-1
 138 44 l 1,36,-1
 112 48 l 1,37,-1
 106 60 l 1,38,-1
 106 68 l 1,39,-1
 112 81 l 1,40,-1
 113 101 l 1,41,-1
 109 251 l 1,42,-1
 109 266 l 1,43,-1
 108 315 l 1,44,-1
 99 415 l 1,45,-1
 98 437 l 1,46,-1
 98 470 l 1,47,-1
 97 486 l 1,48,-1
 95 551 l 1,49,-1
 99 563 l 1,50,-1
 111 567 l 1,51,-1
 140 564 l 1,52,-1
 149 553 l 1,53,-1
 149 545 l 1,54,-1
 148 532 l 1,55,-1
 144 520 l 1,56,-1
 147 425 l 1,57,-1
 151 413 l 1,58,-1
 156 388 l 1,59,-1
 158 370 l 1,60,-1
 160 344 l 1,61,-1
 160 296 l 1,62,-1
 165 96 l 1,63,-1
 169 84 l 1,64,-1
 181 80 l 1,65,-1
 208 82 l 1,66,-1
 234 84 l 1,67,-1
 246 88 l 1,68,-1
 264 88 l 1,69,-1
 288 88 l 1,70,-1
 310 88 l 1,71,-1
 374 88 l 1,72,-1
 386 84 l 1,73,-1
 390 72 l 1,74,-1
 386 60 l 1,75,-1
 374 56 l 1,32,-1
EndSplineSet
Validated: 5
EndChar

StartChar: lslash
Encoding: 322 322 180
Width: 296
GlyphClass: 2
Flags: W
LayerCount: 2
Fore
SplineSet
146 231 m 1,0,-1
 137 223 l 1,1,-1
 109 202 l 1,2,-1
 76 174 l 1,3,-1
 69 168 l 1,4,-1
 66 167 l 1,5,-1
 60 161 l 1,6,-1
 57 160 l 1,7,-1
 38 145 l 1,8,-1
 32 139 l 1,9,-1
 23 132 l 1,10,-1
 9 127 l 1,11,-1
 5 127 l 1,12,-1
 2 130 l 1,13,-1
 3 134 l 1,14,-1
 6 139 l 1,15,-1
 9 142 l 1,16,-1
 12 143 l 1,17,-1
 18 149 l 1,18,-1
 21 151 l 1,19,-1
 67 190 l 1,20,-1
 100 217 l 1,21,-1
 140 251 l 1,22,-1
 146 257 l 1,23,-1
 149 258 l 1,24,-1
 155 264 l 1,25,-1
 169 269 l 1,26,-1
 173 269 l 1,27,-1
 176 266 l 1,28,-1
 175 262 l 1,29,-1
 170 253 l 1,30,-1
 167 250 l 1,31,-1
 146 231 l 1,0,-1
244 69 m 1,32,-1
 236 69 l 1,33,-1
 236 61 l 1,34,-1
 244 61 l 1,35,-1
 244 69 l 1,32,-1
250 46 m 1,36,-1
 198 44 l 1,37,-1
 190 42 l 1,38,-1
 134 42 l 1,39,-1
 126 42 l 1,40,-1
 102 42 l 1,41,-1
 78 50 l 1,42,-1
 74 62 l 1,43,-1
 69 248 l 1,44,-1
 68 261 l 1,45,-1
 68 301 l 1,46,-1
 76 325 l 1,47,-1
 88 329 l 1,48,-1
 100 325 l 1,49,-1
 104 313 l 1,50,-1
 110 97 l 1,51,-1
 114 85 l 1,52,-1
 126 81 l 1,53,-1
 248 89 l 1,54,-1
 260 85 l 1,55,-1
 264 73 l 1,56,-1
 266 62 l 1,57,-1
 262 50 l 1,58,-1
 250 46 l 1,36,-1
EndSplineSet
Validated: 5
EndChar

StartChar: Nacute
Encoding: 323 323 181
Width: 385
GlyphClass: 2
Flags: W
LayerCount: 2
Fore
SplineSet
337 96 m 1,0,-1
 322 99 l 1,1,-1
 303 123 l 1,2,-1
 289 144 l 1,3,-1
 275 172 l 1,4,-1
 232 234 l 1,5,-1
 200 282 l 1,6,-1
 152 346 l 1,7,-1
 111 405 l 1,8,-1
 95 421 l 1,9,-1
 83 415 l 1,10,-1
 79 403 l 1,11,-1
 85 293 l 1,12,-1
 86 261 l 1,13,-1
 92 236 l 1,14,-1
 92 228 l 1,15,-1
 94 208 l 1,16,-1
 96 192 l 1,17,-1
 96 80 l 1,18,-1
 92 68 l 1,19,-1
 80 64 l 1,20,-1
 68 68 l 1,21,-1
 64 80 l 1,22,-1
 58 120 l 1,23,-1
 54 132 l 1,24,-1
 52 164 l 1,25,-1
 48 176 l 1,26,-1
 37 364 l 1,27,-1
 35 381 l 1,28,-1
 32 414 l 1,29,-1
 32 432 l 1,30,-1
 33 529 l 1,31,-1
 41 531 l 1,32,-1
 49 531 l 1,33,-1
 61 525 l 1,34,-1
 68 516 l 1,35,-1
 92 492 l 1,36,-1
 140 428 l 1,37,-1
 188 364 l 1,38,-1
 220 316 l 1,39,-1
 252 268 l 1,40,-1
 264 248 l 1,41,-1
 292 212 l 1,42,-1
 300 212 l 1,43,-1
 299 224 l 1,44,-1
 295 236 l 1,45,-1
 292 244 l 1,46,-1
 289 259 l 1,47,-1
 288 288 l 1,48,-1
 286 435 l 1,49,-1
 282 447 l 1,50,-1
 276 468 l 1,51,-1
 272 480 l 1,52,-1
 272 496 l 1,53,-1
 276 508 l 1,54,-1
 288 512 l 1,55,-1
 308 510 l 1,56,-1
 323 497 l 1,57,-1
 327 485 l 1,58,-1
 328 363 l 1,59,-1
 330 336 l 1,60,-1
 334 305 l 1,61,-1
 336 284 l 1,62,-1
 348 140 l 1,63,-1
 352 128 l 1,64,-1
 352 112 l 1,65,-1
 348 100 l 1,66,-1
 337 96 l 1,0,-1
222 598 m 5,67,-1
 224 591 l 5,68,-1
 219 575 l 5,69,-1
 217 579 l 5,70,-1
 213 566 l 5,71,-1
 196 538 l 5,72,-1
 185 518 l 5,73,-1
 178 511 l 5,74,-1
 172 508 l 5,75,-1
 165 511 l 5,76,-1
 163 518 l 5,77,-1
 165 524 l 5,78,-1
 170 529 l 5,79,-1
 172 536 l 5,80,-1
 172 545 l 5,81,-1
 174 552 l 5,82,-1
 196 584 l 5,83,-1
 200 598 l 5,84,-1
 209 607 l 5,85,-1
 213 607 l 5,86,-1
 217 602 l 5,87,-1
 222 598 l 5,67,-1
EndSplineSet
Validated: 1
EndChar

StartChar: nacute
Encoding: 324 324 182
Width: 320
GlyphClass: 2
Flags: W
LayerCount: 2
Fore
SplineSet
290 57 m 1,0,-1
 280 52 l 1,1,-1
 272 52 l 1,2,-1
 264 76 l 1,3,-1
 233 105 l 1,4,-1
 206 120 l 1,5,-1
 174 140 l 1,6,-1
 88 204 l 1,7,-1
 80 204 l 1,8,-1
 76 192 l 1,9,-1
 77 113 l 1,10,-1
 80 100 l 1,11,-1
 88 44 l 1,12,-1
 84 32 l 1,13,-1
 60 33 l 1,14,-1
 52 48 l 1,15,-1
 52 70 l 1,16,-1
 46 108 l 1,17,-1
 44 128 l 1,18,-1
 40 220 l 1,19,-1
 40 244 l 1,20,-1
 40 252 l 1,21,-1
 32 260 l 1,22,-1
 32 268 l 1,23,-1
 48 284 l 1,24,-1
 56 284 l 1,25,-1
 88 252 l 1,26,-1
 128 212 l 1,27,-1
 176 180 l 1,28,-1
 208 164 l 1,29,-1
 240 148 l 1,30,-1
 248 148 l 1,31,-1
 252 160 l 1,32,-1
 250 173 l 1,33,-1
 245 203 l 1,34,-1
 241 215 l 1,35,-1
 229 263 l 1,36,-1
 225 275 l 1,37,-1
 220 320 l 1,38,-1
 224 332 l 1,39,-1
 236 332 l 1,40,-1
 248 316 l 1,41,-1
 256 292 l 1,42,-1
 259 279 l 1,43,-1
 268 256 l 1,44,-1
 272 244 l 1,45,-1
 284 192 l 1,46,-1
 296 83 l 1,47,-1
 296 68 l 1,48,-1
 290 57 l 1,0,-1
174 366 m 1,49,-1
 176 359 l 1,50,-1
 171 343 l 1,51,-1
 169 347 l 1,52,-1
 165 334 l 1,53,-1
 148 306 l 1,54,-1
 137 286 l 1,55,-1
 130 279 l 1,56,-1
 124 276 l 1,57,-1
 117 279 l 1,58,-1
 115 286 l 1,59,-1
 117 292 l 1,60,-1
 122 297 l 1,61,-1
 124 304 l 1,62,-1
 124 313 l 1,63,-1
 126 320 l 1,64,-1
 148 352 l 1,65,-1
 152 366 l 1,66,-1
 161 375 l 1,67,-1
 165 375 l 1,68,-1
 169 370 l 1,69,-1
 174 366 l 1,49,-1
EndSplineSet
Validated: 1
EndChar

StartChar: OE
Encoding: 338 338 183
Width: 548
GlyphClass: 2
Flags: W
LayerCount: 2
Fore
SplineSet
262 143 m 1,0,-1
 256 177 l 1,1,-1
 254 210 l 1,2,-1
 252 411 l 1,3,-1
 247 458 l 1,4,-1
 223 468 l 1,5,-1
 205 473 l 1,6,-1
 179 468 l 1,7,-1
 161 461 l 1,8,-1
 136 433 l 1,9,-1
 113 377 l 1,10,-1
 88 320 l 1,11,-1
 83 290 l 1,12,-1
 80 178 l 1,13,-1
 88 137 l 1,14,-1
 106 106 l 1,15,-1
 136 80 l 1,16,-1
 154 74 l 1,17,-1
 203 74 l 1,18,-1
 229 86 l 1,19,-1
 262 130 l 1,20,-1
 262 143 l 1,0,-1
494 45 m 1,21,-1
 300 45 l 1,22,-1
 282 52 l 1,23,-1
 270 66 l 1,24,-1
 257 66 l 1,25,-1
 245 52 l 1,26,-1
 215 31 l 1,27,-1
 197 25 l 1,28,-1
 179 17 l 1,29,-1
 154 17 l 1,30,-1
 136 25 l 1,31,-1
 110 36 l 1,32,-1
 88 52 l 1,33,-1
 61 72 l 1,34,-1
 40 109 l 1,35,-1
 33 130 l 1,36,-1
 24 210 l 1,37,-1
 24 253 l 1,38,-1
 26 285 l 1,39,-1
 33 327 l 1,40,-1
 40 348 l 1,41,-1
 49 373 l 1,42,-1
 63 405 l 1,43,-1
 88 454 l 1,44,-1
 114 485 l 1,45,-1
 143 508 l 1,46,-1
 161 518 l 1,47,-1
 181 522 l 1,48,-1
 227 525 l 1,49,-1
 245 532 l 1,50,-1
 257 545 l 1,51,-1
 276 553 l 1,52,-1
 294 545 l 1,53,-1
 307 532 l 1,54,-1
 325 525 l 1,55,-1
 494 525 l 1,56,-1
 512 518 l 1,57,-1
 512 504 l 1,58,-1
 488 476 l 1,59,-1
 470 468 l 1,60,-1
 325 468 l 1,61,-1
 307 461 l 1,62,-1
 300 440 l 1,63,-1
 300 356 l 1,64,-1
 307 334 l 1,65,-1
 325 327 l 1,66,-1
 421 327 l 1,67,-1
 440 320 l 1,68,-1
 446 299 l 1,69,-1
 440 277 l 1,70,-1
 421 271 l 1,71,-1
 325 271 l 1,72,-1
 307 264 l 1,73,-1
 300 243 l 1,74,-1
 310 164 l 1,75,-1
 319 130 l 1,76,-1
 330 109 l 1,77,-1
 348 102 l 1,78,-1
 446 102 l 1,79,-1
 464 94 l 1,80,-1
 482 92 l 1,81,-1
 501 71 l 1,82,-1
 501 57 l 1,83,-1
 494 45 l 1,21,-1
EndSplineSet
Validated: 1
EndChar

StartChar: oe
Encoding: 339 339 184
Width: 431
GlyphClass: 2
Flags: W
LayerCount: 2
Fore
SplineSet
220 69 m 1,0,-1
 216 89 l 1,1,-1
 214 110 l 1,2,-1
 213 236 l 1,3,-1
 209 264 l 1,4,-1
 190 272 l 1,5,-1
 177 273 l 1,6,-1
 157 272 l 1,7,-1
 143 267 l 1,8,-1
 125 250 l 1,9,-1
 106 214 l 1,10,-1
 88 179 l 1,11,-1
 84 161 l 1,12,-1
 82 90 l 1,13,-1
 88 64 l 1,14,-1
 102 45 l 1,15,-1
 125 29 l 1,16,-1
 139 25 l 1,17,-1
 176 25 l 1,18,-1
 196 33 l 1,19,-1
 220 61 l 1,20,-1
 220 69 l 1,0,-1
397 7 m 1,21,-1
 249 7 l 1,22,-1
 236 12 l 1,23,-1
 226 21 l 1,24,-1
 217 21 l 1,25,-1
 208 12 l 1,26,-1
 185 -1 l 1,27,-1
 171 -5 l 1,28,-1
 157 -10 l 1,29,-1
 139 -10 l 1,30,-1
 125 -5 l 1,31,-1
 105 2 l 1,32,-1
 88 12 l 1,33,-1
 68 24 l 1,34,-1
 51 47 l 1,35,-1
 46 61 l 1,36,-1
 39 110 l 1,37,-1
 39 137 l 1,38,-1
 41 157 l 1,39,-1
 46 184 l 1,40,-1
 51 196 l 1,41,-1
 58 211 l 1,42,-1
 69 231 l 1,43,-1
 88 263 l 1,44,-1
 107 282 l 1,45,-1
 129 296 l 1,46,-1
 143 302 l 1,47,-1
 159 305 l 1,48,-1
 194 307 l 1,49,-1
 208 311 l 1,50,-1
 217 319 l 1,51,-1
 231 324 l 1,52,-1
 245 319 l 1,53,-1
 254 311 l 1,54,-1
 268 307 l 1,55,-1
 397 307 l 1,56,-1
 411 302 l 1,57,-1
 411 293 l 1,58,-1
 393 275 l 1,59,-1
 379 272 l 1,60,-1
 268 272 l 1,61,-1
 254 267 l 1,62,-1
 249 253 l 1,63,-1
 249 201 l 1,64,-1
 254 188 l 1,65,-1
 268 184 l 1,66,-1
 342 184 l 1,67,-1
 356 179 l 1,68,-1
 360 166 l 1,69,-1
 356 152 l 1,70,-1
 342 148 l 1,71,-1
 268 148 l 1,72,-1
 254 144 l 1,73,-1
 249 130 l 1,74,-1
 257 82 l 1,75,-1
 264 61 l 1,76,-1
 273 47 l 1,77,-1
 286 42 l 1,78,-1
 360 42 l 1,79,-1
 374 39 l 1,80,-1
 388 37 l 1,81,-1
 402 23 l 1,82,-1
 402 15 l 1,83,-1
 397 7 l 1,21,-1
EndSplineSet
Validated: 1
EndChar

StartChar: Sacute
Encoding: 346 346 185
Width: 272
GlyphClass: 2
Flags: W
LayerCount: 2
Fore
SplineSet
231 102 m 1,0,-1
 220 84 l 1,1,-1
 204 68 l 1,2,-1
 186 56 l 1,3,-1
 172 52 l 1,4,-1
 164 52 l 1,5,-1
 144 52 l 1,6,-1
 132 56 l 1,7,-1
 112 64 l 1,8,-1
 100 68 l 1,9,-1
 68 100 l 1,10,-1
 57 119 l 1,11,-1
 52 132 l 1,12,-1
 48 144 l 1,13,-1
 52 156 l 1,14,-1
 68 172 l 1,15,-1
 76 172 l 1,16,-1
 92 156 l 1,17,-1
 96 144 l 1,18,-1
 100 133 l 1,19,-1
 109 117 l 1,20,-1
 136 89 l 1,21,-1
 148 85 l 1,22,-1
 164 85 l 1,23,-1
 176 89 l 1,24,-1
 190 108 l 1,25,-1
 194 120 l 1,26,-1
 196 140 l 1,27,-1
 196 164 l 1,28,-1
 192 192 l 1,29,-1
 188 204 l 1,30,-1
 177 220 l 1,31,-1
 165 238 l 1,32,-1
 132 283 l 1,33,-1
 84 340 l 1,34,-1
 69 357 l 1,35,-1
 60 370 l 1,36,-1
 49 390 l 1,37,-1
 36 420 l 1,38,-1
 32 432 l 1,39,-1
 32 448 l 1,40,-1
 34 469 l 1,41,-1
 39 481 l 1,42,-1
 50 496 l 1,43,-1
 84 524 l 1,44,-1
 101 534 l 1,45,-1
 116 540 l 1,46,-1
 128 544 l 1,47,-1
 176 544 l 1,48,-1
 188 540 l 1,49,-1
 204 524 l 1,50,-1
 204 516 l 1,51,-1
 189 503 l 1,52,-1
 177 507 l 1,53,-1
 148 509 l 1,54,-1
 129 505 l 1,55,-1
 105 498 l 1,56,-1
 86 477 l 1,57,-1
 76 462 l 1,58,-1
 73 439 l 1,59,-1
 77 427 l 1,60,-1
 84 404 l 1,61,-1
 94 385 l 1,62,-1
 124 348 l 1,63,-1
 204 252 l 1,64,-1
 215 234 l 1,65,-1
 225 219 l 1,66,-1
 229 207 l 1,67,-1
 235 191 l 1,68,-1
 239 179 l 1,69,-1
 242 165 l 1,70,-1
 245 150 l 1,71,-1
 240 128 l 1,72,-1
 236 116 l 1,73,-1
 231 102 l 1,0,-1
163 654 m 1,74,-1
 165 647 l 1,75,-1
 160 631 l 1,76,-1
 158 635 l 1,77,-1
 154 622 l 1,78,-1
 137 594 l 1,79,-1
 126 574 l 1,80,-1
 119 567 l 1,81,-1
 113 564 l 1,82,-1
 106 567 l 1,83,-1
 104 574 l 1,84,-1
 106 580 l 1,85,-1
 111 585 l 1,86,-1
 113 592 l 1,87,-1
 113 601 l 1,88,-1
 115 608 l 1,89,-1
 137 640 l 1,90,-1
 141 654 l 1,91,-1
 150 663 l 1,92,-1
 154 663 l 1,93,-1
 158 658 l 1,94,-1
 163 654 l 1,74,-1
EndSplineSet
Validated: 1
EndChar

StartChar: sacute
Encoding: 347 347 186
Width: 192
GlyphClass: 2
Flags: W
LayerCount: 2
Fore
SplineSet
148 32 m 1,0,-1
 141 25 l 1,1,-1
 132 22 l 1,2,-1
 108 21 l 1,3,-1
 92 24 l 1,4,-1
 78 30 l 1,5,-1
 66 35 l 1,6,-1
 36 56 l 1,7,-1
 32 68 l 1,8,-1
 32 84 l 1,9,-1
 38 89 l 1,10,-1
 43 90 l 1,11,-1
 79 57 l 1,12,-1
 107 51 l 1,13,-1
 124 53 l 1,14,-1
 129 57 l 1,15,-1
 134 77 l 1,16,-1
 130 98 l 1,17,-1
 124 112 l 1,18,-1
 106 144 l 1,19,-1
 30 252 l 1,20,-1
 27 261 l 1,21,-1
 28 270 l 1,22,-1
 41 295 l 1,23,-1
 57 310 l 1,24,-1
 67 312 l 1,25,-1
 72 312 l 1,26,-1
 81 310 l 1,27,-1
 92 304 l 1,28,-1
 121 274 l 1,29,-1
 116 264 l 1,30,-1
 109 264 l 1,31,-1
 101 272 l 1,32,-1
 88 285 l 1,33,-1
 72 290 l 1,34,-1
 62 286 l 1,35,-1
 56 278 l 1,36,-1
 54 264 l 1,37,-1
 56 256 l 1,38,-1
 124 176 l 1,39,-1
 140 153 l 1,40,-1
 144 144 l 1,41,-1
 154 114 l 1,42,-1
 160 84 l 1,43,-1
 160 52 l 1,44,-1
 156 40 l 1,45,-1
 148 32 l 1,0,-1
99 383 m 1,46,-1
 101 379 l 1,47,-1
 96 368 l 1,48,-1
 95 371 l 1,49,-1
 92 362 l 1,50,-1
 78 343 l 1,51,-1
 69 330 l 1,52,-1
 63 326 l 1,53,-1
 58 324 l 1,54,-1
 53 326 l 1,55,-1
 51 330 l 1,56,-1
 53 334 l 1,57,-1
 57 338 l 1,58,-1
 58 342 l 1,59,-1
 58 348 l 1,60,-1
 60 353 l 1,61,-1
 78 374 l 1,62,-1
 81 383 l 1,63,-1
 88 389 l 1,64,-1
 92 389 l 1,65,-1
 95 386 l 1,66,-1
 99 383 l 1,46,-1
EndSplineSet
Validated: 1
EndChar

StartChar: Scaron
Encoding: 352 352 187
Width: 272
GlyphClass: 2
Flags: W
LayerCount: 2
Fore
SplineSet
152 617 m 1,0,-1
 162 627 l 1,1,-1
 168 625 l 1,2,-1
 167 617 l 1,3,-1
 164 607 l 1,4,-1
 151 595 l 1,5,-1
 140 581 l 1,6,-1
 135 583 l 1,7,-1
 134 592 l 1,8,-1
 139 603 l 1,9,-1
 144 610 l 1,10,-1
 152 617 l 1,0,-1
93 643 m 1,11,-1
 101 637 l 1,12,-1
 100 619 l 1,13,-1
 114 591 l 1,14,-1
 128 580 l 1,15,-1
 127 570 l 1,16,-1
 125 560 l 1,17,-1
 117 553 l 1,18,-1
 110 553 l 1,19,-1
 102 559 l 1,20,-1
 103 576 l 1,21,-1
 79 627 l 1,22,-1
 78 636 l 1,23,-1
 84 642 l 1,24,-1
 93 643 l 1,11,-1
231 102 m 1,25,-1
 220 84 l 1,26,-1
 204 68 l 1,27,-1
 186 56 l 1,28,-1
 172 52 l 1,29,-1
 164 52 l 1,30,-1
 144 52 l 1,31,-1
 132 56 l 1,32,-1
 112 64 l 1,33,-1
 100 68 l 1,34,-1
 68 100 l 1,35,-1
 57 119 l 1,36,-1
 52 132 l 1,37,-1
 48 144 l 1,38,-1
 52 156 l 1,39,-1
 68 172 l 1,40,-1
 76 172 l 1,41,-1
 92 156 l 1,42,-1
 96 144 l 1,43,-1
 100 133 l 1,44,-1
 109 117 l 1,45,-1
 136 89 l 1,46,-1
 148 85 l 1,47,-1
 164 85 l 1,48,-1
 176 89 l 1,49,-1
 190 108 l 1,50,-1
 194 120 l 1,51,-1
 196 140 l 1,52,-1
 196 164 l 1,53,-1
 192 192 l 1,54,-1
 188 204 l 1,55,-1
 177 220 l 1,56,-1
 165 238 l 1,57,-1
 132 283 l 1,58,-1
 84 340 l 1,59,-1
 69 357 l 1,60,-1
 60 370 l 1,61,-1
 49 390 l 1,62,-1
 36 420 l 1,63,-1
 32 432 l 1,64,-1
 32 448 l 1,65,-1
 34 469 l 1,66,-1
 39 481 l 1,67,-1
 50 496 l 1,68,-1
 84 524 l 1,69,-1
 101 534 l 1,70,-1
 116 540 l 1,71,-1
 128 544 l 1,72,-1
 176 544 l 1,73,-1
 188 540 l 1,74,-1
 204 524 l 1,75,-1
 204 516 l 1,76,-1
 189 503 l 1,77,-1
 177 507 l 1,78,-1
 148 509 l 1,79,-1
 129 505 l 1,80,-1
 105 498 l 1,81,-1
 86 477 l 1,82,-1
 76 462 l 1,83,-1
 73 439 l 1,84,-1
 77 427 l 1,85,-1
 84 404 l 1,86,-1
 94 385 l 1,87,-1
 124 348 l 1,88,-1
 204 252 l 1,89,-1
 215 234 l 1,90,-1
 225 219 l 1,91,-1
 229 207 l 1,92,-1
 235 191 l 1,93,-1
 239 179 l 1,94,-1
 242 165 l 1,95,-1
 245 150 l 1,96,-1
 240 128 l 1,97,-1
 236 116 l 1,98,-1
 231 102 l 1,25,-1
EndSplineSet
Validated: 1
EndChar

StartChar: scaron
Encoding: 353 353 188
Width: 192
GlyphClass: 2
Flags: W
LayerCount: 2
Fore
SplineSet
118 403 m 1,0,-1
 128 413 l 1,1,-1
 134 411 l 1,2,-1
 133 403 l 1,3,-1
 130 393 l 1,4,-1
 117 381 l 1,5,-1
 106 367 l 1,6,-1
 101 369 l 1,7,-1
 100 378 l 1,8,-1
 105 389 l 1,9,-1
 110 396 l 1,10,-1
 118 403 l 1,0,-1
59 429 m 1,11,-1
 67 423 l 1,12,-1
 66 405 l 1,13,-1
 80 377 l 1,14,-1
 94 366 l 1,15,-1
 93 356 l 1,16,-1
 91 346 l 1,17,-1
 83 339 l 1,18,-1
 76 339 l 1,19,-1
 68 345 l 1,20,-1
 69 362 l 1,21,-1
 45 413 l 1,22,-1
 44 422 l 1,23,-1
 50 428 l 1,24,-1
 59 429 l 1,11,-1
148 32 m 1,25,-1
 141 25 l 1,26,-1
 132 22 l 1,27,-1
 108 21 l 1,28,-1
 92 24 l 1,29,-1
 78 30 l 1,30,-1
 66 35 l 1,31,-1
 36 56 l 1,32,-1
 32 68 l 1,33,-1
 32 84 l 1,34,-1
 38 89 l 1,35,-1
 43 90 l 1,36,-1
 79 57 l 1,37,-1
 107 51 l 1,38,-1
 124 53 l 1,39,-1
 129 57 l 1,40,-1
 134 77 l 1,41,-1
 130 98 l 1,42,-1
 124 112 l 1,43,-1
 106 144 l 1,44,-1
 30 252 l 1,45,-1
 27 261 l 1,46,-1
 28 270 l 1,47,-1
 41 295 l 1,48,-1
 57 310 l 1,49,-1
 67 312 l 1,50,-1
 72 312 l 1,51,-1
 81 310 l 1,52,-1
 92 304 l 1,53,-1
 121 274 l 1,54,-1
 116 264 l 1,55,-1
 109 264 l 1,56,-1
 101 272 l 1,57,-1
 88 285 l 1,58,-1
 72 290 l 1,59,-1
 62 286 l 1,60,-1
 56 278 l 1,61,-1
 54 264 l 1,62,-1
 56 256 l 1,63,-1
 124 176 l 1,64,-1
 140 153 l 1,65,-1
 144 144 l 1,66,-1
 154 114 l 1,67,-1
 160 84 l 1,68,-1
 160 52 l 1,69,-1
 156 40 l 1,70,-1
 148 32 l 1,25,-1
EndSplineSet
Validated: 1
EndChar

StartChar: Zacute
Encoding: 377 377 190
Width: 416
GlyphClass: 2
Flags: W
LayerCount: 2
Fore
SplineSet
368 48 m 1,0,-1
 272 48 l 1,1,-1
 220 52 l 1,2,-1
 208 48 l 1,3,-1
 144 48 l 1,4,-1
 96 48 l 1,5,-1
 64 48 l 1,6,-1
 52 52 l 1,7,-1
 40 59 l 1,8,-1
 32 67 l 1,9,-1
 28 79 l 1,10,-1
 33 102 l 1,11,-1
 45 106 l 1,12,-1
 58 111 l 1,13,-1
 70 115 l 1,14,-1
 92 157 l 1,15,-1
 99 176 l 1,16,-1
 117 217 l 1,17,-1
 137 258 l 1,18,-1
 141 270 l 1,19,-1
 157 302 l 1,20,-1
 175 338 l 1,21,-1
 191 370 l 1,22,-1
 217 419 l 1,23,-1
 221 431 l 1,24,-1
 237 463 l 1,25,-1
 256 501 l 1,26,-1
 268 521 l 1,27,-1
 268 529 l 1,28,-1
 256 533 l 1,29,-1
 91 533 l 1,30,-1
 79 537 l 1,31,-1
 82 569 l 1,32,-1
 94 573 l 1,33,-1
 122 577 l 1,34,-1
 144 576 l 1,35,-1
 289 575 l 1,36,-1
 301 579 l 1,37,-1
 319 589 l 1,38,-1
 346 589 l 1,39,-1
 348 577 l 1,40,-1
 327 533 l 1,41,-1
 300 484 l 1,42,-1
 284 452 l 1,43,-1
 268 420 l 1,44,-1
 192 256 l 1,45,-1
 188 244 l 1,46,-1
 180 229 l 1,47,-1
 156 180 l 1,48,-1
 140 148 l 1,49,-1
 127 121 l 1,50,-1
 127 113 l 1,51,-1
 132 100 l 1,52,-1
 144 96 l 1,53,-1
 208 96 l 1,54,-1
 256 96 l 1,55,-1
 352 96 l 1,56,-1
 364 92 l 1,57,-1
 380 76 l 1,58,-1
 384 64 l 1,59,-1
 380 52 l 1,60,-1
 368 48 l 1,0,-1
244 698 m 1,61,-1
 246 691 l 1,62,-1
 241 675 l 1,63,-1
 239 679 l 1,64,-1
 235 666 l 1,65,-1
 218 638 l 1,66,-1
 207 618 l 1,67,-1
 200 611 l 1,68,-1
 194 608 l 1,69,-1
 187 611 l 1,70,-1
 185 618 l 1,71,-1
 187 624 l 1,72,-1
 192 629 l 1,73,-1
 194 636 l 1,74,-1
 194 645 l 1,75,-1
 196 652 l 1,76,-1
 218 684 l 1,77,-1
 222 698 l 1,78,-1
 231 707 l 1,79,-1
 235 707 l 1,80,-1
 239 702 l 1,81,-1
 244 698 l 1,61,-1
EndSplineSet
Validated: 1
EndChar

StartChar: zacute
Encoding: 378 378 191
Width: 254
GlyphClass: 2
Flags: W
LayerCount: 2
Fore
SplineSet
226 44 m 1,0,-1
 219 41 l 1,1,-1
 207 39 l 1,2,-1
 191 39 l 1,3,-1
 179 41 l 1,4,-1
 154 36 l 1,5,-1
 110 32 l 1,6,-1
 98 28 l 1,7,-1
 62 16 l 1,8,-1
 50 20 l 1,9,-1
 34 36 l 1,10,-1
 34 44 l 1,11,-1
 50 60 l 1,12,-1
 69 68 l 1,13,-1
 73 80 l 1,14,-1
 78 112 l 1,15,-1
 82 124 l 1,16,-1
 98 156 l 1,17,-1
 105 165 l 1,18,-1
 154 260 l 1,19,-1
 158 272 l 1,20,-1
 155 287 l 1,21,-1
 143 291 l 1,22,-1
 111 291 l 1,23,-1
 99 287 l 1,24,-1
 87 282 l 1,25,-1
 67 279 l 1,26,-1
 43 279 l 1,27,-1
 35 279 l 1,28,-1
 24 290 l 1,29,-1
 24 298 l 1,30,-1
 30 304 l 1,31,-1
 44 309 l 1,32,-1
 55 311 l 1,33,-1
 64 311 l 1,34,-1
 76 315 l 1,35,-1
 158 320 l 1,36,-1
 170 324 l 1,37,-1
 178 332 l 1,38,-1
 190 336 l 1,39,-1
 202 332 l 1,40,-1
 206 320 l 1,41,-1
 202 308 l 1,42,-1
 194 300 l 1,43,-1
 190 288 l 1,44,-1
 190 272 l 1,45,-1
 186 260 l 1,46,-1
 174 224 l 1,47,-1
 162 204 l 1,48,-1
 146 172 l 1,49,-1
 130 140 l 1,50,-1
 114 108 l 1,51,-1
 110 96 l 1,52,-1
 110 80 l 1,53,-1
 114 68 l 1,54,-1
 127 66 l 1,55,-1
 138 68 l 1,56,-1
 147 72 l 1,57,-1
 159 76 l 1,58,-1
 222 80 l 1,59,-1
 234 76 l 1,60,-1
 238 64 l 1,61,-1
 234 52 l 1,62,-1
 226 44 l 1,0,-1
151 412 m 1,63,-1
 152 407 l 1,64,-1
 148 396 l 1,65,-1
 146 399 l 1,66,-1
 143 390 l 1,67,-1
 128 370 l 1,68,-1
 119 356 l 1,69,-1
 113 351 l 1,70,-1
 108 349 l 1,71,-1
 102 351 l 1,72,-1
 100 356 l 1,73,-1
 102 361 l 1,74,-1
 106 364 l 1,75,-1
 108 369 l 1,76,-1
 108 375 l 1,77,-1
 109 380 l 1,78,-1
 128 402 l 1,79,-1
 132 412 l 1,80,-1
 140 418 l 1,81,-1
 143 418 l 1,82,-1
 146 415 l 1,83,-1
 151 412 l 1,63,-1
EndSplineSet
Validated: 1
EndChar

StartChar: Zdotaccent
Encoding: 379 379 192
Width: 416
GlyphClass: 2
Flags: W
LayerCount: 2
Fore
SplineSet
219 645 m 1,0,-1
 209 633 l 1,1,-1
 204 633 l 1,2,-1
 186 643 l 1,3,-1
 181 661 l 1,4,-1
 184 669 l 1,5,-1
 198 675 l 1,6,-1
 204 689 l 1,7,-1
 212 692 l 1,8,-1
 219 689 l 1,9,-1
 222 682 l 1,10,-1
 228 664 l 1,11,-1
 225 650 l 1,12,-1
 219 645 l 1,0,-1
368 48 m 1,13,-1
 272 48 l 1,14,-1
 220 52 l 1,15,-1
 208 48 l 1,16,-1
 144 48 l 1,17,-1
 96 48 l 1,18,-1
 64 48 l 1,19,-1
 52 52 l 1,20,-1
 40 59 l 1,21,-1
 32 67 l 1,22,-1
 28 79 l 1,23,-1
 33 102 l 1,24,-1
 45 106 l 1,25,-1
 58 111 l 1,26,-1
 70 115 l 1,27,-1
 92 157 l 1,28,-1
 99 176 l 1,29,-1
 117 217 l 1,30,-1
 137 258 l 1,31,-1
 141 270 l 1,32,-1
 157 302 l 1,33,-1
 175 338 l 1,34,-1
 191 370 l 1,35,-1
 217 419 l 1,36,-1
 221 431 l 1,37,-1
 237 463 l 1,38,-1
 256 501 l 1,39,-1
 268 521 l 1,40,-1
 268 529 l 1,41,-1
 256 533 l 1,42,-1
 91 533 l 1,43,-1
 79 537 l 1,44,-1
 82 569 l 1,45,-1
 94 573 l 1,46,-1
 122 577 l 1,47,-1
 144 576 l 1,48,-1
 289 575 l 1,49,-1
 301 579 l 1,50,-1
 319 589 l 1,51,-1
 346 589 l 1,52,-1
 348 577 l 1,53,-1
 327 533 l 1,54,-1
 300 484 l 1,55,-1
 284 452 l 1,56,-1
 268 420 l 1,57,-1
 192 256 l 1,58,-1
 188 244 l 1,59,-1
 180 229 l 1,60,-1
 156 180 l 1,61,-1
 140 148 l 1,62,-1
 127 121 l 1,63,-1
 127 113 l 1,64,-1
 132 100 l 1,65,-1
 144 96 l 1,66,-1
 208 96 l 1,67,-1
 256 96 l 1,68,-1
 352 96 l 1,69,-1
 364 92 l 1,70,-1
 380 76 l 1,71,-1
 384 64 l 1,72,-1
 380 52 l 1,73,-1
 368 48 l 1,13,-1
EndSplineSet
Validated: 1
EndChar

StartChar: zdotaccent
Encoding: 380 380 193
Width: 254
GlyphClass: 2
Flags: W
LayerCount: 2
Fore
SplineSet
125 354 m 1,0,-1
 115 342 l 1,1,-1
 110 342 l 1,2,-1
 92 352 l 1,3,-1
 87 370 l 1,4,-1
 90 378 l 1,5,-1
 104 384 l 1,6,-1
 110 398 l 1,7,-1
 118 401 l 1,8,-1
 125 398 l 1,9,-1
 128 391 l 1,10,-1
 134 373 l 1,11,-1
 131 359 l 1,12,-1
 125 354 l 1,0,-1
226 44 m 1,13,-1
 219 41 l 1,14,-1
 207 39 l 1,15,-1
 191 39 l 1,16,-1
 179 41 l 1,17,-1
 154 36 l 1,18,-1
 110 32 l 1,19,-1
 98 28 l 1,20,-1
 62 16 l 1,21,-1
 50 20 l 1,22,-1
 34 36 l 1,23,-1
 34 44 l 1,24,-1
 50 60 l 1,25,-1
 69 68 l 1,26,-1
 73 80 l 1,27,-1
 78 112 l 1,28,-1
 82 124 l 1,29,-1
 98 156 l 1,30,-1
 105 165 l 1,31,-1
 154 260 l 1,32,-1
 158 272 l 1,33,-1
 155 287 l 1,34,-1
 143 291 l 1,35,-1
 111 291 l 1,36,-1
 99 287 l 1,37,-1
 87 282 l 1,38,-1
 67 279 l 1,39,-1
 43 279 l 1,40,-1
 35 279 l 1,41,-1
 24 290 l 1,42,-1
 24 298 l 1,43,-1
 30 304 l 1,44,-1
 44 309 l 1,45,-1
 55 311 l 1,46,-1
 64 311 l 1,47,-1
 76 315 l 1,48,-1
 158 320 l 1,49,-1
 170 324 l 1,50,-1
 178 332 l 1,51,-1
 190 336 l 1,52,-1
 202 332 l 1,53,-1
 206 320 l 1,54,-1
 202 308 l 1,55,-1
 194 300 l 1,56,-1
 190 288 l 1,57,-1
 190 272 l 1,58,-1
 186 260 l 1,59,-1
 174 224 l 1,60,-1
 162 204 l 1,61,-1
 146 172 l 1,62,-1
 130 140 l 1,63,-1
 114 108 l 1,64,-1
 110 96 l 1,65,-1
 110 80 l 1,66,-1
 114 68 l 1,67,-1
 127 66 l 1,68,-1
 138 68 l 1,69,-1
 147 72 l 1,70,-1
 159 76 l 1,71,-1
 222 80 l 1,72,-1
 234 76 l 1,73,-1
 238 64 l 1,74,-1
 234 52 l 1,75,-1
 226 44 l 1,13,-1
EndSplineSet
Validated: 1
EndChar

StartChar: Zcaron
Encoding: 381 381 194
Width: 416
GlyphClass: 2
Flags: W
LayerCount: 2
Fore
SplineSet
234 660 m 5,0,-1
 244 670 l 5,1,-1
 250 668 l 5,2,-1
 249 660 l 5,3,-1
 246 650 l 5,4,-1
 233 638 l 5,5,-1
 222 624 l 5,6,-1
 217 626 l 5,7,-1
 216 635 l 5,8,-1
 221 646 l 5,9,-1
 226 653 l 5,10,-1
 234 660 l 5,0,-1
175 686 m 5,11,-1
 183 680 l 5,12,-1
 182 662 l 5,13,-1
 196 634 l 5,14,-1
 210 623 l 5,15,-1
 209 613 l 5,16,-1
 207 603 l 5,17,-1
 199 596 l 5,18,-1
 192 596 l 5,19,-1
 184 602 l 5,20,-1
 185 619 l 5,21,-1
 161 670 l 5,22,-1
 160 679 l 5,23,-1
 166 685 l 5,24,-1
 175 686 l 5,11,-1
368 48 m 1,25,-1
 272 48 l 1,26,-1
 220 52 l 1,27,-1
 208 48 l 1,28,-1
 144 48 l 1,29,-1
 96 48 l 1,30,-1
 64 48 l 1,31,-1
 52 52 l 1,32,-1
 40 59 l 1,33,-1
 32 67 l 1,34,-1
 28 79 l 1,35,-1
 33 102 l 1,36,-1
 45 106 l 1,37,-1
 58 111 l 1,38,-1
 70 115 l 1,39,-1
 92 157 l 1,40,-1
 99 176 l 1,41,-1
 117 217 l 1,42,-1
 137 258 l 1,43,-1
 141 270 l 1,44,-1
 157 302 l 1,45,-1
 175 338 l 1,46,-1
 191 370 l 1,47,-1
 217 419 l 1,48,-1
 221 431 l 1,49,-1
 237 463 l 1,50,-1
 256 501 l 1,51,-1
 268 521 l 1,52,-1
 268 529 l 1,53,-1
 256 533 l 1,54,-1
 91 533 l 1,55,-1
 79 537 l 1,56,-1
 82 569 l 1,57,-1
 94 573 l 1,58,-1
 122 577 l 1,59,-1
 144 576 l 1,60,-1
 289 575 l 1,61,-1
 301 579 l 1,62,-1
 319 589 l 1,63,-1
 346 589 l 1,64,-1
 348 577 l 1,65,-1
 327 533 l 1,66,-1
 300 484 l 1,67,-1
 284 452 l 1,68,-1
 268 420 l 1,69,-1
 192 256 l 1,70,-1
 188 244 l 1,71,-1
 180 229 l 1,72,-1
 156 180 l 1,73,-1
 140 148 l 1,74,-1
 127 121 l 1,75,-1
 127 113 l 1,76,-1
 132 100 l 1,77,-1
 144 96 l 1,78,-1
 208 96 l 1,79,-1
 256 96 l 1,80,-1
 352 96 l 1,81,-1
 364 92 l 1,82,-1
 380 76 l 1,83,-1
 384 64 l 1,84,-1
 380 52 l 1,85,-1
 368 48 l 1,25,-1
EndSplineSet
Validated: 1
EndChar

StartChar: zcaron
Encoding: 382 382 195
Width: 264
GlyphClass: 2
Flags: W
LayerCount: 2
Fore
SplineSet
146 406 m 1,0,-1
 156 416 l 1,1,-1
 162 414 l 1,2,-1
 161 406 l 1,3,-1
 158 396 l 1,4,-1
 145 384 l 1,5,-1
 134 370 l 1,6,-1
 129 372 l 1,7,-1
 128 381 l 1,8,-1
 133 392 l 1,9,-1
 138 399 l 1,10,-1
 146 406 l 1,0,-1
87 432 m 1,11,-1
 95 426 l 1,12,-1
 94 408 l 1,13,-1
 108 380 l 1,14,-1
 122 369 l 1,15,-1
 121 359 l 1,16,-1
 119 349 l 1,17,-1
 111 342 l 1,18,-1
 104 342 l 1,19,-1
 96 348 l 1,20,-1
 97 365 l 1,21,-1
 73 416 l 1,22,-1
 72 425 l 1,23,-1
 78 431 l 1,24,-1
 87 432 l 1,11,-1
EndSplineSet
Refer: 93 122 N 1 0 0 1 0 0 2
Validated: 1
EndChar

StartChar: circumflex
Encoding: 710 710 196
Width: 160
GlyphClass: 2
Flags: W
LayerCount: 2
Fore
SplineSet
64 481 m 1,0,-1
 57 467 l 1,1,-1
 51 467 l 1,2,-1
 48 476 l 1,3,-1
 48 488 l 1,4,-1
 57 503 l 1,5,-1
 63 522 l 1,6,-1
 69 522 l 1,7,-1
 72 512 l 1,8,-1
 72 500 l 1,9,-1
 69 491 l 1,10,-1
 64 481 l 1,0,-1
132 476 m 1,11,-1
 123 479 l 1,12,-1
 117 497 l 1,13,-1
 93 522 l 1,14,-1
 75 528 l 1,15,-1
 72 537 l 1,16,-1
 72 549 l 1,17,-1
 75 558 l 1,18,-1
 84 561 l 1,19,-1
 93 558 l 1,20,-1
 99 540 l 1,21,-1
 141 497 l 1,22,-1
 144 488 l 1,23,-1
 141 479 l 1,24,-1
 132 476 l 1,11,-1
EndSplineSet
Validated: 1
EndChar

StartChar: tilde
Encoding: 732 732 197
Width: 242
GlyphClass: 2
Flags: W
LayerCount: 2
Fore
SplineSet
176 536 m 1,0,-1
 161 521 l 1,1,-1
 153 519 l 1,2,-1
 146 521 l 1,3,-1
 119 553 l 1,4,-1
 107 570 l 1,5,-1
 86 594 l 1,6,-1
 75 597 l 1,7,-1
 67 592 l 1,8,-1
 58 572 l 1,9,-1
 57 561 l 1,10,-1
 57 550 l 1,11,-1
 45 552 l 1,12,-1
 43 559 l 1,13,-1
 43 579 l 1,14,-1
 45 587 l 1,15,-1
 51 598 l 1,16,-1
 65 612 l 1,17,-1
 75 617 l 1,18,-1
 83 618 l 1,19,-1
 90 617 l 1,20,-1
 120 584 l 1,21,-1
 131 567 l 1,22,-1
 136 558 l 1,23,-1
 143 550 l 1,24,-1
 153 549 l 1,25,-1
 165 558 l 1,26,-1
 167 574 l 1,27,-1
 166 601 l 1,28,-1
 165 611 l 1,29,-1
 166 617 l 1,30,-1
 172 623 l 1,31,-1
 177 623 l 1,32,-1
 180 616 l 1,33,-1
 184 557 l 1,34,-1
 181 541 l 1,35,-1
 176 536 l 1,0,-1
EndSplineSet
Validated: 1
EndChar

StartChar: endash
Encoding: 8211 8211 198
Width: 272
GlyphClass: 2
Flags: W
LayerCount: 2
Fore
SplineSet
228 284 m 1,0,-1
 220 276 l 1,1,-1
 208 272 l 1,2,-1
 160 269 l 1,3,-1
 148 268 l 1,4,-1
 96 256 l 1,5,-1
 86 250 l 1,6,-1
 76 244 l 1,7,-1
 64 240 l 1,8,-1
 48 240 l 1,9,-1
 36 244 l 1,10,-1
 32 256 l 1,11,-1
 36 268 l 1,12,-1
 48 272 l 1,13,-1
 62 275 l 1,14,-1
 74 279 l 1,15,-1
 84 284 l 1,16,-1
 96 288 l 1,17,-1
 148 300 l 1,18,-1
 160 302 l 1,19,-1
 224 304 l 1,20,-1
 236 300 l 1,21,-1
 236 292 l 1,22,-1
 228 284 l 1,0,-1
EndSplineSet
Validated: 1
EndChar

StartChar: quoteleft
Encoding: 8216 8216 199
Width: 160
GlyphClass: 2
Flags: W
LayerCount: 2
Fore
SplineSet
84 548 m 1,0,-1
 82 541 l 1,1,-1
 80 533 l 1,2,-1
 77 527 l 1,3,-1
 61 498 l 1,4,-1
 58 491 l 1,5,-1
 49 482 l 1,6,-1
 42 480 l 1,7,-1
 34 482 l 1,8,-1
 32 489 l 1,9,-1
 32 496 l 1,10,-1
 34 503 l 1,11,-1
 39 509 l 1,12,-1
 58 536 l 1,13,-1
 64 548 l 1,14,-1
 73 558 l 1,15,-1
 80 560 l 1,16,-1
 87 558 l 1,17,-1
 87 553 l 1,18,-1
 84 548 l 1,0,-1
EndSplineSet
Validated: 1
EndChar

StartChar: quoteright
Encoding: 8217 8217 200
Width: 160
GlyphClass: 2
Flags: W
LayerCount: 2
Fore
SplineSet
80 548 m 1,0,-1
 77 541 l 1,1,-1
 76 533 l 1,2,-1
 73 526 l 1,3,-1
 56 499 l 1,4,-1
 55 493 l 1,5,-1
 47 483 l 1,6,-1
 41 480 l 1,7,-1
 34 483 l 1,8,-1
 32 489 l 1,9,-1
 32 498 l 1,10,-1
 34 504 l 1,11,-1
 38 510 l 1,12,-1
 43 522 l 1,13,-1
 60 549 l 1,14,-1
 69 557 l 1,15,-1
 76 560 l 1,16,-1
 82 557 l 1,17,-1
 82 553 l 1,18,-1
 80 548 l 1,0,-1
EndSplineSet
Validated: 1
EndChar

StartChar: quotesinglbase
Encoding: 8218 8218 201
Width: 160
GlyphClass: 2
Flags: W
LayerCount: 2
Fore
SplineSet
80 92 m 1,0,-1
 77 85 l 1,1,-1
 76 77 l 1,2,-1
 73 70 l 1,3,-1
 56 43 l 1,4,-1
 55 37 l 1,5,-1
 47 27 l 1,6,-1
 41 24 l 1,7,-1
 34 27 l 1,8,-1
 32 33 l 1,9,-1
 32 42 l 1,10,-1
 34 48 l 1,11,-1
 38 54 l 1,12,-1
 43 66 l 1,13,-1
 60 93 l 1,14,-1
 69 101 l 1,15,-1
 76 104 l 1,16,-1
 82 101 l 1,17,-1
 82 97 l 1,18,-1
 80 92 l 1,0,-1
EndSplineSet
EndChar

StartChar: quotedblleft
Encoding: 8220 8220 202
Width: 192
GlyphClass: 2
Flags: W
LayerCount: 2
Fore
SplineSet
68 524 m 1,0,-1
 60 516 l 1,1,-1
 52 516 l 1,2,-1
 36 532 l 1,3,-1
 32 544 l 1,4,-1
 32 656 l 1,5,-1
 36 668 l 1,6,-1
 48 672 l 1,7,-1
 60 668 l 1,8,-1
 64 656 l 1,9,-1
 64 640 l 1,10,-1
 68 628 l 1,11,-1
 76 620 l 1,12,-1
 80 608 l 1,13,-1
 80 544 l 1,14,-1
 76 532 l 1,15,-1
 68 524 l 1,0,-1
148 588 m 1,16,-1
 146 574 l 1,17,-1
 144 560 l 1,18,-1
 140 548 l 1,19,-1
 124 532 l 1,20,-1
 116 532 l 1,21,-1
 112 544 l 1,22,-1
 112 640 l 1,23,-1
 116 652 l 1,24,-1
 128 656 l 1,25,-1
 140 652 l 1,26,-1
 144 640 l 1,27,-1
 147 625 l 1,28,-1
 148 612 l 1,29,-1
 148 588 l 1,16,-1
EndSplineSet
Validated: 1
EndChar

StartChar: quotedblright
Encoding: 8221 8221 203
Width: 192
GlyphClass: 2
Flags: W
LayerCount: 2
Fore
SplineSet
112 664 m 1,0,-1
 120 672 l 1,1,-1
 128 672 l 1,2,-1
 144 656 l 1,3,-1
 148 644 l 1,4,-1
 148 532 l 1,5,-1
 144 520 l 1,6,-1
 132 516 l 1,7,-1
 120 520 l 1,8,-1
 116 532 l 1,9,-1
 116 548 l 1,10,-1
 112 560 l 1,11,-1
 104 568 l 1,12,-1
 100 580 l 1,13,-1
 100 644 l 1,14,-1
 104 656 l 1,15,-1
 112 664 l 1,0,-1
33 600 m 1,16,-1
 34 613 l 1,17,-1
 36 628 l 1,18,-1
 40 640 l 1,19,-1
 56 656 l 1,20,-1
 64 656 l 1,21,-1
 68 644 l 1,22,-1
 68 548 l 1,23,-1
 64 536 l 1,24,-1
 52 532 l 1,25,-1
 40 536 l 1,26,-1
 36 548 l 1,27,-1
 34 563 l 1,28,-1
 32 576 l 1,29,-1
 33 600 l 1,16,-1
EndSplineSet
EndChar

StartChar: currency
Encoding: 8364 8364 205
Width: 368
GlyphClass: 2
Flags: W
LayerCount: 2
Fore
SplineSet
322 202 m 1,0,-1
 309 182 l 1,1,-1
 295 166 l 1,2,-1
 264 148 l 1,3,-1
 252 144 l 1,4,-1
 222 145 l 1,5,-1
 208 148 l 1,6,-1
 200 153 l 1,7,-1
 183 168 l 1,8,-1
 160 196 l 1,9,-1
 150 215 l 1,10,-1
 144 228 l 1,11,-1
 140 240 l 1,12,-1
 127 306 l 1,13,-1
 124 326 l 1,14,-1
 124 336 l 1,15,-1
 120 352 l 1,16,-1
 108 352 l 1,17,-1
 92 352 l 1,18,-1
 80 356 l 1,19,-1
 76 368 l 1,20,-1
 80 380 l 1,21,-1
 97 383 l 1,22,-1
 108 384 l 1,23,-1
 120 388 l 1,24,-1
 120 412 l 1,25,-1
 108 416 l 1,26,-1
 44 416 l 1,27,-1
 32 420 l 1,28,-1
 32 435 l 1,29,-1
 44 439 l 1,30,-1
 76 440 l 1,31,-1
 88 443 l 1,32,-1
 120 448 l 1,33,-1
 123 453 l 1,34,-1
 124 480 l 1,35,-1
 127 495 l 1,36,-1
 144 542 l 1,37,-1
 151 551 l 1,38,-1
 176 572 l 1,39,-1
 195 583 l 1,40,-1
 208 588 l 1,41,-1
 213 589 l 1,42,-1
 267 589 l 1,43,-1
 279 585 l 1,44,-1
 288 580 l 1,45,-1
 308 570 l 1,46,-1
 316 560 l 1,47,-1
 316 544 l 1,48,-1
 312 537 l 1,49,-1
 304 537 l 1,50,-1
 270 555 l 1,51,-1
 260 556 l 1,52,-1
 225 553 l 1,53,-1
 198 544 l 1,54,-1
 189 538 l 1,55,-1
 176 523 l 1,56,-1
 167 505 l 1,57,-1
 163 496 l 1,58,-1
 159 463 l 1,59,-1
 160 452 l 1,60,-1
 172 448 l 1,61,-1
 252 448 l 1,62,-1
 264 444 l 1,63,-1
 268 432 l 1,64,-1
 264 420 l 1,65,-1
 252 416 l 1,66,-1
 172 416 l 1,67,-1
 160 412 l 1,68,-1
 160 388 l 1,69,-1
 172 384 l 1,70,-1
 236 384 l 1,71,-1
 248 380 l 1,72,-1
 252 368 l 1,73,-1
 248 356 l 1,74,-1
 236 352 l 1,75,-1
 172 352 l 1,76,-1
 160 348 l 1,77,-1
 157 343 l 1,78,-1
 160 324 l 1,79,-1
 172 256 l 1,80,-1
 176 244 l 1,81,-1
 187 221 l 1,82,-1
 194 210 l 1,83,-1
 211 189 l 1,84,-1
 220 184 l 1,85,-1
 249 179 l 1,86,-1
 268 184 l 1,87,-1
 294 215 l 1,88,-1
 298 227 l 1,89,-1
 300 240 l 1,90,-1
 304 252 l 1,91,-1
 312 252 l 1,92,-1
 319 252 l 1,93,-1
 328 220 l 1,94,-1
 328 212 l 1,95,-1
 322 202 l 1,0,-1
EndSplineSet
Validated: 1
EndChar

StartChar: trademark
Encoding: 8482 8482 206
Width: 236
GlyphClass: 2
Flags: W
LayerCount: 2
Fore
SplineSet
109 579 m 1,0,-1
 77 579 l 1,1,-1
 74 578 l 1,2,-1
 74 575 l 1,3,-1
 73 563 l 1,4,-1
 73 546 l 1,5,-1
 75 496 l 1,6,-1
 76 483 l 1,7,-1
 77 479 l 1,8,-1
 77 472 l 1,9,-1
 76 470 l 1,10,-1
 72 466 l 1,11,-1
 71 466 l 1,12,-1
 66 470 l 1,13,-1
 65 479 l 1,14,-1
 65 483 l 1,15,-1
 63 524 l 1,16,-1
 63 527 l 1,17,-1
 63 536 l 1,18,-1
 62 540 l 1,19,-1
 61 550 l 1,20,-1
 61 557 l 1,21,-1
 60 574 l 1,22,-1
 60 577 l 1,23,-1
 57 577 l 1,24,-1
 33 577 l 1,25,-1
 31 576 l 1,26,-1
 27 575 l 1,27,-1
 24 574 l 1,28,-1
 22 575 l 1,29,-1
 18 578 l 1,30,-1
 17 581 l 1,31,-1
 18 584 l 1,32,-1
 21 584 l 1,33,-1
 56 584 l 1,34,-1
 58 585 l 1,35,-1
 60 587 l 1,36,-1
 63 588 l 1,37,-1
 66 588 l 1,38,-1
 69 587 l 1,39,-1
 71 587 l 1,40,-1
 73 587 l 1,41,-1
 74 587 l 1,42,-1
 77 588 l 1,43,-1
 108 588 l 1,44,-1
 111 587 l 1,45,-1
 112 584 l 1,46,-1
 111 580 l 1,47,-1
 109 579 l 1,0,-1
206 485 m 1,48,-1
 204 484 l 1,49,-1
 203 484 l 1,50,-1
 199 487 l 1,51,-1
 198 490 l 1,52,-1
 198 546 l 1,53,-1
 197 548 l 1,54,-1
 196 548 l 1,55,-1
 178 527 l 1,56,-1
 171 518 l 1,57,-1
 166 515 l 1,58,-1
 164 515 l 1,59,-1
 161 519 l 1,60,-1
 157 523 l 1,61,-1
 150 533 l 1,62,-1
 140 547 l 1,63,-1
 131 559 l 1,64,-1
 129 559 l 1,65,-1
 129 557 l 1,66,-1
 131 555 l 1,67,-1
 132 553 l 1,68,-1
 134 499 l 1,69,-1
 135 496 l 1,70,-1
 135 469 l 1,71,-1
 134 466 l 1,72,-1
 133 466 l 1,73,-1
 128 467 l 1,74,-1
 126 471 l 1,75,-1
 126 476 l 1,76,-1
 123 501 l 1,77,-1
 123 505 l 1,78,-1
 121 550 l 1,79,-1
 121 558 l 1,80,-1
 121 561 l 1,81,-1
 120 565 l 1,82,-1
 122 568 l 1,83,-1
 125 570 l 1,84,-1
 127 570 l 1,85,-1
 131 569 l 1,86,-1
 134 566 l 1,87,-1
 138 563 l 1,88,-1
 145 552 l 1,89,-1
 155 538 l 1,90,-1
 164 527 l 1,91,-1
 166 527 l 1,92,-1
 176 538 l 1,93,-1
 193 557 l 1,94,-1
 194 559 l 1,95,-1
 195 562 l 1,96,-1
 196 565 l 1,97,-1
 199 570 l 1,98,-1
 201 570 l 1,99,-1
 204 566 l 1,100,-1
 205 563 l 1,101,-1
 206 507 l 1,102,-1
 207 504 l 1,103,-1
 208 499 l 1,104,-1
 209 497 l 1,105,-1
 209 490 l 1,106,-1
 208 487 l 1,107,-1
 206 485 l 1,48,-1
EndSplineSet
Validated: 1
EndChar

StartChar: Gbreve
Encoding: 286 286 208
Width: 349
Flags: W
LayerCount: 2
Fore
SplineSet
290 71 m 1,0,-1
 292 28 l 1,1,-1
 289 17 l 1,2,-1
 279 5 l 1,3,-1
 234 3 l 1,4,-1
 220 3 l 1,5,-1
 208 7 l 1,6,-1
 191 10 l 1,7,-1
 180 13 l 1,8,-1
 158 18 l 1,9,-1
 147 22 l 1,10,-1
 116 38 l 1,11,-1
 71 83 l 1,12,-1
 59 101 l 1,13,-1
 51 112 l 1,14,-1
 42 127 l 1,15,-1
 34 156 l 1,16,-1
 31 185 l 1,17,-1
 26 322 l 1,18,-1
 30 347 l 1,19,-1
 39 383 l 1,20,-1
 44 394 l 1,21,-1
 51 411 l 1,22,-1
 73 444 l 1,23,-1
 88 464 l 1,24,-1
 101 482 l 1,25,-1
 121 501 l 1,26,-1
 159 527 l 1,27,-1
 176 538 l 1,28,-1
 188 543 l 1,29,-1
 200 547 l 1,30,-1
 236 556 l 1,31,-1
 248 557 l 1,32,-1
 276 562 l 1,33,-1
 287 558 l 1,34,-1
 298 535 l 1,35,-1
 291 526 l 1,36,-1
 279 523 l 1,37,-1
 264 523 l 1,38,-1
 242 520 l 1,39,-1
 230 516 l 1,40,-1
 216 513 l 1,41,-1
 204 508 l 1,42,-1
 178 492 l 1,43,-1
 150 472 l 1,44,-1
 126 453 l 1,45,-1
 118 441 l 1,46,-1
 104 418 l 1,47,-1
 92 393 l 1,48,-1
 87 380 l 1,49,-1
 82 368 l 1,50,-1
 78 356 l 1,51,-1
 71 333 l 1,52,-1
 69 315 l 1,53,-1
 69 212 l 1,54,-1
 71 190 l 1,55,-1
 75 171 l 1,56,-1
 78 159 l 1,57,-1
 88 139 l 1,58,-1
 128 90 l 1,59,-1
 163 68 l 1,60,-1
 173 64 l 1,61,-1
 199 57 l 1,62,-1
 223 52 l 1,63,-1
 234 49 l 1,64,-1
 246 52 l 1,65,-1
 249 64 l 1,66,-1
 253 90 l 1,67,-1
 252 114 l 1,68,-1
 256 163 l 1,69,-1
 258 202 l 1,70,-1
 253 214 l 1,71,-1
 245 214 l 1,72,-1
 176 212 l 1,73,-1
 166 208 l 1,74,-1
 154 204 l 1,75,-1
 144 201 l 1,76,-1
 97 201 l 1,77,-1
 87 204 l 1,78,-1
 82 216 l 1,79,-1
 87 228 l 1,80,-1
 101 242 l 1,81,-1
 113 247 l 1,82,-1
 265 247 l 1,83,-1
 277 242 l 1,84,-1
 291 228 l 1,85,-1
 296 216 l 1,86,-1
 296 201 l 1,87,-1
 291 190 l 1,88,-1
 291 106 l 1,89,-1
 291 98 l 1,90,-1
 290 71 l 1,0,-1
234 609 m 5,91,-1
 227 602 l 5,92,-1
 217 599 l 5,93,-1
 175 599 l 5,94,-1
 165 595 l 5,95,-1
 158 588 l 5,96,-1
 147 585 l 5,97,-1
 120 585 l 5,98,-1
 109 581 l 5,99,-1
 102 574 l 5,100,-1
 92 571 l 5,101,-1
 78 571 l 5,102,-1
 67 574 l 5,103,-1
 64 585 l 5,104,-1
 67 595 l 5,105,-1
 78 599 l 5,106,-1
 92 599 l 5,107,-1
 102 602 l 5,108,-1
 109 609 l 5,109,-1
 120 613 l 5,110,-1
 147 613 l 5,111,-1
 158 616 l 5,112,-1
 165 623 l 5,113,-1
 175 627 l 5,114,-1
 231 627 l 5,115,-1
 241 623 l 5,116,-1
 241 616 l 5,117,-1
 234 609 l 5,91,-1
EndSplineSet
Validated: 1
EndChar

StartChar: gbreve
Encoding: 287 287 209
Width: 262
Flags: W
LayerCount: 2
Fore
SplineSet
221 125 m 1,0,-1
 217 115 l 1,1,-1
 217 72 l 1,2,-1
 214 62 l 1,3,-1
 198 34 l 1,4,-1
 183 20 l 1,5,-1
 171 16 l 1,6,-1
 125 16 l 1,7,-1
 113 20 l 1,8,-1
 90 41 l 1,9,-1
 56 64 l 1,10,-1
 36 90 l 1,11,-1
 32 101 l 1,12,-1
 29 199 l 1,13,-1
 36 224 l 1,14,-1
 43 241 l 1,15,-1
 51 252 l 1,16,-1
 67 280 l 1,17,-1
 98 308 l 1,18,-1
 129 322 l 1,19,-1
 140 326 l 1,20,-1
 187 326 l 1,21,-1
 198 322 l 1,22,-1
 202 312 l 1,23,-1
 198 301 l 1,24,-1
 187 298 l 1,25,-1
 140 298 l 1,26,-1
 129 294 l 1,27,-1
 98 266 l 1,28,-1
 82 238 l 1,29,-1
 78 227 l 1,30,-1
 67 196 l 1,31,-1
 63 185 l 1,32,-1
 63 129 l 1,33,-1
 67 118 l 1,34,-1
 82 90 l 1,35,-1
 129 48 l 1,36,-1
 140 44 l 1,37,-1
 156 44 l 1,38,-1
 167 48 l 1,39,-1
 183 62 l 1,40,-1
 187 72 l 1,41,-1
 187 115 l 1,42,-1
 183 125 l 1,43,-1
 171 129 l 1,44,-1
 109 129 l 1,45,-1
 98 132 l 1,46,-1
 94 143 l 1,47,-1
 98 153 l 1,48,-1
 109 157 l 1,49,-1
 136 160 l 1,50,-1
 190 160 l 1,51,-1
 198 160 l 1,52,-1
 206 167 l 1,53,-1
 214 167 l 1,54,-1
 229 153 l 1,55,-1
 233 143 l 1,56,-1
 229 132 l 1,57,-1
 221 125 l 1,0,-1
194 365 m 5,58,-1
 188 359 l 5,59,-1
 179 356 l 5,60,-1
 143 356 l 5,61,-1
 134 353 l 5,62,-1
 128 347 l 5,63,-1
 119 344 l 5,64,-1
 96 344 l 5,65,-1
 87 341 l 5,66,-1
 81 335 l 5,67,-1
 72 332 l 5,68,-1
 60 332 l 5,69,-1
 51 335 l 5,70,-1
 48 344 l 5,71,-1
 51 353 l 5,72,-1
 60 356 l 5,73,-1
 72 356 l 5,74,-1
 81 359 l 5,75,-1
 87 365 l 5,76,-1
 96 368 l 5,77,-1
 119 368 l 5,78,-1
 128 371 l 5,79,-1
 134 377 l 5,80,-1
 143 380 l 5,81,-1
 191 380 l 5,82,-1
 200 377 l 5,83,-1
 200 371 l 5,84,-1
 194 365 l 5,58,-1
EndSplineSet
Validated: 1
EndChar

StartChar: Idotaccent
Encoding: 304 304 210
Width: 146
Flags: W
LayerCount: 2
Fore
SplineSet
96 80 m 1,0,-1
 80 80 l 1,1,-1
 68 84 l 1,2,-1
 64 96 l 1,3,-1
 58 146 l 1,4,-1
 52 180 l 1,5,-1
 48 192 l 1,6,-1
 36 337 l 1,7,-1
 37 363 l 1,8,-1
 33 382 l 1,9,-1
 32 400 l 1,10,-1
 32 528 l 1,11,-1
 36 540 l 1,12,-1
 44 540 l 1,13,-1
 60 524 l 1,14,-1
 64 512 l 1,15,-1
 76 380 l 1,16,-1
 82 253 l 1,17,-1
 89 208 l 1,18,-1
 93 196 l 1,19,-1
 96 150 l 1,20,-1
 100 138 l 1,21,-1
 108 108 l 1,22,-1
 112 96 l 1,23,-1
 108 84 l 1,24,-1
 96 80 l 1,0,-1
47 591 m 5,25,-1
 37 579 l 5,26,-1
 32 579 l 5,27,-1
 14 589 l 5,28,-1
 9 607 l 5,29,-1
 12 615 l 5,30,-1
 26 621 l 5,31,-1
 32 635 l 5,32,-1
 40 638 l 5,33,-1
 47 635 l 5,34,-1
 50 628 l 5,35,-1
 56 610 l 5,36,-1
 53 596 l 5,37,-1
 47 591 l 5,25,-1
EndSplineSet
Validated: 1
EndChar

StartChar: dotlessi
Encoding: 305 305 211
Width: 116
Flags: W
LayerCount: 2
Fore
SplineSet
68 360 m 5,0,-1
 58 348 l 5,1,-1
 53 348 l 5,2,-1
 35 358 l 5,3,-1
 30 376 l 5,4,-1
 33 384 l 5,5,-1
 47 390 l 5,6,-1
 53 404 l 5,7,-1
 61 407 l 5,8,-1
 68 404 l 5,9,-1
 71 397 l 5,10,-1
 77 379 l 5,11,-1
 74 365 l 5,12,-1
 68 360 l 5,0,-1
64 32 m 1,13,-1
 48 32 l 1,14,-1
 38 43 l 1,15,-1
 38 123 l 1,16,-1
 44 180 l 1,17,-1
 44 188 l 1,18,-1
 48 224 l 1,19,-1
 48 240 l 1,20,-1
 48 288 l 1,21,-1
 44 300 l 1,22,-1
 36 308 l 1,23,-1
 36 316 l 1,24,-1
 52 332 l 1,25,-1
 60 332 l 1,26,-1
 76 316 l 1,27,-1
 80 304 l 1,28,-1
 80 48 l 1,29,-1
 76 36 l 1,30,-1
 64 32 l 1,13,-1
EndSplineSet
Validated: 1
EndChar

StartChar: Scedilla
Encoding: 350 350 212
Width: 272
Flags: W
LayerCount: 2
Fore
SplineSet
231 102 m 1,0,-1
 220 84 l 1,1,-1
 204 68 l 1,2,-1
 186 56 l 1,3,-1
 172 52 l 5,4,-1
 164 52 l 5,5,-1
 144 52 l 5,6,-1
 132 56 l 5,7,-1
 112 64 l 1,8,-1
 100 68 l 1,9,-1
 68 100 l 1,10,-1
 57 119 l 1,11,-1
 52 132 l 1,12,-1
 48 144 l 1,13,-1
 52 156 l 1,14,-1
 68 172 l 1,15,-1
 76 172 l 1,16,-1
 92 156 l 1,17,-1
 96 144 l 1,18,-1
 100 133 l 1,19,-1
 109 117 l 1,20,-1
 136 89 l 1,21,-1
 148 85 l 1,22,-1
 164 85 l 1,23,-1
 176 89 l 1,24,-1
 190 108 l 1,25,-1
 194 120 l 1,26,-1
 196 140 l 1,27,-1
 196 164 l 1,28,-1
 192 192 l 1,29,-1
 188 204 l 1,30,-1
 177 220 l 1,31,-1
 165 238 l 1,32,-1
 132 283 l 1,33,-1
 84 340 l 1,34,-1
 69 357 l 1,35,-1
 60 370 l 1,36,-1
 49 390 l 1,37,-1
 36 420 l 1,38,-1
 32 432 l 1,39,-1
 32 448 l 1,40,-1
 34 469 l 1,41,-1
 39 481 l 1,42,-1
 50 496 l 1,43,-1
 84 524 l 1,44,-1
 101 534 l 1,45,-1
 116 540 l 1,46,-1
 128 544 l 1,47,-1
 176 544 l 1,48,-1
 188 540 l 1,49,-1
 204 524 l 1,50,-1
 204 516 l 1,51,-1
 189 503 l 1,52,-1
 177 507 l 1,53,-1
 148 509 l 1,54,-1
 129 505 l 1,55,-1
 105 498 l 1,56,-1
 86 477 l 1,57,-1
 76 462 l 1,58,-1
 73 439 l 1,59,-1
 77 427 l 1,60,-1
 84 404 l 1,61,-1
 94 385 l 1,62,-1
 124 348 l 1,63,-1
 204 252 l 1,64,-1
 215 234 l 1,65,-1
 225 219 l 1,66,-1
 229 207 l 1,67,-1
 235 191 l 1,68,-1
 239 179 l 1,69,-1
 242 165 l 1,70,-1
 245 150 l 1,71,-1
 240 128 l 1,72,-1
 236 116 l 1,73,-1
 231 102 l 1,0,-1
120 61 m 5,74,-1
 146 53 l 5,75,-1
 136 52 l 5,76,-1
 134 45 l 5,77,-1
 142 41 l 5,78,-1
 155 38 l 5,79,-1
 162 35 l 5,80,-1
 169 21 l 5,81,-1
 172 12 l 5,82,-1
 167 -1 l 5,83,-1
 161 -6 l 5,84,-1
 129 -26 l 5,85,-1
 120 -27 l 5,86,-1
 107 -24 l 5,87,-1
 100 -20 l 5,88,-1
 91 -5 l 5,89,-1
 91 3 l 5,90,-1
 97 10 l 5,91,-1
 103 10 l 5,92,-1
 107 3 l 5,93,-1
 114 -1 l 5,94,-1
 125 0 l 5,95,-1
 141 8 l 5,96,-1
 142 15 l 5,97,-1
 135 18 l 5,98,-1
 122 21 l 5,99,-1
 114 26 l 5,100,-1
 107 40 l 5,101,-1
 104 48 l 5,102,-1
 112 56 l 5,103,-1
 120 61 l 5,74,-1
EndSplineSet
Validated: 5
EndChar

StartChar: scedilla
Encoding: 351 351 213
Width: 177
Flags: W
LayerCount: 2
Fore
SplineSet
148 32 m 1,0,-1
 141 25 l 1,1,-1
 132 22 l 1,2,-1
 108 21 l 1,3,-1
 92 24 l 1,4,-1
 78 30 l 1,5,-1
 66 35 l 1,6,-1
 36 56 l 1,7,-1
 32 68 l 1,8,-1
 32 84 l 1,9,-1
 38 89 l 1,10,-1
 43 90 l 1,11,-1
 79 57 l 1,12,-1
 107 51 l 1,13,-1
 124 53 l 1,14,-1
 129 57 l 1,15,-1
 134 77 l 1,16,-1
 130 98 l 1,17,-1
 124 112 l 1,18,-1
 106 144 l 1,19,-1
 30 252 l 1,20,-1
 27 261 l 1,21,-1
 28 270 l 1,22,-1
 41 295 l 1,23,-1
 57 310 l 1,24,-1
 67 312 l 1,25,-1
 72 312 l 1,26,-1
 81 310 l 1,27,-1
 92 304 l 1,28,-1
 121 274 l 1,29,-1
 116 264 l 1,30,-1
 109 264 l 1,31,-1
 101 272 l 1,32,-1
 88 285 l 1,33,-1
 72 290 l 1,34,-1
 62 286 l 1,35,-1
 56 278 l 1,36,-1
 54 264 l 1,37,-1
 56 256 l 1,38,-1
 124 176 l 1,39,-1
 140 153 l 1,40,-1
 144 144 l 1,41,-1
 154 114 l 1,42,-1
 160 84 l 1,43,-1
 160 52 l 1,44,-1
 156 40 l 1,45,-1
 148 32 l 1,0,-1
86 29 m 1,46,-1
 103 24 l 1,47,-1
 97 23 l 1,48,-1
 95 18 l 1,49,-1
 101 15 l 1,50,-1
 109 13 l 1,51,-1
 114 11 l 1,52,-1
 119 2 l 1,53,-1
 121 -4 l 1,54,-1
 118 -13 l 1,55,-1
 114 -16 l 1,56,-1
 92 -30 l 1,57,-1
 86 -31 l 1,58,-1
 77 -29 l 1,59,-1
 72 -26 l 1,60,-1
 66 -16 l 1,61,-1
 66 -10 l 1,62,-1
 70 -6 l 1,63,-1
 74 -6 l 1,64,-1
 77 -10 l 1,65,-1
 82 -13 l 1,66,-1
 89 -12 l 1,67,-1
 100 -7 l 1,68,-1
 101 -2 l 1,69,-1
 96 0 l 1,70,-1
 87 2 l 1,71,-1
 82 5 l 1,72,-1
 77 15 l 1,73,-1
 75 20 l 1,74,-1
 80 26 l 1,75,-1
 86 29 l 1,46,-1
EndSplineSet
Validated: 5
EndChar

StartChar: yen
Encoding: 165 165 214
Width: 368
Flags: W
LayerCount: 2
Fore
SplineSet
324 572 m 1,0,-1
 300 532 l 1,1,-1
 268 484 l 1,2,-1
 236 436 l 1,3,-1
 220 404 l 1,4,-1
 216 387 l 1,5,-1
 215 372 l 1,6,-1
 215 344 l 1,7,-1
 216 328 l 1,8,-1
 220 276 l 1,9,-1
 220 252 l 1,10,-1
 222 213 l 1,11,-1
 224 64 l 1,12,-1
 220 52 l 1,13,-1
 212 52 l 1,14,-1
 184 56 l 1,15,-1
 180 68 l 1,16,-1
 177 102 l 1,17,-1
 173 158 l 1,18,-1
 176 191 l 1,19,-1
 176 224 l 1,20,-1
 170 352 l 1,21,-1
 166 364 l 1,22,-1
 149 406 l 1,23,-1
 132 422 l 1,24,-1
 68 500 l 1,25,-1
 36 548 l 1,26,-1
 32 560 l 1,27,-1
 36 572 l 1,28,-1
 48 576 l 1,29,-1
 60 572 l 1,30,-1
 87 541 l 1,31,-1
 108 508 l 1,32,-1
 164 436 l 1,33,-1
 176 432 l 1,34,-1
 188 436 l 1,35,-1
 204 452 l 1,36,-1
 233 502 l 1,37,-1
 273 570 l 1,38,-1
 282 589 l 1,39,-1
 298 605 l 1,40,-1
 320 608 l 1,41,-1
 332 604 l 1,42,-1
 336 592 l 1,43,-1
 332 580 l 1,44,-1
 324 572 l 1,0,-1
288 383 m 1,45,-1
 226 382 l 1,46,-1
 214 378 l 1,47,-1
 188 371 l 1,48,-1
 172 369 l 1,49,-1
 96 367 l 1,50,-1
 84 363 l 1,51,-1
 76 355 l 1,52,-1
 64 351 l 1,53,-1
 52 355 l 1,54,-1
 52 363 l 1,55,-1
 68 379 l 1,56,-1
 92 387 l 1,57,-1
 100 395 l 1,58,-1
 112 399 l 1,59,-1
 176 399 l 1,60,-1
 272 415 l 1,61,-1
 288 415 l 1,62,-1
 300 411 l 1,63,-1
 304 399 l 1,64,-1
 300 387 l 1,65,-1
 288 383 l 1,45,-1
308 283 m 1,66,-1
 300 275 l 1,67,-1
 288 271 l 1,68,-1
 64 271 l 1,69,-1
 52 275 l 1,70,-1
 52 283 l 1,71,-1
 68 299 l 1,72,-1
 80 303 l 1,73,-1
 208 303 l 1,74,-1
 220 307 l 1,75,-1
 244 307 l 1,76,-1
 256 303 l 1,77,-1
 304 303 l 1,78,-1
 316 299 l 1,79,-1
 316 291 l 1,80,-1
 308 283 l 1,66,-1
EndSplineSet
Validated: 5
EndChar

StartChar: uni00AD
Encoding: 173 173 215
Width: 272
Flags: W
LayerCount: 2
Fore
SplineSet
228 284 m 1,0,-1
 220 276 l 1,1,-1
 208 272 l 1,2,-1
 160 272 l 1,3,-1
 148 268 l 1,4,-1
 140 260 l 1,5,-1
 128 256 l 1,6,-1
 96 256 l 1,7,-1
 84 252 l 1,8,-1
 76 244 l 1,9,-1
 64 240 l 1,10,-1
 48 240 l 1,11,-1
 36 244 l 1,12,-1
 32 256 l 1,13,-1
 36 268 l 1,14,-1
 48 272 l 1,15,-1
 64 272 l 1,16,-1
 76 276 l 1,17,-1
 84 284 l 1,18,-1
 96 288 l 1,19,-1
 128 288 l 1,20,-1
 140 292 l 1,21,-1
 148 300 l 1,22,-1
 160 304 l 1,23,-1
 224 304 l 1,24,-1
 236 300 l 1,25,-1
 236 292 l 1,26,-1
 228 284 l 1,0,-1
EndSplineSet
Validated: 1
EndChar

StartChar: thorn
Encoding: 254 254 216
Width: 320
Flags: W
LayerCount: 2
Fore
SplineSet
89 214 m 1,0,-1
 89 278 l 1,1,-1
 92 299 l 1,2,-1
 108 297 l 1,3,-1
 121 294 l 1,4,-1
 133 290 l 1,5,-1
 165 274 l 1,6,-1
 197 247 l 1,7,-1
 200 235 l 1,8,-1
 197 223 l 1,9,-1
 182 205 l 1,10,-1
 169 198 l 1,11,-1
 145 191 l 1,12,-1
 131 188 l 1,13,-1
 117 186 l 1,14,-1
 105 187 l 1,15,-1
 91 193 l 1,16,-1
 89 214 l 1,0,-1
53 162 m 1,17,-1
 57 150 l 1,18,-1
 57 118 l 1,19,-1
 55 104 l 1,20,-1
 41 6 l 1,21,-1
 45 -6 l 1,22,-1
 57 -10 l 1,23,-1
 69 -6 l 1,24,-1
 76 10 l 1,25,-1
 85 51 l 1,26,-1
 87 70 l 1,27,-1
 91 150 l 1,28,-1
 93 162 l 1,29,-1
 104 163 l 1,30,-1
 149 167 l 1,31,-1
 165 170 l 1,32,-1
 174 174 l 1,33,-1
 197 186 l 1,34,-1
 226 212 l 1,35,-1
 233 230 l 1,36,-1
 233 246 l 1,37,-1
 228 264 l 1,38,-1
 209 286 l 1,39,-1
 181 306 l 1,40,-1
 149 322 l 1,41,-1
 137 326 l 1,42,-1
 95 340 l 1,43,-1
 90 349 l 1,44,-1
 89 502 l 1,45,-1
 85 514 l 1,46,-1
 73 518 l 1,47,-1
 61 514 l 1,48,-1
 57 502 l 1,49,-1
 57 358 l 1,50,-1
 54 340 l 1,51,-1
 53 306 l 1,52,-1
 57 294 l 1,53,-1
 57 230 l 1,54,-1
 54 206 l 1,55,-1
 53 162 l 1,17,-1
EndSplineSet
Validated: 9
EndChar

StartChar: Amacron
Encoding: 256 256 217
Width: 343
Flags: W
LayerCount: 2
Fore
SplineSet
265 629 m 5,0,-1
 258 622 l 5,1,-1
 217 619 l 5,2,-1
 206 619 l 5,3,-1
 196 615 l 5,4,-1
 189 608 l 5,5,-1
 178 605 l 5,6,-1
 151 605 l 5,7,-1
 140 601 l 5,8,-1
 133 594 l 5,9,-1
 123 578 l 5,10,-1
 109 578 l 5,11,-1
 98 594 l 5,12,-1
 95 605 l 5,13,-1
 98 615 l 5,14,-1
 109 619 l 5,15,-1
 123 619 l 5,16,-1
 133 622 l 5,17,-1
 140 629 l 5,18,-1
 151 633 l 5,19,-1
 178 633 l 5,20,-1
 189 636 l 5,21,-1
 196 643 l 5,22,-1
 206 647 l 5,23,-1
 262 647 l 5,24,-1
 272 643 l 5,25,-1
 272 636 l 5,26,-1
 265 629 l 5,0,-1
241 207 m 1,27,-1
 239 212 l 1,28,-1
 234 237 l 1,29,-1
 204 432 l 1,30,-1
 200 444 l 1,31,-1
 188 448 l 1,32,-1
 176 444 l 1,33,-1
 172 432 l 1,34,-1
 138 300 l 1,35,-1
 125 234 l 1,36,-1
 122 210 l 1,37,-1
 124 201 l 1,38,-1
 225 191 l 1,39,-1
 237 195 l 1,40,-1
 241 207 l 1,27,-1
304 36 m 1,41,-1
 296 28 l 1,42,-1
 288 28 l 1,43,-1
 272 35 l 1,44,-1
 268 56 l 1,45,-1
 268 72 l 1,46,-1
 264 84 l 1,47,-1
 248 158 l 1,48,-1
 236 162 l 1,49,-1
 156 162 l 1,50,-1
 116 165 l 1,51,-1
 92 56 l 1,52,-1
 88 44 l 1,53,-1
 72 28 l 1,54,-1
 57 32 l 1,55,-1
 53 44 l 1,56,-1
 71 153 l 1,57,-1
 67 165 l 1,58,-1
 32 172 l 1,59,-1
 34 202 l 1,60,-1
 46 206 l 1,61,-1
 62 206 l 1,62,-1
 74 210 l 1,63,-1
 83 221 l 1,64,-1
 94 260 l 1,65,-1
 108 324 l 1,66,-1
 112 336 l 1,67,-1
 156 496 l 1,68,-1
 159 509 l 1,69,-1
 169 534 l 1,70,-1
 173 546 l 1,71,-1
 189 562 l 1,72,-1
 197 562 l 1,73,-1
 207 551 l 1,74,-1
 213 530 l 1,75,-1
 217 518 l 1,76,-1
 232 460 l 1,77,-1
 236 448 l 1,78,-1
 268 312 l 1,79,-1
 278 268 l 1,80,-1
 291 199 l 1,81,-1
 312 190 l 1,82,-1
 316 178 l 1,83,-1
 312 166 l 1,84,-1
 299 160 l 1,85,-1
 299 152 l 1,86,-1
 311 67 l 1,87,-1
 311 51 l 1,88,-1
 312 44 l 1,89,-1
 304 36 l 1,41,-1
EndSplineSet
Validated: 1
EndChar

StartChar: Abreve
Encoding: 258 258 218
Width: 384
Flags: W
LayerCount: 2
Fore
SplineSet
190.346679688 612.90625 m 5,0,-1
 201.502929688 612.90625 l 5,1,-1
 214.890625 621.1875 l 5,2,-1
 217.12109375 635.911132812 l 5,3,-1
 216.005859375 660.755859375 l 5,4,-1
 214.890625 669.958007812 l 5,5,-1
 216.005859375 675.479492188 l 5,6,-1
 222.69921875 681.000976562 l 5,7,-1
 228.27734375 681.000976562 l 5,8,-1
 231.625 674.55859375 l 5,9,-1
 236.086914062 620.267578125 l 5,10,-1
 232.740234375 605.543945312 l 5,11,-1
 227.162109375 600.943359375 l 5,12,-1
 210.427734375 587.140625 l 5,13,-1
 201.502929688 585.299804688 l 5,14,-1
 187 586.220703125 l 5,15,-1
 179.190429688 584.380859375 l 5,16,-1
 170.265625 586.220703125 l 5,17,-1
 153.53125 600.0234375 l 5,18,-1
 147.953125 604.625 l 5,19,-1
 144.60546875 619.34765625 l 5,20,-1
 149.068359375 673.638671875 l 5,21,-1
 152.415039062 680.080078125 l 5,22,-1
 157.993164062 680.080078125 l 5,23,-1
 164.6875 674.55859375 l 5,24,-1
 165.802734375 669.038085938 l 5,25,-1
 164.6875 659.8359375 l 5,26,-1
 163.571289062 634.991210938 l 5,27,-1
 165.802734375 620.267578125 l 5,28,-1
 179.190429688 611.986328125 l 5,29,-1
 190.346679688 612.90625 l 5,0,-1
EndSplineSet
Refer: 36 65 N 1 0 0 1 0 0 2
Validated: 1
EndChar

StartChar: amacron
Encoding: 257 257 219
Width: 277
Flags: W
LayerCount: 2
Fore
SplineSet
194 388 m 5,0,-1
 188 382 l 5,1,-1
 173 373 l 5,2,-1
 143 379 l 5,3,-1
 134 376 l 5,4,-1
 128 370 l 5,5,-1
 119 367 l 5,6,-1
 96 367 l 5,7,-1
 87 364 l 5,8,-1
 81 358 l 5,9,-1
 72 355 l 5,10,-1
 60 355 l 5,11,-1
 51 358 l 5,12,-1
 48 367 l 5,13,-1
 51 376 l 5,14,-1
 60 379 l 5,15,-1
 72 379 l 5,16,-1
 81 382 l 5,17,-1
 87 388 l 5,18,-1
 96 391 l 5,19,-1
 119 391 l 5,20,-1
 128 394 l 5,21,-1
 134 400 l 5,22,-1
 143 403 l 5,23,-1
 191 403 l 5,24,-1
 200 400 l 5,25,-1
 200 394 l 5,26,-1
 194 388 l 5,0,-1
170 170 m 1,27,-1
 156 193 l 1,28,-1
 140 208 l 1,29,-1
 132 208 l 1,30,-1
 112 167 l 1,31,-1
 116 155 l 1,32,-1
 128 152 l 1,33,-1
 144 152 l 1,34,-1
 167 154 l 1,35,-1
 170 170 l 1,27,-1
244 42 m 1,36,-1
 236 34 l 1,37,-1
 228 34 l 1,38,-1
 224 46 l 1,39,-1
 217 74 l 1,40,-1
 213 85 l 1,41,-1
 204 102 l 1,42,-1
 194 118 l 1,43,-1
 153 120 l 1,44,-1
 128 121 l 1,45,-1
 116 118 l 1,46,-1
 100 102 l 1,47,-1
 92 80 l 1,48,-1
 80 46 l 1,49,-1
 76 34 l 1,50,-1
 68 5 l 1,51,-1
 52 4 l 1,52,-1
 35 12 l 1,53,-1
 32 30 l 1,54,-1
 36 42 l 1,55,-1
 44 49 l 1,56,-1
 48 61 l 1,57,-1
 76 155 l 1,58,-1
 80 167 l 1,59,-1
 112 273 l 1,60,-1
 112 288 l 1,61,-1
 108 299 l 1,62,-1
 100 307 l 1,63,-1
 96 318 l 1,64,-1
 100 329 l 1,65,-1
 124 337 l 1,66,-1
 144 318 l 1,67,-1
 148 307 l 1,68,-1
 156 299 l 1,69,-1
 160 288 l 1,70,-1
 188 208 l 1,71,-1
 198 189 l 1,72,-1
 223 141 l 1,73,-1
 231 134 l 1,74,-1
 235 122 l 1,75,-1
 253 69 l 1,76,-1
 252 49 l 1,77,-1
 244 42 l 1,36,-1
EndSplineSet
Validated: 1
EndChar

